<svg width="43" height="56" viewBox="0 0 43 56" fill="none" xmlns="http://www.w3.org/2000/svg">
<g filter="url(#filter0_d_594_26)">
<path d="M36.9591 28.0633L29.1291 24.1483C32.2466 21.7317 34.2525 17.9617 34.2525 13.7083C34.2525 6.38583 28.2833 0.416668 20.9608 0.416668C13.6383 0.416668 7.66913 6.38583 7.66913 13.7083C7.66913 18.8558 10.6175 23.3267 14.9191 25.5258V33.4042C9.72329 32.2925 10.0375 32.3408 9.45746 32.3408C8.17663 32.3408 6.96829 32.8483 6.04996 33.7667L2.66663 37.1983L14.9675 49.4992C16.0066 50.5625 17.4566 51.1667 18.955 51.1667H34.18C36.5483 51.1667 38.5541 49.475 38.9408 47.1308L40.8741 35.7483C41.4058 32.6067 39.835 29.5133 36.9591 28.0633ZM36.1133 34.9508L34.18 46.3333H18.955C18.7375 46.3333 18.5441 46.2367 18.375 46.0917L9.48163 37.1983L19.7525 39.3492V13.7083C19.7525 13.0317 20.2841 12.5 20.9608 12.5C21.6375 12.5 22.1691 13.0317 22.1691 13.7083V28.2083H26.4225L34.7841 32.3892C35.7508 32.8725 36.2825 33.9117 36.1133 34.9508ZM12.5025 13.7083C12.5025 9.04417 16.2966 5.25 20.9608 5.25C25.625 5.25 29.4191 9.04417 29.4191 13.7083C29.4191 16.0042 28.5008 18.0825 27.0025 19.605V13.7083C27.0025 10.3733 24.2958 7.66667 20.9608 7.66667C17.6258 7.66667 14.9191 10.3733 14.9191 13.7083V19.605C13.4208 18.0825 12.5025 16.0042 12.5025 13.7083Z" fill="white"/>
</g>
<defs>
<filter id="filter0_d_594_26" x="0.666626" y="0.416668" width="42.3101" height="54.75" filterUnits="userSpaceOnUse" color-interpolation-filters="sRGB">
<feFlood flood-opacity="0" result="BackgroundImageFix"/>
<feColorMatrix in="SourceAlpha" type="matrix" values="0 0 0 0 0 0 0 0 0 0 0 0 0 0 0 0 0 0 127 0" result="hardAlpha"/>
<feOffset dy="2"/>
<feGaussianBlur stdDeviation="1"/>
<feComposite in2="hardAlpha" operator="out"/>
<feColorMatrix type="matrix" values="0 0 0 0 0 0 0 0 0 0 0 0 0 0 0 0 0 0 0.5 0"/>
<feBlend mode="normal" in2="BackgroundImageFix" result="effect1_dropShadow_594_26"/>
<feBlend mode="normal" in="SourceGraphic" in2="effect1_dropShadow_594_26" result="shape"/>
</filter>
</defs>
</svg>
