<svg width="68" height="68" viewBox="0 0 68 68" fill="none" xmlns="http://www.w3.org/2000/svg">
<path d="M33.9998 0.666687C15.5998 0.666687 0.666504 15.6 0.666504 34C0.666504 52.4 15.5998 67.3334 33.9998 67.3334C52.3998 67.3334 67.3332 52.4 67.3332 34C67.3332 15.6 52.3998 0.666687 33.9998 0.666687ZM33.9998 60.6667C19.2998 60.6667 7.33317 48.7 7.33317 34C7.33317 19.3 19.2998 7.33335 33.9998 7.33335C48.6998 7.33335 60.6665 19.3 60.6665 34C60.6665 48.7 48.6998 60.6667 33.9998 60.6667ZM49.2998 19.2667L27.3332 41.2334L18.6998 32.6334L13.9998 37.3334L27.3332 50.6667L53.9998 24L49.2998 19.2667Z" fill="#FF0000"/>
</svg>
