<svg width="16" height="16" viewBox="0 0 16 16" fill="none" xmlns="http://www.w3.org/2000/svg">
<path d="M8 16C12.4183 16 16 12.4183 16 8C16 3.58172 12.4183 0 8 0C3.58172 0 0 3.58172 0 8C0 12.4183 3.58172 16 8 16Z" fill="#EC1C24"/>
<path d="M8.00011 4.35567C9.18678 4.35567 9.32766 4.36011 9.7961 4.38144C10.0779 4.38491 10.3571 4.43661 10.6214 4.53433C10.8134 4.60832 10.9876 4.72169 11.1331 4.86713C11.2785 5.01257 11.3919 5.18686 11.4659 5.37878C11.5638 5.64309 11.6155 5.92227 11.6188 6.20411C11.6401 6.67255 11.6446 6.81344 11.6446 8.00011C11.6446 9.18678 11.6401 9.32766 11.6188 9.7961C11.6155 10.0779 11.5638 10.3571 11.4659 10.6214C11.3919 10.8134 11.2785 10.9876 11.1331 11.1331C10.9876 11.2785 10.8134 11.3919 10.6214 11.4659C10.3571 11.5638 10.0779 11.6155 9.7961 11.6188C9.32766 11.6401 9.18678 11.6446 8.00011 11.6446C6.81344 11.6446 6.67255 11.6401 6.20411 11.6188C5.92227 11.6155 5.64309 11.5638 5.37878 11.4659C5.18686 11.3919 5.01257 11.2785 4.86713 11.1331C4.72169 10.9876 4.60832 10.8134 4.53433 10.6214C4.43661 10.3571 4.38491 10.0779 4.38144 9.7961C4.36011 9.32766 4.35567 9.18678 4.35567 8.00011C4.35567 6.81344 4.36011 6.67255 4.38144 6.20411C4.38491 5.92229 4.43661 5.64314 4.53433 5.37878C4.60832 5.18686 4.72169 5.01257 4.86713 4.86713C5.01257 4.72169 5.18686 4.60832 5.37878 4.53433C5.64314 4.43661 5.92229 4.38491 6.20411 4.38144C6.67255 4.36011 6.81344 4.35567 8.00011 4.35567ZM8.00011 3.55566C6.793 3.55566 6.64144 3.561 6.16766 3.58233C5.79899 3.58959 5.43424 3.65947 5.089 3.78899C4.79368 3.90312 4.52548 4.07773 4.3016 4.3016C4.07773 4.52548 3.90312 4.79368 3.78899 5.089C3.65947 5.43424 3.58959 5.79899 3.58233 6.16766C3.561 6.64189 3.55566 6.793 3.55566 8.00011C3.55566 9.20722 3.561 9.35877 3.58233 9.83255C3.58959 10.2012 3.65947 10.566 3.78899 10.9112C3.90312 11.2065 4.07773 11.4747 4.3016 11.6986C4.52548 11.9225 4.79368 12.0971 5.089 12.2112C5.43425 12.3407 5.799 12.4106 6.16766 12.4179C6.64189 12.4392 6.793 12.4446 8.00011 12.4446C9.20722 12.4446 9.35877 12.4392 9.83255 12.4179C10.2012 12.4106 10.566 12.3407 10.9112 12.2112C11.2066 12.0971 11.4748 11.9225 11.6987 11.6986C11.9225 11.4748 12.0971 11.2065 12.2112 10.9112C12.3407 10.566 12.4106 10.2012 12.4179 9.83255C12.4392 9.35832 12.4446 9.20678 12.4446 8.00011C12.4446 6.79344 12.4392 6.64144 12.4179 6.16766C12.4106 5.799 12.3407 5.43425 12.2112 5.089C12.0971 4.79368 11.9225 4.52548 11.6986 4.3016C11.4747 4.07773 11.2065 3.90312 10.9112 3.78899C10.566 3.65947 10.2012 3.58959 9.83255 3.58233C9.35833 3.561 9.20678 3.55566 8.00011 3.55566Z" fill="white"/>
<path d="M8 5.71777C7.54862 5.71777 7.10737 5.85162 6.73206 6.1024C6.35675 6.35317 6.06424 6.70961 5.8915 7.12663C5.71877 7.54365 5.67357 8.00253 5.76163 8.44524C5.84969 8.88795 6.06705 9.2946 6.38623 9.61378C6.7054 9.93295 7.11205 10.1503 7.55476 10.2384C7.99746 10.3264 8.45635 10.2812 8.87337 10.1085C9.29039 9.93576 9.64682 9.64325 9.89759 9.26794C10.1484 8.89263 10.2822 8.45138 10.2822 8C10.2822 7.39472 10.0418 6.81422 9.61378 6.38622C9.18578 5.95822 8.60528 5.71777 8 5.71777V5.71777ZM8 9.48133C7.70702 9.48133 7.42061 9.39445 7.17701 9.23168C6.93341 9.06891 6.74354 8.83755 6.63142 8.56687C6.51931 8.2962 6.48997 7.99836 6.54713 7.71101C6.60429 7.42365 6.74537 7.1597 6.95254 6.95253C7.15971 6.74537 7.42366 6.60428 7.71101 6.54713C7.99836 6.48997 8.2962 6.5193 8.56688 6.63142C8.83755 6.74354 9.06891 6.9334 9.23168 7.17701C9.39446 7.42061 9.48133 7.70702 9.48133 8C9.48133 8.39287 9.32526 8.76965 9.04745 9.04745C8.76965 9.32526 8.39288 9.48133 8 9.48133V9.48133Z" fill="white"/>
<path d="M10.3722 6.1609C10.6668 6.1609 10.9055 5.92212 10.9055 5.62757C10.9055 5.33302 10.6668 5.09424 10.3722 5.09424C10.0776 5.09424 9.83887 5.33302 9.83887 5.62757C9.83887 5.92212 10.0776 6.1609 10.3722 6.1609Z" fill="white"/>
</svg>
