<svg width="68" height="54" viewBox="0 0 68 54" fill="none" xmlns="http://www.w3.org/2000/svg">
<path d="M44 3.66699V10.3337M44 23.667V30.3337M44 43.667V50.3337M10.6667 3.66699C8.89856 3.66699 7.20286 4.36937 5.95262 5.61961C4.70238 6.86986 4 8.56555 4 10.3337V20.3337C5.76811 20.3337 7.4638 21.036 8.71405 22.2863C9.96429 23.5365 10.6667 25.2322 10.6667 27.0003C10.6667 28.7684 9.96429 30.4641 8.71405 31.7144C7.4638 32.9646 5.76811 33.667 4 33.667V43.667C4 45.4351 4.70238 47.1308 5.95262 48.381C7.20286 49.6313 8.89856 50.3337 10.6667 50.3337H57.3333C59.1014 50.3337 60.7971 49.6313 62.0474 48.381C63.2976 47.1308 64 45.4351 64 43.667V33.667C62.2319 33.667 60.5362 32.9646 59.286 31.7144C58.0357 30.4641 57.3333 28.7684 57.3333 27.0003C57.3333 25.2322 58.0357 23.5365 59.286 22.2863C60.5362 21.036 62.2319 20.3337 64 20.3337V10.3337C64 8.56555 63.2976 6.86986 62.0474 5.61961C60.7971 4.36937 59.1014 3.66699 57.3333 3.66699H10.6667Z" stroke="#D5D5D5" stroke-width="7" stroke-linecap="round" stroke-linejoin="round"/>
</svg>
