<svg width="16" height="16" viewBox="0 0 16 16" fill="none" xmlns="http://www.w3.org/2000/svg">
<path d="M8 16C12.4183 16 16 12.4183 16 8C16 3.58172 12.4183 0 8 0C3.58172 0 0 3.58172 0 8C0 12.4183 3.58172 16 8 16Z" fill="#EC1C24"/>
<path d="M7.99955 11.4665C7.96932 11.4665 4.93305 11.4643 4.1775 11.2603C3.96935 11.2029 3.77967 11.0919 3.62802 10.9382C3.47637 10.7845 3.36794 10.5936 3.31335 10.3848C3.17306 9.59766 3.1052 8.79935 3.11066 7.99987C3.10589 7.20076 3.17445 6.40289 3.31552 5.61631C3.36999 5.40737 3.47852 5.21645 3.63019 5.06275C3.78186 4.90905 3.97146 4.798 4.17967 4.74076C4.93256 4.53543 7.96927 4.5332 8.00172 4.5332C8.03416 4.5332 11.0686 4.53543 11.8242 4.74076C12.0323 4.79812 12.2216 4.90922 12.3732 5.06289C12.5249 5.21657 12.6333 5.40743 12.6879 5.61631C12.8273 6.40305 12.8945 7.2009 12.8884 7.99987C12.8931 8.7994 12.8247 9.59769 12.684 10.3848C12.6293 10.5936 12.5205 10.7844 12.3689 10.938C12.2173 11.0917 12.0279 11.2028 11.8199 11.2603C11.0661 11.4639 8.03021 11.4665 7.99955 11.4665ZM6.99868 6.5372V9.46342L9.55423 7.99942L6.99868 6.53676V6.5372Z" fill="white"/>
</svg>
