<?xml version="1.0" standalone="no"?>
<!DOCTYPE svg PUBLIC "-//W3C//DTD SVG 1.1//EN" "http://www.w3.org/Graphics/SVG/1.1/DTD/svg11.dtd" >
<svg xmlns="http://www.w3.org/2000/svg" xmlns:xlink="http://www.w3.org/1999/xlink" version="1.1">
<metadata></metadata>
<defs>
<font id="scglight" horiz-adv-x="1134" >
<font-face units-per-em="2048" ascent="1638" descent="-410" />
<missing-glyph horiz-adv-x="540" />
<glyph unicode="&#xfb01;" horiz-adv-x="1126" d="M53 836v86h176v45q0 186 121.5 285.5t323.5 99.5q167 0 293 -58v-90q-134 58 -283 58q-176 0 -264 -72t-88 -225v-43h305v-86h-305v-836h-103v836h-176zM864 0v922h103v-922h-103z" />
<glyph unicode="&#xfb02;" horiz-adv-x="1126" d="M53 836v86h176v45q0 186 121.5 285.5t323.5 99.5q156 0 293 -35v-1317h-103v1245q-100 17 -180 17q-176 0 -264 -72t-88 -225v-43h305v-86h-305v-836h-103v836h-176z" />
<glyph horiz-adv-x="0" />
<glyph horiz-adv-x="682" />
<glyph unicode=" "  horiz-adv-x="540" />
<glyph unicode="&#x09;" horiz-adv-x="540" />
<glyph unicode="&#xa0;" horiz-adv-x="540" />
<glyph unicode="!" horiz-adv-x="454" d="M133 76q0 40 27 64t67 24t67.5 -24t27.5 -64t-27.5 -64t-67.5 -24t-67 24t-27 64zM172 1249h111l-21 -819h-69z" />
<glyph unicode="&#x22;" horiz-adv-x="647" d="M135 1331h111l-15 -491h-81zM401 1331h111l-14 -491h-82z" />
<glyph unicode="#" horiz-adv-x="1228" d="M80 375v94h227l82 391h-201v94h220l79 373h99l-80 -373h336l80 373h98l-80 -373h209v-94h-227l-82 -391h202v-94h-223l-78 -375h-98l78 375h-336l-78 -375h-98l78 375h-207zM406 469h335l82 391h-336z" />
<glyph unicode="$" horiz-adv-x="1228" d="M152 113l41 82q176 -123 421 -123q50 0 95.5 5.5t94 21.5t83.5 41t57.5 67t22.5 96q0 34 -11 63.5t-35.5 55t-48 44t-66.5 40t-71 34t-81 34.5t-79 34q-11 5 -49.5 22t-54 24t-52 25t-54 29.5t-48 31.5t-46.5 36.5t-37 40.5t-31 47t-17.5 51.5t-7.5 59.5q0 145 106 218.5 t296 78.5v182h94v-184q179 -12 334 -103l-41 -82q-167 95 -357 95q-163 0 -245 -47t-82 -158q0 -32 10.5 -59.5t33 -51t45.5 -41.5t62.5 -38.5t67.5 -33.5t76 -33.5t75 -33.5q22 -10 65.5 -29t71 -32t68.5 -34.5t68 -40t57.5 -46.5t48 -56t29.5 -65t12 -78q0 -75 -32 -134.5 t-88 -97t-126 -59.5t-153 -28v-189h-94v187q-119 4 -238.5 44t-189.5 87z" />
<glyph unicode="%" horiz-adv-x="1392" d="M102 973q0 126 73.5 211.5t203.5 85.5t203 -85.5t73 -211.5t-73 -211.5t-203 -85.5t-203.5 85.5t-73.5 211.5zM180 0l938 1249h94l-933 -1249h-99zM182 973q0 -110 51.5 -170t145.5 -60t145 60t51 170t-51 169.5t-145 59.5t-145.5 -59.5t-51.5 -169.5zM737 276 q0 126 73.5 211.5t203.5 85.5t203 -85.5t73 -211.5t-73 -211t-203 -85t-203.5 85t-73.5 211zM817 276q0 -110 51.5 -169.5t145.5 -59.5t145 59.5t51 169.5t-51 170t-145 60t-145.5 -60t-51.5 -170z" />
<glyph unicode="&#x26;" horiz-adv-x="1290" d="M102 319q0 244 289 390q-78 72 -125 143t-47 154q0 114 90 189t246 75q162 0 250 -87t88 -237h-98q0 109 -57.5 172.5t-178.5 63.5q-113 0 -177.5 -44.5t-64.5 -129.5q0 -66 38.5 -122.5t119.5 -135.5l477 -465q103 162 103 397h98q0 -278 -131 -465l223 -217h-123 l-157 152q-159 -172 -420 -172q-126 0 -224 36t-158.5 114t-60.5 189zM209 319q0 -70 31 -121t81.5 -77t102 -37.5t106.5 -11.5q231 0 367 145l-436 424q-252 -105 -252 -322z" />
<glyph unicode="'" horiz-adv-x="397" d="M143 1331h111l-14 -491h-82z" />
<glyph unicode="(" horiz-adv-x="544" d="M127 537q0 258 106.5 466t270.5 340v-53q-129 -125 -202 -318.5t-73 -434.5t73.5 -435t201.5 -319v-53q-164 132 -270.5 340.5t-106.5 466.5z" />
<glyph unicode=")" horiz-adv-x="544" d="M41 -217q128 125 201 319t73 435t-73 434.5t-201 318.5v53q164 -132 270.5 -340t106.5 -466t-106.5 -466.5t-270.5 -340.5v53z" />
<glyph unicode="*" horiz-adv-x="890" d="M123 811l270 158l-270 157l41 62l252 -172l-13 295h84l-12 -295l252 172l41 -62l-270 -157l270 -158l-41 -61l-252 172l12 -295h-84l13 295l-252 -172z" />
<glyph unicode="+" horiz-adv-x="1052" d="M82 586v90h395v414h98v-414h396v-90h-396v-414h-98v414h-395z" />
<glyph unicode="," horiz-adv-x="425" d="M113 -209q94 108 94 197q-36 0 -62 25t-26 63t26.5 63t69.5 25q49 0 72.5 -28t23.5 -66q0 -140 -143 -299z" />
<glyph unicode="-" horiz-adv-x="647" d="M74 582v90h499v-90h-499z" />
<glyph unicode="." horiz-adv-x="425" d="M119 76q0 40 27 64t67 24t67 -24t27 -64t-27 -64t-67 -24t-67 24t-27 64z" />
<glyph unicode="/" horiz-adv-x="933" d="M29 -82l770 1413h106l-770 -1413h-106z" />
<glyph unicode="0" horiz-adv-x="1228" d="M115 625q0 311 131 478t368 167t368.5 -167t131.5 -478t-131.5 -478t-368.5 -167t-368 167t-131 478zM217 625q0 -267 99.5 -410t297.5 -143t298 143t100 410t-100 410t-298 143t-297.5 -143t-99.5 -410z" />
<glyph unicode="1" horiz-adv-x="700" d="M70 987v86q109 -5 186.5 36.5t144.5 139.5h95v-1249h-103v1137q-108 -159 -323 -150z" />
<glyph unicode="2" horiz-adv-x="1048" d="M98 0v82q352 216 529.5 414t177.5 391q0 138 -87 214.5t-257 76.5q-168 0 -328 -70v96q55 25 145.5 45.5t188.5 20.5q113 0 199.5 -31t138 -85t77 -122t25.5 -147q0 -90 -35 -180t-93.5 -168.5t-144.5 -158.5t-177 -147t-203 -137h672v-94h-828z" />
<glyph unicode="3" horiz-adv-x="1007" d="M74 51v99q182 -76 377 -76q327 0 327 266q0 275 -448 264v92q188 -8 298.5 56t110.5 209q0 217 -293 217q-83 0 -180 -22.5t-168 -53.5v96q156 72 353 72q81 0 149 -17t123.5 -52.5t87 -97.5t31.5 -145q0 -126 -66.5 -202t-173.5 -103v-4q114 -13 196.5 -96t82.5 -215 q0 -76 -21 -136.5t-58.5 -101.5t-90.5 -68t-115.5 -39.5t-136.5 -12.5q-232 0 -385 71z" />
<glyph unicode="4" horiz-adv-x="1081" d="M45 268v84l666 897h110v-889h199v-92h-199v-268h-102v268h-674zM168 360h551v754z" />
<glyph unicode="5" horiz-adv-x="1069" d="M102 39v98q68 -26 170 -45.5t183 -19.5q204 0 296.5 71.5t92.5 231.5q0 150 -98.5 218.5t-290.5 68.5q-154 0 -324 -33l27 620h712v-92h-622l-19 -424q134 21 252 21q225 0 345 -100t120 -279q0 -395 -489 -395q-91 0 -188 16.5t-167 42.5z" />
<glyph unicode="6" d="M115 608q0 320 145.5 491t380.5 171q126 0 244 -58v-90q-122 60 -238 60q-196 0 -315 -150t-119 -422q56 82 168 139.5t240 57.5q111 0 193.5 -33t129.5 -90.5t69.5 -127.5t22.5 -153q0 -198 -121 -310.5t-313 -112.5q-225 0 -356 157t-131 471zM213 500 q12 -196 112.5 -313t278.5 -117q68 0 126 19t105.5 57t75 102.5t27.5 148.5q0 66 -15.5 120.5t-51 101t-100.5 72.5t-155 26q-123 0 -226.5 -56.5t-176.5 -160.5z" />
<glyph unicode="7" horiz-adv-x="966" d="M57 1157v92h820v-75l-504 -1174h-103l496 1157h-709z" />
<glyph unicode="8" horiz-adv-x="1130" d="M115 293q0 133 87.5 215.5t276.5 120.5v4q-334 64 -334 325q0 141 111.5 226.5t300.5 85.5q200 0 310 -82.5t110 -226.5q0 -223 -311 -328v-4q167 -25 258.5 -107t91.5 -209q0 -159 -116.5 -246t-334.5 -87q-202 0 -326 81t-124 232zM215 305q0 -121 90.5 -181.5 t259.5 -60.5q61 0 119 13t111.5 40t86.5 78t33 119q0 121 -91 183.5t-265 89.5q-158 -36 -251 -106.5t-93 -174.5zM246 958q0 -122 85 -187t255 -93q51 17 87.5 32t77.5 39.5t66.5 52.5t42.5 69t17 90q0 102 -83.5 163.5t-234.5 61.5q-145 0 -229 -63t-84 -165z" />
<glyph unicode="9" d="M98 846q0 198 121 311t313 113q225 0 356.5 -157.5t131.5 -471.5q0 -320 -145.5 -490.5t-380.5 -170.5q-128 0 -244 57v90q120 -59 237 -59q196 0 315.5 149.5t119.5 421.5q-62 -83 -170.5 -140t-237.5 -57q-111 0 -194 33t-130 90.5t-69.5 127.5t-22.5 153zM197 852 q0 -66 15.5 -120.5t50.5 -101t100 -72.5t155 -26q123 0 227 57t177 161q-12 196 -113 313t-279 117q-67 0 -125.5 -19t-106 -57t-74.5 -103t-27 -149z" />
<glyph unicode=":" horiz-adv-x="507" d="M160 76q0 40 27 64t67 24t67 -24t27 -64t-27 -64t-67 -24t-67 24t-27 64zM160 854q0 40 27 64t67 24t67 -24t27 -64t-27 -64t-67 -24t-67 24t-27 64z" />
<glyph unicode=";" horiz-adv-x="507" d="M152 -209q94 108 94 197q-36 0 -62 25t-26 63t26.5 63t69.5 25q49 0 72.5 -28t23.5 -66q0 -140 -143 -299zM160 854q0 40 27 64t67 24t67 -24t27 -64t-27 -64t-67 -24t-67 24t-27 64z" />
<glyph unicode="&#x3c;" horiz-adv-x="1052" d="M66 664v86l864 426v-89l-776 -380l776 -381v-88z" />
<glyph unicode="=" horiz-adv-x="1052" d="M102 422v86h848v-86h-848zM102 750v86h848v-86h-848z" />
<glyph unicode="&#x3e;" horiz-adv-x="1052" d="M123 238v88l776 381l-776 380v89l864 -426v-86z" />
<glyph unicode="?" horiz-adv-x="880" d="M82 1104v94q148 72 342 72q155 0 246.5 -80t91.5 -234q0 -62 -21.5 -126t-51.5 -114.5t-78.5 -107t-87 -93.5t-91.5 -85h-102q62 53 117 112t104.5 127.5t78.5 143t29 141.5q0 226 -243 226q-178 0 -334 -76zM276 76q0 40 27.5 64t67.5 24t67 -24t27 -64t-27 -64t-67 -24 t-67.5 24t-27.5 64z" />
<glyph unicode="@" horiz-adv-x="1511" d="M102 633q0 113 25.5 216.5t81.5 196.5t137.5 161t202 107.5t266.5 39.5q145 0 260.5 -47t187 -128t109 -184.5t37.5 -222.5q0 -129 -41.5 -240.5t-117 -179t-167.5 -67.5q-70 0 -108.5 39.5t-38.5 101.5q-38 -64 -110.5 -102.5t-166.5 -38.5q-121 0 -193.5 80.5 t-72.5 226.5q0 121 39 219t125 161.5t207 63.5q91 0 152.5 -47.5t78.5 -109.5l37 139h88l-104 -526q-6 -27 -6 -58q0 -37 19 -58.5t69 -21.5q103 0 172 122t69 302q0 79 -18.5 152.5t-59.5 140.5t-100.5 116.5t-149 79t-198.5 29.5q-150 0 -267 -46t-185.5 -115.5 t-113 -162.5t-60 -177t-15.5 -170q0 -95 16.5 -176t61 -160t114 -134.5t184 -89.5t263.5 -34q189 0 323.5 65.5t204.5 175.5h70q-202 -299 -606 -299q-334 0 -517.5 170.5t-183.5 489.5zM494 596q0 -113 51.5 -174.5t132.5 -61.5q92 0 150 44t98 122l49 258q-14 73 -63 125 t-140 52q-86 0 -150.5 -52t-96 -134t-31.5 -179z" />
<glyph unicode="A" horiz-adv-x="1302" d="M41 0l557 1249h107l557 -1249h-109l-143 319h-717l-143 -319h-109zM334 412h635l-201 458l-115 281h-4l-114 -279z" />
<glyph unicode="B" horiz-adv-x="1208" d="M168 0v1249h508q181 0 272.5 -75t91.5 -236q0 -186 -155 -285q229 -66 229 -315q0 -77 -24 -136.5t-64.5 -97t-99 -61.5t-121.5 -33.5t-137 -9.5h-500zM274 90h394q57 0 102 5t91.5 20.5t77 42t50 72.5t19.5 108q0 67 -19.5 114.5t-48.5 73.5t-74.5 40.5t-83.5 18 t-90 3.5h-418v-498zM274 678h416q30 0 92 -4q75 56 113.5 116.5t38.5 145.5q0 114 -58 168.5t-204 54.5h-398v-481z" />
<glyph unicode="C" horiz-adv-x="1253" d="M111 625q0 298 181 471.5t474 173.5q210 0 358 -76v-102q-78 44 -160.5 63t-197.5 19q-251 0 -400 -144t-149 -405q0 -173 70 -298.5t191.5 -188t281.5 -62.5q212 0 387 96v-111q-166 -81 -387 -81q-138 0 -257 44.5t-206 126t-136.5 204t-49.5 270.5z" />
<glyph unicode="D" horiz-adv-x="1327" d="M168 0v1249h436q299 0 456 -158t157 -458q0 -311 -159 -472t-462 -161h-428zM274 94h318q259 0 388.5 129t129.5 410q0 272 -127 397t-383 125h-326v-1061z" />
<glyph unicode="E" horiz-adv-x="1044" d="M164 0v1249h766v-94h-660v-473h602v-94h-602v-494h660v-94h-766z" />
<glyph unicode="F" horiz-adv-x="1015" d="M168 0v1249h766v-94h-660v-532h619v-95h-619v-528h-106z" />
<glyph unicode="G" horiz-adv-x="1343" d="M111 625q0 197 88.5 345t240.5 224t346 76q223 0 379 -80v-103q-153 87 -379 87q-257 0 -413 -144.5t-156 -404.5q0 -173 71 -298.5t194.5 -188t285.5 -62.5q175 0 330 59v488h106v-549q-181 -94 -436 -94q-188 0 -336 76t-234.5 224t-86.5 345z" />
<glyph unicode="H" horiz-adv-x="1347" d="M164 0v1249h106v-567h807v567h107v-1249h-107v588h-807v-588h-106z" />
<glyph unicode="I" horiz-adv-x="442" d="M168 0v1249h106v-1249h-106z" />
<glyph unicode="J" horiz-adv-x="716" d="M61 4v94q61 -22 164 -22q55 0 93 11.5t68.5 41.5t45 85.5t14.5 139.5v895h107v-905q0 -191 -81 -275.5t-247 -84.5q-97 0 -164 20z" />
<glyph unicode="K" horiz-adv-x="1044" d="M168 0v1249h106v-565l580 565h123l-594 -579l608 -670h-123l-594 653v-653h-106z" />
<glyph unicode="L" horiz-adv-x="958" d="M168 0v1249h106v-1155h627v-94h-733z" />
<glyph unicode="M" horiz-adv-x="1654" d="M127 0l119 1249h116l361 -872l102 -279h4l103 279l360 872h117l119 -1249h-107l-65 733l-25 377h-4l-133 -354l-311 -756h-111l-311 756l-133 354h-4l-25 -377l-66 -733h-106z" />
<glyph unicode="N" horiz-adv-x="1359" d="M164 0v1249h106l629 -835q127 -167 199 -285h4q-12 266 -12 363v757h106v-1249h-106l-629 836q-130 171 -199 284h-4q12 -100 12 -362v-758h-106z" />
<glyph unicode="O" horiz-adv-x="1527" d="M111 625q0 148 50 270.5t138 204t207.5 126t257.5 44.5t257.5 -44.5t207.5 -126t138 -204t50 -270.5t-50 -270.5t-138 -204t-207.5 -126t-257.5 -44.5t-257.5 44.5t-207.5 126t-138 204t-50 270.5zM217 625q0 -259 151.5 -404t395.5 -145t395.5 145t151.5 404t-151.5 404 t-395.5 145t-395.5 -145t-151.5 -404z" />
<glyph unicode="P" horiz-adv-x="1167" d="M168 0v1249h448q457 0 457 -385t-457 -385h-342v-479h-106zM274 573h342q181 0 266 68t85 223t-85 223t-266 68h-342v-582z" />
<glyph unicode="Q" horiz-adv-x="1527" d="M111 625q0 148 50 270.5t138 204t207.5 126t257.5 44.5t257.5 -44.5t207.5 -126t138 -204t50 -270.5q0 -136 -42.5 -250t-118.5 -193.5t-178.5 -129t-223.5 -64.5q124 -213 393 -213q76 0 125 16v-100q-59 -10 -131 -10q-162 0 -277.5 71.5t-199.5 229.5 q-185 0 -332.5 76t-234 223.5t-86.5 343.5zM217 625q0 -259 151.5 -404t395.5 -145t395.5 145t151.5 404t-151.5 404t-395.5 145t-395.5 -145t-151.5 -404z" />
<glyph unicode="R" horiz-adv-x="1191" d="M168 0v1249h438q459 0 459 -338q0 -134 -72 -215t-188 -102v-4q141 -42 192 -211l117 -379h-108l-113 356q-32 100 -92.5 146.5t-194.5 46.5h-332v-549h-106zM274 645h326q183 0 270.5 61t87.5 205q0 137 -87 190.5t-271 53.5h-326v-510z" />
<glyph unicode="S" horiz-adv-x="1048" d="M98 72v94q96 -45 188 -69.5t210 -24.5q340 0 340 231q0 24 -5.5 46.5t-13.5 40.5t-24.5 36t-30 31.5t-38.5 29t-42 25.5t-48.5 25t-50 23t-54.5 24l-54 24q-8 4 -24 11q-151 68 -214 117q-125 97 -126 235q0 151 109 225t304 74q175 0 332 -64v-94q-156 66 -326 66 q-160 0 -237.5 -47.5t-77.5 -159.5q0 -28 8 -53t19 -44t34.5 -39.5t40.5 -33t52.5 -31t55.5 -28t64 -29.5t64 -29q13 -6 41 -19q46 -21 70 -32t67 -34.5t67.5 -42t55.5 -47.5t47.5 -57.5t28.5 -67t12 -81.5q0 -109 -58 -183t-154.5 -107t-227.5 -33q-235 0 -404 92z" />
<glyph unicode="T" d="M57 1155v94h1020v-94l-456 2v-1157h-107v1157z" />
<glyph unicode="U" horiz-adv-x="1400" d="M158 532v717h106v-706q0 -252 105 -360.5t331 -108.5t331.5 108.5t105.5 360.5v706h106v-717q0 -305 -141 -434q-129 -118 -402 -118q-268 0 -397 118q-145 133 -145 434z" />
<glyph unicode="V" horiz-adv-x="1245" d="M45 1249h107l364 -872l105 -279h4l104 281l365 870h106l-524 -1249h-107z" />
<glyph unicode="W" horiz-adv-x="1937" d="M53 1249h111l276 -815l92 -332h5l94 332l282 815h111l283 -815l94 -332h4l92 332l277 815h110l-426 -1249h-110l-301 864l-76 283h-4l-78 -285l-299 -862h-111z" />
<glyph unicode="X" horiz-adv-x="1261" d="M49 0l520 639l-495 610h121l436 -540l436 540h121l-498 -610l522 -639h-120l-461 569l-461 -569h-121z" />
<glyph unicode="Y" horiz-adv-x="1232" d="M49 1249h111l291 -436l161 -258h9l161 258l291 436h111l-514 -766v-483h-107v483z" />
<glyph unicode="Z" horiz-adv-x="1138" d="M98 0v82l779 1077l-752 -4v94h874v-82l-778 -1075l811 2v-94h-934z" />
<glyph unicode="[" horiz-adv-x="536" d="M201 -279v1635h274v-86h-176v-1463h176v-86h-274z" />
<glyph unicode="\" horiz-adv-x="933" d="M29 1331h106l770 -1413h-106z" />
<glyph unicode="]" horiz-adv-x="536" d="M61 -193h177v1463h-177v86h275v-1635h-275v86z" />
<glyph unicode="^" horiz-adv-x="1040" d="M102 516l375 733h86l375 -733h-88l-330 647l-330 -647h-88z" />
<glyph unicode="_" horiz-adv-x="716" d="M0 -125h717v-68h-717v68z" />
<glyph unicode="`" horiz-adv-x="614" d="M160 1331h131l160 -282h-76z" />
<glyph unicode="a" horiz-adv-x="1056" d="M98 266q0 146 104 224.5t287 78.5q163 0 316 -49v86q0 124 -73.5 189t-209.5 65q-181 0 -340 -78v90q159 74 342 74q175 0 278 -86t103 -264v-596h-86l-12 172h-4q-45 -81 -137 -136.5t-224 -55.5q-162 0 -253 73.5t-91 212.5zM199 266q0 -200 247 -200q131 0 216.5 57.5 t142.5 163.5v151q-164 45 -301 45q-305 0 -305 -217z" />
<glyph unicode="b" d="M160 0v1331h102v-577h4q141 192 365 192q194 0 295.5 -127t101.5 -348q0 -245 -108.5 -368t-282.5 -123q-247 0 -375 192h-4l-12 -172h-86zM262 283q53 -92 149.5 -152.5t213.5 -60.5q129 0 215 100t86 301q0 177 -76.5 281t-233.5 104q-209 0 -354 -207v-366z" />
<glyph unicode="c" horiz-adv-x="1001" d="M102 463q0 206 136.5 344.5t355.5 138.5q168 0 301 -72v-90q-127 76 -301 76t-281.5 -113.5t-107.5 -283.5t108.5 -283.5t284.5 -113.5q180 0 305 75v-92q-117 -69 -305 -69q-148 0 -262 64.5t-174 174t-60 244.5z" />
<glyph unicode="d" d="M106 467q0 217 117 348t318 131q111 0 192.5 -48.5t134.5 -119.5h4v553h103v-1331h-86l-12 172h-5q-48 -83 -132 -137.5t-199 -54.5q-89 0 -165 28.5t-137.5 85.5t-97 152.5t-35.5 220.5zM209 467q0 -103 28 -181.5t76 -124.5t106.5 -68.5t125.5 -22.5q205 0 327 213v387 q-126 186 -331 186q-158 0 -245 -107.5t-87 -281.5z" />
<glyph unicode="e" horiz-adv-x="1081" d="M102 463q0 139 53 247t160.5 172t255.5 64q195 0 305.5 -111.5t110.5 -322.5q0 -24 -12 -86h-770q11 -164 115 -262t284 -98q156 0 328 94v-97q-148 -83 -328 -83q-237 0 -369.5 133.5t-132.5 349.5zM207 508h682q0 178 -84.5 265t-233.5 87q-160 0 -256 -98.5 t-108 -253.5z" />
<glyph unicode="f" horiz-adv-x="724" d="M53 836v86h176v96q0 334 308 334q91 0 159 -29v-90q-81 29 -153 29q-115 0 -163 -57.5t-48 -194.5v-88h325v-86h-325v-836h-103v836h-176z" />
<glyph unicode="g" horiz-adv-x="1130" d="M106 467q0 217 116 348t317 131q111 0 197 -55.5t134 -132.5h4l13 164h88v-932q0 -418 -451 -418q-184 0 -348 80v90q165 -84 356 -84q172 0 258.5 73t86.5 253v188h-5q-47 -83 -132.5 -137.5t-200.5 -54.5q-89 0 -165 28.5t-137 85.5t-96 152.5t-35 220.5zM209 467 q0 -103 27.5 -181.5t75.5 -124.5t106 -68.5t125 -22.5q207 0 329 213v366q-132 207 -333 207q-159 0 -244.5 -107t-85.5 -282z" />
<glyph unicode="h" horiz-adv-x="1171" d="M160 0v1331h102v-577q74 79 178.5 135.5t233.5 56.5q157 0 251.5 -92t94.5 -264v-590h-102v571q0 285 -254 285q-121 0 -217.5 -55t-184.5 -152v-649h-102z" />
<glyph unicode="i" horiz-adv-x="421" d="M125 1188q0 37 22.5 59.5t63.5 22.5t63.5 -22.5t22.5 -59.5t-22.5 -59.5t-63.5 -22.5t-63.5 22.5t-22.5 59.5zM160 0v922h102v-922h-102z" />
<glyph unicode="j" horiz-adv-x="442" d="M-53 -371h90q81 0 112 35t31 121v1137h103v-1145q0 -234 -209 -234q-53 0 -127 17v69zM145 1188q0 37 22.5 59.5t63.5 22.5t63.5 -22.5t22.5 -59.5t-22.5 -59.5t-63.5 -22.5t-63.5 22.5t-22.5 59.5z" />
<glyph unicode="k" horiz-adv-x="925" d="M160 0v1331h102v-819l455 410h127l-467 -416l504 -506h-125l-494 494v-494h-102z" />
<glyph unicode="l" horiz-adv-x="421" d="M160 0v1331h102v-1331h-102z" />
<glyph unicode="m" horiz-adv-x="1732" d="M156 0v922h88l12 -172h4q54 81 148.5 136.5t207.5 55.5q232 0 287 -205q59 85 160.5 145t214.5 60q148 0 225.5 -86.5t77.5 -253.5v-602h-102v596q0 133 -47 194.5t-162 61.5q-192 0 -352 -205q0 -7 1 -22t1 -23v-602h-103v596q0 133 -47 194.5t-162 61.5 q-200 0 -350 -205v-647h-102z" />
<glyph unicode="n" horiz-adv-x="1163" d="M156 0v922h88l12 -172h4q196 196 412 196q157 0 248.5 -91t91.5 -265v-590h-103v571q0 146 -61.5 215.5t-185.5 69.5q-121 0 -216 -56t-188 -155v-645h-102z" />
<glyph unicode="o" horiz-adv-x="1187" d="M102 463q0 206 136.5 344.5t355.5 138.5t355 -138.5t136 -344.5t-136 -344.5t-355 -138.5t-355.5 138.5t-136.5 344.5zM205 463q0 -170 107.5 -283.5t281.5 -113.5t281.5 113.5t107.5 283.5t-107.5 283.5t-281.5 113.5t-281.5 -113.5t-107.5 -283.5z" />
<glyph unicode="p" horiz-adv-x="1130" d="M156 -440v1362h88l12 -172h4q61 83 154 139.5t213 56.5q194 0 295.5 -127t101.5 -348q0 -245 -108.5 -368t-282.5 -123q-247 0 -375 192h-4l4 -172v-440h-102zM258 283q53 -92 149.5 -152.5t213.5 -60.5q129 0 215 100t86 301q0 177 -76.5 281t-233.5 104 q-206 0 -354 -211v-362z" />
<glyph unicode="q" horiz-adv-x="1130" d="M106 467q0 217 117 348t318 131q64 0 118 -16t94 -46t66 -57t53 -63h5l10 158h88v-1362h-103v440l5 172h-5q-48 -83 -132 -137.5t-199 -54.5q-89 0 -165 28.5t-137.5 85.5t-97 152.5t-35.5 220.5zM209 467q0 -103 28 -181.5t76 -124.5t106.5 -68.5t125.5 -22.5 q205 0 327 213v372q-138 201 -331 201q-158 0 -245 -107.5t-87 -281.5z" />
<glyph unicode="r" horiz-adv-x="753" d="M156 0v922h88l12 -234h4q138 244 358 244q51 0 82 -8v-107q-38 10 -84 10q-123 0 -208.5 -70t-149.5 -186v-571h-102z" />
<glyph unicode="s" horiz-adv-x="847" d="M90 39v88q141 -59 305 -59q132 0 196 35.5t64 113.5q0 37 -9.5 64t-27 46t-50 36t-68.5 31.5t-94 34.5q-10 3 -15 5q-57 20 -91 34t-78 39.5t-68 51.5t-41 66.5t-17 89.5q0 231 334 231q144 0 262 -59v-88q-105 59 -254 59q-243 0 -243 -143q0 -33 13 -60t31.5 -45.5 t54.5 -37.5t65.5 -30.5t80.5 -29.5q7 -3 22 -8q41 -15 62 -23t57.5 -24.5t56.5 -30.5t45.5 -36.5t38.5 -46t22.5 -56t9.5 -70.5q0 -122 -94 -179.5t-261 -57.5q-87 0 -170.5 17t-138.5 42z" />
<glyph unicode="t" horiz-adv-x="782" d="M53 836v86h176l25 290h78v-290h366v-86h-366v-527q0 -133 42.5 -187t147.5 -54q114 0 187 36v-88q-86 -36 -197 -36q-153 0 -218 74t-65 241v541h-176z" />
<glyph unicode="u" d="M152 311v611h102v-592q0 -138 62 -201t184 -63q227 0 377 215v641h102v-922h-88l-12 172h-5q-33 -42 -64.5 -72.5t-77 -61t-105 -47t-129.5 -16.5q-158 0 -252 85t-94 251z" />
<glyph unicode="v" horiz-adv-x="983" d="M49 922h107l215 -514l118 -314h5l118 314l215 514h107l-391 -922h-103z" />
<glyph unicode="w" horiz-adv-x="1527" d="M57 922h103l198 -576l68 -252h4l72 252l211 576h102l209 -576l72 -252h4l67 252l201 576h102l-319 -922h-102l-215 588l-68 239h-4l-68 -239l-215 -588h-102z" />
<glyph unicode="x" horiz-adv-x="1007" d="M45 0l397 473l-376 449h120l318 -385l317 385h121l-379 -449l400 -473h-121l-338 410l-338 -410h-121z" />
<glyph unicode="y" horiz-adv-x="1003" d="M45 922h102l234 -519l127 -313h4l121 318l215 514h106l-495 -1168q-21 -47 -36 -76t-36.5 -57.5t-45 -43.5t-56.5 -24.5t-76 -9.5q-67 0 -139 33v88q68 -35 141 -35q60 0 91.5 33t66.5 117l90 223z" />
<glyph unicode="z" horiz-adv-x="925" d="M82 0v78l596 751l-567 -2v95h700v-78l-598 -752l627 2v-94h-758z" />
<glyph unicode="{" horiz-adv-x="536" d="M82 506v69q149 3 149 199v373q0 90 51 148.5t140 58.5q44 0 82 -17v-75q-41 12 -72 12q-56 0 -79 -31.5t-23 -122.5v-354q0 -95 -38 -146t-108 -79q69 -28 107.5 -79.5t38.5 -146.5v-354q0 -92 22.5 -123t79.5 -31q28 0 72 13v-76q-36 -16 -82 -16q-89 0 -140 58t-51 148 v373q0 196 -149 199z" />
<glyph unicode="|" horiz-adv-x="475" d="M188 -440v1771h99v-1771h-99z" />
<glyph unicode="}" horiz-adv-x="536" d="M33 -180q44 -13 71 -13q57 0 80 31t23 123v354q0 95 38 146.5t107 79.5q-69 28 -107 79t-38 146v354q0 90 -23.5 122t-79.5 32q-30 0 -71 -12v75q38 17 82 17q89 0 139.5 -58.5t50.5 -148.5v-373q0 -196 150 -199v-69q-150 -3 -150 -199v-373q0 -90 -50.5 -148 t-139.5 -58q-46 0 -82 16v76z" />
<glyph unicode="~" horiz-adv-x="933" d="M106 557v98q31 26 53.5 41.5t63 31t82.5 15.5q47 0 93 -18t76.5 -40t72.5 -40t82 -18q97 0 198 104v-98q-110 -90 -200 -90q-47 0 -92 18.5t-75 41t-72 41t-83 18.5q-53 0 -95.5 -24.5t-103.5 -80.5z" />
<glyph horiz-adv-x="921" />
<glyph unicode="&#xa1;" horiz-adv-x="454" d="M133 846q0 40 27 64t67 24t67.5 -24t27.5 -64t-27.5 -64t-67.5 -24t-67 24t-27 64zM172 -328l21 820h69l21 -820h-111z" />
<glyph unicode="&#xa2;" horiz-adv-x="1228" d="M197 463q0 195 125 327t344 152v184h94v-180q164 -8 293 -78v-90q-137 82 -322 82q-200 0 -316 -112t-116 -285t116.5 -285t319.5 -112q191 0 326 81v-92q-117 -66 -301 -75v-185h-94v189q-219 17 -344 151t-125 328z" />
<glyph unicode="&#xa3;" horiz-adv-x="1228" d="M184 0v78q176 156 176 305v295h-176v86h176v131q0 165 117.5 270t308.5 105q74 0 143.5 -14.5t110.5 -34.5v-91q-110 50 -247 50q-154 0 -242 -78t-88 -215v-123h387v-86h-387v-275q0 -185 -156 -313h766v-90h-889z" />
<glyph unicode="&#xa4;" d="M131 250l127 127q-88 109 -88 250t86 247l-125 125l62 62l124 -125q109 88 250 88q135 0 250 -88l125 125l62 -62l-125 -125q86 -106 86 -247t-88 -250l127 -127l-62 -62l-127 127q-106 -86 -248 -86t-248 86l-126 -127zM248 627q0 -132 94.5 -228t224.5 -96t225 96 t95 228t-94.5 227.5t-225.5 95.5q-130 0 -224.5 -95.5t-94.5 -227.5z" />
<glyph unicode="&#xa5;" horiz-adv-x="1228" d="M109 1249h110l246 -399l145 -238h8l146 238l246 399h110l-401 -626h268v-86h-319v-129h319v-86h-319v-322h-107v322h-319v86h319v129h-319v86h266z" />
<glyph unicode="&#xa6;" horiz-adv-x="503" d="M201 285h102v-725h-102v725zM201 606v725h102v-725h-102z" />
<glyph unicode="&#xa7;" horiz-adv-x="1228" d="M160 469q0 104 70 196t194 152q-73 55 -113.5 116t-40.5 146q0 129 109 198t278 69q184 0 299 -39v-105q-160 49 -297 49q-132 0 -210 -45t-78 -129q0 -46 24 -85t74 -73t92.5 -55.5t114.5 -52.5q159 -72 225 -116q168 -112 168 -263q0 -56 -24.5 -111.5t-67 -101.5 t-85.5 -81.5t-93 -67.5q157 -110 157 -258q0 -86 -59 -148t-150 -90.5t-200 -28.5q-173 0 -283 39v107q138 -51 273 -51q138 0 227.5 45.5t89.5 128.5q0 39 -15.5 73t-39 58.5t-66 50.5t-80 43t-98.5 43q-160 68 -226 111q-169 111 -169 276zM260 469q0 -45 21 -85.5 t55.5 -71t80 -57.5t93.5 -49t96 -43q18 -7 27 -11l80 -37q43 31 66.5 48.5t64.5 54t63.5 65t41 67.5t18.5 76q0 28 -6.5 53t-22.5 47.5t-30 40t-43.5 37.5t-46.5 31.5t-55 30t-54.5 26t-59.5 26t-55 23.5l-80 35q-120 -56 -187 -134t-67 -173z" />
<glyph unicode="&#xa8;" horiz-adv-x="614" d="M0 1188q0 37 22.5 59.5t63.5 22.5t63.5 -22.5t22.5 -59.5t-22.5 -59.5t-63.5 -22.5t-63.5 22.5t-22.5 59.5zM442 1188q0 37 22.5 59.5t63.5 22.5t63.5 -22.5t22.5 -59.5t-22.5 -59.5t-63.5 -22.5t-63.5 22.5t-22.5 59.5z" />
<glyph unicode="&#xa9;" horiz-adv-x="1497" d="M102 621q0 177 84.5 322t232.5 227.5t329 82.5t329 -82.5t232 -227.5t84 -322q0 -133 -49.5 -250.5t-135 -201.5t-205.5 -132.5t-255 -48.5q-181 0 -329 82.5t-232.5 228t-84.5 322.5zM182 621q0 -245 159.5 -402.5t406.5 -157.5t406 157.5t159 402.5t-159 402t-406 157 q-248 0 -407 -157.5t-159 -401.5zM369 618q0 169 111 280.5t290 111.5q137 0 244 -66v-80q-118 70 -244 70q-141 0 -226 -89t-85 -227t85.5 -226.5t227.5 -88.5t248 70v-82q-103 -64 -248 -64q-180 0 -291.5 112t-111.5 279z" />
<glyph unicode="&#xaa;" horiz-adv-x="804" d="M78 772q0 109 78 168t213 59q103 0 221 -30v49q0 176 -199 176q-136 0 -252 -55v80q102 51 254 51q130 0 207.5 -64.5t77.5 -195.5v-437h-78l-10 109h-2q-98 -123 -252 -123q-120 0 -189 55t-69 158zM166 772q0 -65 46.5 -101t125.5 -36q171 0 256 156v100 q-130 33 -213 33q-105 0 -160 -38.5t-55 -113.5z" />
<glyph unicode="&#xab;" horiz-adv-x="856" d="M53 553l285 428h100l-286 -426l286 -424h-100zM377 553l285 428h100l-287 -426l287 -424h-100z" />
<glyph unicode="&#xac;" horiz-adv-x="1095" d="M131 784v97h821v-512h-98v415h-723z" />
<glyph unicode="&#xad;" horiz-adv-x="647" d="M74 582v90h499v-90h-499z" />
<glyph unicode="&#xae;" horiz-adv-x="1495" d="M102 621q0 177 84.5 322t232.5 227.5t329 82.5t329 -82.5t232 -227.5t84 -322q0 -133 -49.5 -250.5t-135 -201.5t-205.5 -132.5t-255 -48.5q-181 0 -329 82.5t-232.5 228t-84.5 322.5zM182 621q0 -245 159.5 -402.5t406.5 -157.5t406 157.5t159 402.5t-159 402t-406 157 q-248 0 -407 -157.5t-159 -401.5zM496 256v745h276q262 0 262 -200q0 -141 -143 -189v-2q46 -17 67 -42.5t39 -82.5l68 -229h-88l-64 215q-13 41 -26 60t-44 30.5t-87 11.5h-170v-317h-90zM586 655h184q174 0 174 146q0 69 -37 97t-139 28h-182v-271z" />
<glyph unicode="&#xaf;" horiz-adv-x="614" d="M37 1102v86h541v-86h-541z" />
<glyph unicode="&#xb0;" horiz-adv-x="655" d="M82 1118q0 101 69 167.5t177 66.5t176.5 -66.5t68.5 -167.5t-68.5 -167t-176.5 -66t-177 66t-69 167zM160 1118q0 -73 46.5 -118.5t121.5 -45.5t121.5 45.5t46.5 118.5t-46.5 118.5t-121.5 45.5t-121.5 -45.5t-46.5 -118.5z" />
<glyph unicode="&#xb1;" horiz-adv-x="1052" d="M82 0v82h889v-82h-889zM82 586v90h395v414h98v-414h396v-90h-396v-414h-98v414h-395z" />
<glyph unicode="&#xb2;" horiz-adv-x="751" d="M94 588v57q216 126 325 242.5t109 230.5q0 76 -52.5 120t-153.5 44q-109 0 -205 -45v70q93 43 209 43q138 0 208 -66.5t70 -167.5q0 -231 -373 -461h385v-67h-522z" />
<glyph unicode="&#xb3;" horiz-adv-x="722" d="M90 621v71q114 -49 238 -49q194 0 194 152q0 43 -20.5 73t-59.5 46t-85.5 23t-108.5 7v66q252 -10 252 149q0 123 -174 123q-52 0 -114 -14.5t-106 -34.5v70q96 47 222 47q106 0 175.5 -47.5t69.5 -145.5q0 -121 -133 -178q71 -19 115.5 -65.5t44.5 -120.5 q0 -111 -73 -164.5t-193 -53.5q-139 0 -244 46z" />
<glyph unicode="&#xb4;" horiz-adv-x="614" d="M164 1049l160 282h131l-215 -282h-76z" />
<glyph unicode="&#xb5;" d="M156 -440v1362h102v-641q150 -215 377 -215q122 0 184 63t62 201v592h102v-611q0 -166 -94 -251t-252 -85q-70 0 -130 16.5t-105.5 47t-77 61t-64.5 72.5h-4l2 -172v-440h-102z" />
<glyph unicode="&#xb6;" horiz-adv-x="1099" d="M82 911q0 174 129 297t313 123h391v-1771h-102v1648h-182v-1648h-103v929h-4q-185 0 -313.5 122.5t-128.5 299.5z" />
<glyph unicode="&#xb7;" horiz-adv-x="434" d="M123 596q0 41 26.5 66.5t67.5 25.5t67.5 -25.5t26.5 -66.5t-26.5 -66.5t-67.5 -25.5t-67.5 25.5t-26.5 66.5z" />
<glyph unicode="&#xb8;" horiz-adv-x="614" d="M211 -297q62 -16 131 -16q53 0 82 16.5t29 60.5q0 50 -49 70t-146 25l29 155l65 -6l-8 -94q203 -12 203 -160q0 -41 -19 -71.5t-50.5 -46.5t-65 -23.5t-70.5 -7.5q-61 0 -131 18v80z" />
<glyph unicode="&#xb9;" horiz-adv-x="520" d="M53 1167v68q67 -5 116.5 19t90.5 83h68v-749h-76v655q-33 -45 -80.5 -61.5t-118.5 -14.5z" />
<glyph unicode="&#xba;" horiz-adv-x="862" d="M70 915q0 151 100.5 253t261.5 102t261 -102t100 -253q0 -152 -100 -254t-261 -102t-261.5 102t-100.5 254zM160 915q0 -119 75.5 -198.5t196.5 -79.5q119 0 193.5 79.5t74.5 198.5q0 118 -74.5 197.5t-193.5 79.5q-121 0 -196.5 -79.5t-75.5 -197.5z" />
<glyph unicode="&#xbb;" horiz-adv-x="856" d="M94 131l287 424l-287 426h101l284 -428l-284 -422h-101zM418 131l287 424l-287 426h100l285 -428l-285 -422h-100z" />
<glyph unicode="&#xbc;" horiz-adv-x="1490" d="M127 1079v68q67 -5 116.5 19t90.5 83h67v-749h-75v655q-33 -45 -80.5 -61.5t-118.5 -14.5zM229 0l938 1249h95l-934 -1249h-99zM827 158v59l410 533h78v-525h123v-67h-123v-158h-76v158h-412zM920 225h319v420z" />
<glyph unicode="&#xbd;" horiz-adv-x="1490" d="M127 1079v68q67 -5 116.5 19t90.5 83h67v-749h-75v655q-33 -45 -80.5 -61.5t-118.5 -14.5zM188 0l938 1249h95l-934 -1249h-99zM887 0v57q216 126 325 242.5t109 230.5q0 76 -52.5 120t-154.5 44q-109 0 -205 -45v70q93 43 209 43q138 0 208.5 -66.5t70.5 -167.5 q0 -230 -373 -460h385v-68h-522z" />
<glyph unicode="&#xbe;" horiz-adv-x="1490" d="M90 528v72q114 -49 238 -49q194 0 194 151q0 83 -72.5 116.5t-201.5 33.5v66q252 -10 252 149q0 123 -174 123q-52 0 -114 -14.5t-106 -34.5v69q96 47 222 47q106 0 175.5 -47t69.5 -145q0 -121 -133 -178q71 -19 115.5 -66t44.5 -121q0 -111 -72.5 -164t-193.5 -53 q-141 0 -244 45zM291 0l938 1249h94l-934 -1249h-98zM827 158v59l410 533h78v-525h123v-67h-123v-158h-76v158h-412zM920 225h319v420z" />
<glyph unicode="&#xbf;" horiz-adv-x="868" d="M119 -35q0 62 21 126t51.5 115t79 107t87 94t91.5 85h102q-62 -53 -117 -112t-105 -128t-79 -143.5t-29 -141.5q0 -225 244 -225q178 0 334 76v-94q-148 -72 -342 -72q-155 0 -246.5 79.5t-91.5 233.5zM416 846q0 40 27 64t67 24t67 -24t27 -64t-27 -64t-67 -24t-67 24 t-27 64z" />
<glyph unicode="&#xc0;" horiz-adv-x="1302" d="M41 0l557 1249h107l557 -1249h-109l-143 319h-717l-143 -319h-109zM334 412h635l-201 458l-115 281h-4l-114 -279zM401 1659h131l160 -283h-76z" />
<glyph unicode="&#xc1;" horiz-adv-x="1302" d="M41 0l557 1249h107l557 -1249h-109l-143 319h-717l-143 -319h-109zM334 412h635l-201 458l-115 281h-4l-114 -279zM610 1376l160 283h131l-215 -283h-76z" />
<glyph unicode="&#xc2;" horiz-adv-x="1302" d="M41 0l557 1249h107l557 -1249h-109l-143 319h-717l-143 -319h-109zM334 412h635l-201 458l-115 281h-4l-114 -279zM373 1377l233 270h90l234 -270h-88l-191 178l-190 -178h-88z" />
<glyph unicode="&#xc3;" horiz-adv-x="1302" d="M41 0l557 1249h107l557 -1249h-109l-143 319h-717l-143 -319h-109zM334 412h635l-201 458l-115 281h-4l-114 -279zM365 1411q-7 91 30.5 137.5t116.5 46.5q38 0 77.5 -17.5t67 -38.5t62 -38.5t63.5 -17.5q44 0 63.5 30t14.5 72h78q7 -91 -30 -137.5t-113 -46.5 q-47 0 -98 28t-97 56t-80 28q-44 0 -63.5 -30t-14.5 -72h-77z" />
<glyph unicode="&#xc4;" horiz-adv-x="1302" d="M41 0l557 1249h107l557 -1249h-109l-143 319h-717l-143 -319h-109zM334 412h635l-201 458l-115 281h-4l-114 -279zM344 1516q0 37 22.5 59.5t63.5 22.5t63.5 -22.5t22.5 -59.5t-22.5 -59.5t-63.5 -22.5t-63.5 22.5t-22.5 59.5zM786 1516q0 37 22.5 59.5t63.5 22.5 t63.5 -22.5t22.5 -59.5t-22.5 -59.5t-63.5 -22.5t-63.5 22.5t-22.5 59.5z" />
<glyph unicode="&#xc5;" horiz-adv-x="1302" d="M41 0l557 1249h107l557 -1249h-109l-143 319h-717l-143 -319h-109zM334 412h635l-201 458l-115 281h-4l-114 -279zM446 1522q0 80 55 131t150 51t150 -51t55 -131t-55 -131t-150 -51t-150 51t-55 131zM526 1522q0 -54 34 -85.5t91 -31.5t91 31.5t34 85.5t-34 85.5 t-91 31.5t-91 -31.5t-34 -85.5z" />
<glyph unicode="&#xc6;" horiz-adv-x="1771" d="M41 0l844 1249h772v-94h-651v-473h593v-94h-593v-494h651v-94h-758v315h-530l-213 -315h-115zM432 410h467v698z" />
<glyph unicode="&#xc7;" horiz-adv-x="1253" d="M111 625q0 298 181 471.5t474 173.5q210 0 358 -76v-102q-78 44 -160.5 63t-197.5 19q-251 0 -400 -144t-149 -405q0 -173 70 -298.5t191.5 -188t281.5 -62.5q212 0 387 96v-111q-166 -81 -387 -81q-138 0 -257 44.5t-206 126t-136.5 204t-49.5 270.5zM664 -297 q62 -16 131 -16q53 0 81.5 16.5t28.5 60.5q0 50 -48.5 70t-145.5 25l28 155l66 -6l-8 -94q202 -12 202 -160q0 -54 -33.5 -89t-77 -47.5t-93.5 -12.5q-61 0 -131 18v80z" />
<glyph unicode="&#xc8;" horiz-adv-x="1044" d="M164 0v1249h766v-94h-660v-473h602v-94h-602v-494h660v-94h-766zM416 1659h131l160 -282h-76z" />
<glyph unicode="&#xc9;" horiz-adv-x="1044" d="M164 0v1249h766v-94h-660v-473h602v-94h-602v-494h660v-94h-766zM461 1376l160 283h131l-215 -283h-76z" />
<glyph unicode="&#xca;" horiz-adv-x="1044" d="M164 0v1249h766v-94h-660v-473h602v-94h-602v-494h660v-94h-766zM285 1376l233 271h90l234 -271h-88l-191 178l-190 -178h-88z" />
<glyph unicode="&#xcb;" horiz-adv-x="1044" d="M164 0v1249h766v-94h-660v-473h602v-94h-602v-494h660v-94h-766zM256 1516q0 36 22 58.5t64 22.5t64 -22.5t22 -58.5q0 -37 -22.5 -59.5t-63.5 -22.5t-63.5 22.5t-22.5 59.5zM698 1516q0 36 22 58.5t64 22.5t64 -22.5t22 -58.5q0 -37 -22.5 -59.5t-63.5 -22.5t-63.5 22.5 t-22.5 59.5z" />
<glyph unicode="&#xcc;" horiz-adv-x="442" d="M-12 1659h131l160 -283h-76zM168 0v1249h106v-1249h-106z" />
<glyph unicode="&#xcd;" horiz-adv-x="442" d="M168 0v1249h106v-1249h-106zM168 1376l160 283h131l-215 -283h-76z" />
<glyph unicode="&#xce;" horiz-adv-x="442" d="M-53 1376l233 271h90l234 -271h-88l-191 178l-190 -178h-88zM168 0v1249h106v-1249h-106z" />
<glyph unicode="&#xcf;" horiz-adv-x="442" d="M-82 1516q0 36 22 58.5t64 22.5t64 -22.5t22 -58.5q0 -37 -22.5 -59.5t-63.5 -22.5t-63.5 22.5t-22.5 59.5zM168 0v1249h106v-1249h-106zM360 1516q0 36 22 58.5t64 22.5t64 -22.5t22 -58.5q0 -37 -22.5 -59.5t-63.5 -22.5t-63.5 22.5t-22.5 59.5z" />
<glyph unicode="&#xd0;" horiz-adv-x="1327" d="M33 582v90h135v577h436q299 0 456 -158t157 -458q0 -311 -159 -472t-462 -161h-428v582h-135zM274 94h318q259 0 388.5 129t129.5 410q0 272 -127 397t-383 125h-326v-483h320v-90h-320v-488z" />
<glyph unicode="&#xd1;" horiz-adv-x="1359" d="M164 0v1249h106l629 -835q127 -167 199 -285h4q-12 266 -12 363v757h106v-1249h-106l-629 836q-130 171 -199 284h-4q12 -100 12 -362v-758h-106zM393 1411q-7 91 31 138t117 47q38 0 77.5 -17.5t67 -39t62 -39t63.5 -17.5q44 0 63.5 30t14.5 72h78q7 -91 -30 -137.5 t-113 -46.5q-37 0 -77.5 17.5t-70 39t-64.5 39t-63 17.5q-44 0 -63.5 -30.5t-14.5 -72.5h-78z" />
<glyph unicode="&#xd2;" horiz-adv-x="1527" d="M111 625q0 148 50 270.5t138 204t207.5 126t257.5 44.5t257.5 -44.5t207.5 -126t138 -204t50 -270.5t-50 -270.5t-138 -204t-207.5 -126t-257.5 -44.5t-257.5 44.5t-207.5 126t-138 204t-50 270.5zM217 625q0 -259 151.5 -404t395.5 -145t395.5 145t151.5 404t-151.5 404 t-395.5 145t-395.5 -145t-151.5 -404zM576 1659h131l160 -282h-76z" />
<glyph unicode="&#xd3;" horiz-adv-x="1527" d="M111 625q0 148 50 270.5t138 204t207.5 126t257.5 44.5t257.5 -44.5t207.5 -126t138 -204t50 -270.5t-50 -270.5t-138 -204t-207.5 -126t-257.5 -44.5t-257.5 44.5t-207.5 126t-138 204t-50 270.5zM217 625q0 -259 151.5 -404t395.5 -145t395.5 145t151.5 404t-151.5 404 t-395.5 145t-395.5 -145t-151.5 -404zM662 1376l159 283h131l-215 -283h-75z" />
<glyph unicode="&#xd4;" horiz-adv-x="1527" d="M111 625q0 148 50 270.5t138 204t207.5 126t257.5 44.5t257.5 -44.5t207.5 -126t138 -204t50 -270.5t-50 -270.5t-138 -204t-207.5 -126t-257.5 -44.5t-257.5 44.5t-207.5 126t-138 204t-50 270.5zM217 625q0 -259 151.5 -404t395.5 -145t395.5 145t151.5 404t-151.5 404 t-395.5 145t-395.5 -145t-151.5 -404zM485 1376l234 271h90l233 -271h-88l-190 178l-191 -178h-88z" />
<glyph unicode="&#xd5;" horiz-adv-x="1527" d="M111 625q0 148 50 270.5t138 204t207.5 126t257.5 44.5t257.5 -44.5t207.5 -126t138 -204t50 -270.5t-50 -270.5t-138 -204t-207.5 -126t-257.5 -44.5t-257.5 44.5t-207.5 126t-138 204t-50 270.5zM217 625q0 -259 151.5 -404t395.5 -145t395.5 145t151.5 404t-151.5 404 t-395.5 145t-395.5 -145t-151.5 -404zM477 1411q-7 91 31 137.5t117 46.5q38 0 77.5 -17.5t67 -38.5t62 -38.5t63.5 -17.5q44 0 63.5 30t14.5 72h78q7 -91 -30.5 -137.5t-113.5 -46.5q-37 0 -77.5 17.5t-69.5 38.5t-64 38.5t-63 17.5q-44 0 -63.5 -30t-14.5 -72h-78z" />
<glyph unicode="&#xd6;" horiz-adv-x="1527" d="M111 625q0 148 50 270.5t138 204t207.5 126t257.5 44.5t257.5 -44.5t207.5 -126t138 -204t50 -270.5t-50 -270.5t-138 -204t-207.5 -126t-257.5 -44.5t-257.5 44.5t-207.5 126t-138 204t-50 270.5zM217 625q0 -259 151.5 -404t395.5 -145t395.5 145t151.5 404t-151.5 404 t-395.5 145t-395.5 -145t-151.5 -404zM457 1516q0 36 22.5 58.5t63.5 22.5t63.5 -22.5t22.5 -58.5q0 -37 -22.5 -59.5t-63.5 -22.5t-63.5 22.5t-22.5 59.5zM899 1516q0 36 22.5 58.5t63.5 22.5t63.5 -22.5t22.5 -58.5q0 -37 -22.5 -59.5t-63.5 -22.5t-63.5 22.5t-22.5 59.5z " />
<glyph unicode="&#xd7;" horiz-adv-x="1052" d="M143 313l318 318l-318 317l66 66l317 -318l318 318l65 -66l-317 -317l317 -318l-65 -65l-318 317l-317 -317z" />
<glyph unicode="&#xd8;" horiz-adv-x="1527" d="M111 625q0 148 50 270.5t138 204t207.5 126t257.5 44.5q226 0 395 -115l107 127h110l-151 -180q192 -179 192 -477q0 -148 -50 -270.5t-138 -204t-207.5 -126t-257.5 -44.5q-229 0 -393 112l-109 -129h-110l153 182q-194 178 -194 480zM217 625q0 -260 152 -406l727 862 q-133 93 -332 93q-244 0 -395.5 -145t-151.5 -404zM434 166q140 -90 330 -90q244 0 395.5 145t151.5 404t-150 403z" />
<glyph unicode="&#xd9;" horiz-adv-x="1400" d="M158 532v717h106v-706q0 -252 105 -360.5t331 -108.5t331.5 108.5t105.5 360.5v706h106v-717q0 -305 -141 -434q-129 -118 -402 -118q-268 0 -397 118q-145 133 -145 434zM512 1659h131l160 -282h-76z" />
<glyph unicode="&#xda;" horiz-adv-x="1400" d="M158 532v717h106v-706q0 -252 105 -360.5t331 -108.5t331.5 108.5t105.5 360.5v706h106v-717q0 -305 -141 -434q-129 -118 -402 -118q-268 0 -397 118q-145 133 -145 434zM598 1376l160 283h131l-215 -283h-76z" />
<glyph unicode="&#xdb;" horiz-adv-x="1400" d="M158 532v717h106v-706q0 -252 105 -360.5t331 -108.5t331.5 108.5t105.5 360.5v706h106v-717q0 -305 -141 -434q-129 -118 -402 -118q-268 0 -397 118q-145 133 -145 434zM422 1376l233 271h90l234 -271h-88l-191 178l-190 -178h-88z" />
<glyph unicode="&#xdc;" horiz-adv-x="1400" d="M158 532v717h106v-706q0 -252 105 -360.5t331 -108.5t331.5 108.5t105.5 360.5v706h106v-717q0 -305 -141 -434q-129 -118 -402 -118q-268 0 -397 118q-145 133 -145 434zM393 1516q0 36 22.5 58.5t63.5 22.5t63.5 -22.5t22.5 -58.5q0 -37 -22.5 -59.5t-63.5 -22.5 t-63.5 22.5t-22.5 59.5zM836 1516q0 36 22 58.5t64 22.5t64 -22.5t22 -58.5q0 -37 -22.5 -59.5t-63.5 -22.5t-63.5 22.5t-22.5 59.5z" />
<glyph unicode="&#xdd;" horiz-adv-x="1232" d="M49 1249h111l291 -436l161 -258h9l161 258l291 436h111l-514 -766v-483h-107v483zM574 1377l160 282h131l-215 -282h-76z" />
<glyph unicode="&#xde;" horiz-adv-x="1167" d="M168 0v1249h106v-205h330q226 0 337.5 -86t111.5 -282t-111.5 -282.5t-337.5 -86.5h-330v-307h-106zM274 401h330q182 0 262 61t80 214q0 151 -81.5 212.5t-260.5 61.5h-330v-549z" />
<glyph unicode="&#xdf;" horiz-adv-x="1236" d="M160 0v915q0 74 15.5 137t51 119t89 95.5t134 62.5t181.5 23q181 0 289 -75t108 -210q0 -60 -24.5 -108.5t-61.5 -78t-80 -56.5t-80 -45t-61.5 -41.5t-24.5 -49.5q0 -27 24 -48.5t63 -38t86 -33.5t93.5 -42.5t85.5 -58t63 -86.5t24 -123q0 -129 -88 -203.5t-246 -74.5 q-150 0 -279 59v88q69 -29 129.5 -44t145.5 -15q122 0 180.5 52t58.5 138q0 57 -24.5 100.5t-63.5 69.5t-86 46.5t-94 39t-86 40t-63.5 56t-24.5 80.5q0 51 34.5 88.5t84 62.5t99 51.5t84 70.5t34.5 104q0 92 -76.5 141t-218.5 49q-100 0 -173.5 -26.5t-116.5 -74.5 t-63 -110t-20 -139v-907h-102z" />
<glyph unicode="&#xe0;" horiz-adv-x="1056" d="M98 266q0 146 104 224.5t287 78.5q163 0 316 -49v86q0 124 -73.5 189t-209.5 65q-181 0 -340 -78v90q159 74 342 74q175 0 278 -86t103 -264v-596h-86l-12 172h-4q-45 -81 -137 -136.5t-224 -55.5q-162 0 -253 73.5t-91 212.5zM199 266q0 -200 247 -200q131 0 216.5 57.5 t142.5 163.5v151q-164 45 -301 45q-305 0 -305 -217zM340 1331h131l160 -282h-76z" />
<glyph unicode="&#xe1;" horiz-adv-x="1056" d="M98 266q0 146 104 224.5t287 78.5q163 0 316 -49v86q0 124 -73.5 189t-209.5 65q-181 0 -340 -78v90q159 74 342 74q175 0 278 -86t103 -264v-596h-86l-12 172h-4q-45 -81 -137 -136.5t-224 -55.5q-162 0 -253 73.5t-91 212.5zM199 266q0 -200 247 -200q131 0 216.5 57.5 t142.5 163.5v151q-164 45 -301 45q-305 0 -305 -217zM426 1049l160 282h131l-215 -282h-76z" />
<glyph unicode="&#xe2;" horiz-adv-x="1056" d="M98 266q0 146 104 224.5t287 78.5q163 0 316 -49v86q0 124 -73.5 189t-209.5 65q-181 0 -340 -78v90q159 74 342 74q175 0 278 -86t103 -264v-596h-86l-12 172h-4q-45 -81 -137 -136.5t-224 -55.5q-162 0 -253 73.5t-91 212.5zM199 266q0 -200 247 -200q131 0 216.5 57.5 t142.5 163.5v151q-164 45 -301 45q-305 0 -305 -217zM250 1049l233 270h90l234 -270h-88l-191 178l-190 -178h-88z" />
<glyph unicode="&#xe3;" horiz-adv-x="1056" d="M98 266q0 146 104 224.5t287 78.5q163 0 316 -49v86q0 124 -73.5 189t-209.5 65q-181 0 -340 -78v90q159 74 342 74q175 0 278 -86t103 -264v-596h-86l-12 172h-4q-45 -81 -137 -136.5t-224 -55.5q-162 0 -253 73.5t-91 212.5zM199 266q0 -200 247 -200q131 0 216.5 57.5 t142.5 163.5v151q-164 45 -301 45q-305 0 -305 -217zM242 1083q-7 91 30.5 138t116.5 47q38 0 77.5 -17.5t67 -39t62 -39t63.5 -17.5q44 0 63.5 30t14.5 72h78q7 -91 -30 -137.5t-113 -46.5q-37 0 -77.5 17.5t-70 39t-64.5 39t-63 17.5q-44 0 -63.5 -30.5t-14.5 -72.5h-77z " />
<glyph unicode="&#xe4;" horiz-adv-x="1056" d="M98 266q0 146 104 224.5t287 78.5q163 0 316 -49v86q0 124 -73.5 189t-209.5 65q-181 0 -340 -78v90q159 74 342 74q175 0 278 -86t103 -264v-596h-86l-12 172h-4q-45 -81 -137 -136.5t-224 -55.5q-162 0 -253 73.5t-91 212.5zM199 266q0 -200 247 -200q131 0 216.5 57.5 t142.5 163.5v151q-164 45 -301 45q-305 0 -305 -217zM221 1188q0 37 22.5 59.5t63.5 22.5t63.5 -22.5t22.5 -59.5t-22.5 -59.5t-63.5 -22.5t-63.5 22.5t-22.5 59.5zM663 1188q0 37 22.5 59.5t63.5 22.5t63.5 -22.5t22.5 -59.5t-22.5 -59.5t-63.5 -22.5t-63.5 22.5 t-22.5 59.5z" />
<glyph unicode="&#xe5;" horiz-adv-x="1056" d="M98 266q0 146 104 224.5t287 78.5q163 0 316 -49v86q0 124 -73.5 189t-209.5 65q-181 0 -340 -78v90q159 74 342 74q175 0 278 -86t103 -264v-596h-86l-12 172h-4q-45 -81 -137 -136.5t-224 -55.5q-162 0 -253 73.5t-91 212.5zM199 266q0 -200 247 -200q131 0 216.5 57.5 t142.5 163.5v151q-164 45 -301 45q-305 0 -305 -217zM324 1194q0 80 54.5 131t149.5 51t150 -51t55 -131t-55 -131t-150 -51t-149.5 51t-54.5 131zM403 1194q0 -54 34 -85.5t91 -31.5t91 31.5t34 85.5t-34 85.5t-91 31.5t-91 -31.5t-34 -85.5z" />
<glyph unicode="&#xe6;" horiz-adv-x="1632" d="M98 266q0 146 104 224.5t287 78.5q100 0 232 -28q9 111 55 196q-64 123 -254 123q-181 0 -340 -78v90q159 74 342 74q220 0 312 -123q111 123 317 123q180 0 282.5 -112t102.5 -322q0 -24 -12 -86h-707q27 -360 367 -360q125 0 297 94v-97q-148 -83 -297 -83 q-272 0 -391 180q-46 -77 -136 -128.5t-217 -51.5q-162 0 -253 73.5t-91 212.5zM199 266q0 -200 247 -200q110 0 184.5 39t133.5 114q-47 109 -47 240q-117 24 -213 24q-305 0 -305 -217zM821 508h619q0 178 -77 265t-210 87q-157 0 -238 -96t-94 -256z" />
<glyph unicode="&#xe7;" horiz-adv-x="1001" d="M102 463q0 206 136.5 344.5t355.5 138.5q168 0 301 -72v-90q-127 76 -301 76t-281.5 -113.5t-107.5 -283.5t108.5 -283.5t284.5 -113.5q180 0 305 75v-92q-117 -69 -305 -69q-148 0 -262 64.5t-174 174t-60 244.5zM475 -297q62 -16 131 -16q53 0 82 16.5t29 60.5 q0 50 -49 70t-146 25l29 155l65 -6l-8 -94q203 -12 203 -160q0 -41 -19 -71.5t-50.5 -46.5t-65 -23.5t-70.5 -7.5q-61 0 -131 18v80z" />
<glyph unicode="&#xe8;" horiz-adv-x="1081" d="M102 463q0 139 53 247t160.5 172t255.5 64q195 0 305.5 -111.5t110.5 -322.5q0 -24 -12 -86h-770q11 -164 115 -262t284 -98q156 0 328 94v-97q-148 -83 -328 -83q-237 0 -369.5 133.5t-132.5 349.5zM207 508h682q0 178 -84.5 265t-233.5 87q-160 0 -256 -98.5 t-108 -253.5zM352 1331h131l160 -282h-76z" />
<glyph unicode="&#xe9;" horiz-adv-x="1081" d="M102 463q0 139 53 247t160.5 172t255.5 64q195 0 305.5 -111.5t110.5 -322.5q0 -24 -12 -86h-770q11 -164 115 -262t284 -98q156 0 328 94v-97q-148 -83 -328 -83q-237 0 -369.5 133.5t-132.5 349.5zM207 508h682q0 178 -84.5 265t-233.5 87q-160 0 -256 -98.5 t-108 -253.5zM438 1049l160 282h131l-215 -282h-76z" />
<glyph unicode="&#xea;" horiz-adv-x="1081" d="M102 463q0 139 53 247t160.5 172t255.5 64q195 0 305.5 -111.5t110.5 -322.5q0 -24 -12 -86h-770q11 -164 115 -262t284 -98q156 0 328 94v-97q-148 -83 -328 -83q-237 0 -369.5 133.5t-132.5 349.5zM207 508h682q0 178 -84.5 265t-233.5 87q-160 0 -256 -98.5 t-108 -253.5zM262 1049l234 270h90l233 -270h-88l-190 178l-191 -178h-88z" />
<glyph unicode="&#xeb;" horiz-adv-x="1081" d="M102 463q0 139 53 247t160.5 172t255.5 64q195 0 305.5 -111.5t110.5 -322.5q0 -24 -12 -86h-770q11 -164 115 -262t284 -98q156 0 328 94v-97q-148 -83 -328 -83q-237 0 -369.5 133.5t-132.5 349.5zM207 508h682q0 178 -84.5 265t-233.5 87q-160 0 -256 -98.5 t-108 -253.5zM233 1188q0 37 22.5 59.5t63.5 22.5t64 -23t23 -59t-23 -59t-64 -23t-63.5 22.5t-22.5 59.5zM676 1188q0 37 22.5 59.5t63.5 22.5t63.5 -22.5t22.5 -59.5t-22.5 -59.5t-63.5 -22.5t-63.5 22.5t-22.5 59.5z" />
<glyph unicode="&#xec;" horiz-adv-x="421" d="M-24 1331h131l160 -282h-76zM160 0v922h102v-922h-102z" />
<glyph unicode="&#xed;" horiz-adv-x="421" d="M160 0v922h102v-922h-102zM164 1049l160 282h131l-215 -282h-76z" />
<glyph unicode="&#xee;" horiz-adv-x="421" d="M-63 1049l233 270h90l234 -270h-88l-191 178l-190 -178h-88zM160 0v922h102v-922h-102z" />
<glyph unicode="&#xef;" horiz-adv-x="421" d="M-135 1188q0 37 22.5 59.5t63.5 22.5t63.5 -22.5t22.5 -59.5t-22.5 -59.5t-63.5 -22.5t-63.5 22.5t-22.5 59.5zM121 0v922h102v-922h-102zM307 1188q0 37 22.5 59.5t63.5 22.5t63.5 -22.5t22.5 -59.5t-22.5 -59.5t-63.5 -22.5t-63.5 22.5t-22.5 59.5z" />
<glyph unicode="&#xf0;" horiz-adv-x="1146" d="M94 420q0 82 24.5 155t74.5 133.5t135 96t196 35.5q123 0 228.5 -51t181.5 -121q0 260 -189 422l-350 -150v90l273 115q-166 94 -369 94v88q274 0 467 -139l291 123v-90l-219 -93q194 -194 194 -503q0 -318 -127.5 -481.5t-351.5 -163.5q-193 0 -326 121.5t-133 318.5z M193 414q0 -85 31 -152.5t82.5 -108.5t114 -62t130.5 -21q183 0 274 124.5t109 362.5q-166 193 -406 193q-90 0 -157 -28.5t-104.5 -77.5t-55.5 -106.5t-18 -123.5z" />
<glyph unicode="&#xf1;" horiz-adv-x="1163" d="M156 0v922h88l12 -172h4q196 196 412 196q157 0 248.5 -91t91.5 -265v-590h-103v571q0 146 -61.5 215.5t-185.5 69.5q-121 0 -216 -56t-188 -155v-645h-102zM294 1083q-7 91 31 138t117 47q38 0 77.5 -17.5t67 -39t62 -39t63.5 -17.5q44 0 63.5 30t14.5 72h78 q7 -91 -30 -137.5t-113 -46.5q-37 0 -78 17.5t-70 39t-64 39t-63 17.5q-44 0 -63.5 -30.5t-14.5 -72.5h-78z" />
<glyph unicode="&#xf2;" horiz-adv-x="1187" d="M102 463q0 206 136.5 344.5t355.5 138.5t355 -138.5t136 -344.5t-136 -344.5t-355 -138.5t-355.5 138.5t-136.5 344.5zM205 463q0 -170 107.5 -283.5t281.5 -113.5t281.5 113.5t107.5 283.5t-107.5 283.5t-281.5 113.5t-281.5 -113.5t-107.5 -283.5zM385 1331h131 l160 -282h-76z" />
<glyph unicode="&#xf3;" horiz-adv-x="1187" d="M102 463q0 206 136.5 344.5t355.5 138.5t355 -138.5t136 -344.5t-136 -344.5t-355 -138.5t-355.5 138.5t-136.5 344.5zM205 463q0 -170 107.5 -283.5t281.5 -113.5t281.5 113.5t107.5 283.5t-107.5 283.5t-281.5 113.5t-281.5 -113.5t-107.5 -283.5zM512 1049l160 282 h131l-215 -282h-76z" />
<glyph unicode="&#xf4;" horiz-adv-x="1187" d="M102 463q0 206 136.5 344.5t355.5 138.5t355 -138.5t136 -344.5t-136 -344.5t-355 -138.5t-355.5 138.5t-136.5 344.5zM205 463q0 -170 107.5 -283.5t281.5 -113.5t281.5 113.5t107.5 283.5t-107.5 283.5t-281.5 113.5t-281.5 -113.5t-107.5 -283.5zM315 1049l234 270h90 l233 -270h-88l-190 178l-191 -178h-88z" />
<glyph unicode="&#xf5;" horiz-adv-x="1187" d="M102 463q0 206 136.5 344.5t355.5 138.5t355 -138.5t136 -344.5t-136 -344.5t-355 -138.5t-355.5 138.5t-136.5 344.5zM205 463q0 -170 107.5 -283.5t281.5 -113.5t281.5 113.5t107.5 283.5t-107.5 283.5t-281.5 113.5t-281.5 -113.5t-107.5 -283.5zM307 1083 q-7 91 31 138t117 47q38 0 77.5 -17.5t67 -39t62 -39t63.5 -17.5q44 0 63.5 30t14.5 72h78q7 -91 -30.5 -137.5t-113.5 -46.5q-47 0 -98 28.5t-96.5 56.5t-79.5 28q-44 0 -63.5 -30.5t-14.5 -72.5h-78z" />
<glyph unicode="&#xf6;" horiz-adv-x="1187" d="M102 463q0 206 136.5 344.5t355.5 138.5t355 -138.5t136 -344.5t-136 -344.5t-355 -138.5t-355.5 138.5t-136.5 344.5zM205 463q0 -170 107.5 -283.5t281.5 -113.5t281.5 113.5t107.5 283.5t-107.5 283.5t-281.5 113.5t-281.5 -113.5t-107.5 -283.5zM287 1188 q0 37 22.5 59.5t63.5 22.5t63.5 -22.5t22.5 -59.5t-22.5 -59.5t-63.5 -22.5t-63.5 22.5t-22.5 59.5zM729 1188q0 37 22.5 59.5t63.5 22.5t63.5 -22.5t22.5 -59.5t-22.5 -59.5t-63.5 -22.5t-63.5 22.5t-22.5 59.5z" />
<glyph unicode="&#xf7;" horiz-adv-x="1052" d="M102 586v90h848v-90h-848zM422 289q0 46 30 75t74 29t74.5 -29t30.5 -75t-30.5 -75.5t-74.5 -29.5t-74 29.5t-30 75.5zM422 967q0 46 30 75t74 29t74.5 -29t30.5 -75t-30.5 -75.5t-74.5 -29.5t-74 29.5t-30 75.5z" />
<glyph unicode="&#xf8;" horiz-adv-x="1187" d="M102 463q0 206 136.5 344.5t355.5 138.5q165 0 287 -84l77 92h103l-119 -141q143 -137 143 -350q0 -206 -136 -344.5t-355 -138.5q-166 0 -285 79l-80 -96h-102l121 143q-70 66 -108 159t-38 198zM205 463q0 -171 106 -283l510 611q-92 69 -227 69q-174 0 -281.5 -113.5 t-107.5 -283.5zM371 131q95 -65 223 -65q174 0 281.5 113.5t107.5 283.5q0 165 -102 276z" />
<glyph unicode="&#xf9;" d="M152 311v611h102v-592q0 -138 62 -201t184 -63q227 0 377 215v641h102v-922h-88l-12 172h-5q-33 -42 -64.5 -72.5t-77 -61t-105 -47t-129.5 -16.5q-158 0 -252 85t-94 251zM358 1331h131l160 -282h-76z" />
<glyph unicode="&#xfa;" d="M152 311v611h102v-592q0 -138 62 -201t184 -63q227 0 377 215v641h102v-922h-88l-12 172h-5q-33 -42 -64.5 -72.5t-77 -61t-105 -47t-129.5 -16.5q-158 0 -252 85t-94 251zM485 1049l160 282h131l-215 -282h-76z" />
<glyph unicode="&#xfb;" d="M152 311v611h102v-592q0 -138 62 -201t184 -63q227 0 377 215v641h102v-922h-88l-12 172h-5q-33 -42 -64.5 -72.5t-77 -61t-105 -47t-129.5 -16.5q-158 0 -252 85t-94 251zM289 1049l233 270h90l234 -270h-88l-191 178l-190 -178h-88z" />
<glyph unicode="&#xfc;" d="M152 311v611h102v-592q0 -138 62 -201t184 -63q227 0 377 215v641h102v-922h-88l-12 172h-5q-33 -42 -64.5 -72.5t-77 -61t-105 -47t-129.5 -16.5q-158 0 -252 85t-94 251zM260 1188q0 37 22.5 59.5t63.5 22.5t63.5 -22.5t22.5 -59.5t-22.5 -59.5t-63.5 -22.5t-63.5 22.5 t-22.5 59.5zM702 1188q0 37 22.5 59.5t63.5 22.5t63.5 -22.5t22.5 -59.5t-22.5 -59.5t-63.5 -22.5t-63.5 22.5t-22.5 59.5z" />
<glyph unicode="&#xfd;" horiz-adv-x="1003" d="M45 922h102l234 -519l127 -313h4l121 318l215 514h106l-495 -1168q-21 -47 -36 -76t-36.5 -57.5t-45 -43.5t-56.5 -24.5t-76 -9.5q-67 0 -139 33v88q68 -35 141 -35q60 0 91.5 33t66.5 117l90 223zM459 1049l160 282h131l-215 -282h-76z" />
<glyph unicode="&#xfe;" d="M160 -440v1771h102v-399l-2 -182h4q61 83 154 139.5t213 56.5q194 0 295.5 -127t101.5 -348q0 -245 -108.5 -368t-282.5 -123q-247 0 -375 192h-4l4 -172v-440h-102zM262 283q53 -92 149.5 -152.5t213.5 -60.5q129 0 215 100t86 301q0 177 -76.5 281t-233.5 104 q-206 0 -354 -211v-362z" />
<glyph unicode="&#xff;" horiz-adv-x="1003" d="M45 922h102l234 -519l127 -313h4l121 318l215 514h106l-495 -1168q-21 -47 -36 -76t-36.5 -57.5t-45 -43.5t-56.5 -24.5t-76 -9.5q-67 0 -139 33v88q68 -35 141 -35q60 0 91.5 33t66.5 117l90 223zM195 1188q0 37 22.5 59.5t63.5 22.5t63.5 -22.5t22.5 -59.5t-22.5 -59.5 t-63.5 -22.5t-63.5 22.5t-22.5 59.5zM637 1188q0 37 22.5 59.5t63.5 22.5t63.5 -22.5t22.5 -59.5t-22.5 -59.5t-63.5 -22.5t-63.5 22.5t-22.5 59.5z" />
<glyph unicode="&#x152;" horiz-adv-x="1896" d="M111 625q0 148 50 270.5t138 204t207.5 126t257.5 44.5q147 0 252 -21h766v-94h-660v-473h602v-94h-602v-494h660v-94h-766q-89 -20 -252 -20q-138 0 -257.5 44.5t-207.5 126t-138 204t-50 270.5zM217 625q0 -259 151.5 -404t395.5 -145q173 0 252 24v1045 q-82 29 -252 29q-244 0 -395.5 -145t-151.5 -404z" />
<glyph unicode="&#x153;" horiz-adv-x="1839" d="M102 463q0 135 56.5 244.5t163 174t243.5 64.5q139 0 243.5 -67t160.5 -183q49 119 147 184.5t242 65.5q180 0 283.5 -112t103.5 -322q0 -24 -12 -86h-713q11 -164 108 -262t263 -98q165 0 299 86v-97q-134 -75 -299 -75q-156 0 -262 65.5t-158 185.5 q-55 -118 -159 -184.5t-247 -66.5q-137 0 -243.5 64.5t-163 174t-56.5 244.5zM205 463q0 -171 99.5 -284t260.5 -113q158 0 259.5 112t101.5 285t-101.5 285t-259.5 112q-161 0 -260.5 -113t-99.5 -284zM1022 508h625q0 178 -77.5 265t-211.5 87q-147 0 -235.5 -98.5 t-100.5 -253.5z" />
<glyph unicode="&#x178;" horiz-adv-x="1232" d="M49 1249h111l291 -436l161 -258h9l161 258l291 436h111l-514 -766v-483h-107v483zM309 1516q0 36 22.5 58.5t63.5 22.5t63.5 -22.5t22.5 -58.5q0 -37 -22.5 -59.5t-63.5 -22.5t-63.5 22.5t-22.5 59.5zM752 1516q0 36 22 58.5t64 22.5t64 -22.5t22 -58.5 q0 -37 -22.5 -59.5t-63.5 -22.5t-63.5 22.5t-22.5 59.5z" />
<glyph unicode="&#x2c6;" horiz-adv-x="614" d="M29 1049l233 270h90l234 -270h-88l-191 178l-190 -178h-88z" />
<glyph unicode="&#x2dc;" horiz-adv-x="614" d="M20 1083q-7 91 31 138t117 47q38 0 77.5 -17.5t67 -39t62 -39t63.5 -17.5q44 0 63.5 30t14.5 72h78q7 -91 -30 -137.5t-113 -46.5q-37 0 -78 17.5t-70 39t-64 39t-63 17.5q-44 0 -63.5 -30.5t-14.5 -72.5h-78z" />
<glyph unicode="&#x2000;" horiz-adv-x="852" />
<glyph unicode="&#x2001;" horiz-adv-x="1704" />
<glyph unicode="&#x2002;" horiz-adv-x="852" />
<glyph unicode="&#x2003;" horiz-adv-x="1704" />
<glyph unicode="&#x2004;" horiz-adv-x="568" />
<glyph unicode="&#x2005;" horiz-adv-x="426" />
<glyph unicode="&#x2006;" horiz-adv-x="284" />
<glyph unicode="&#x2007;" horiz-adv-x="284" />
<glyph unicode="&#x2008;" horiz-adv-x="213" />
<glyph unicode="&#x2009;" horiz-adv-x="340" />
<glyph unicode="&#x200a;" horiz-adv-x="94" />
<glyph unicode="&#x2010;" horiz-adv-x="647" d="M74 582v90h499v-90h-499z" />
<glyph unicode="&#x2011;" horiz-adv-x="647" d="M74 582v90h499v-90h-499z" />
<glyph unicode="&#x2012;" horiz-adv-x="647" d="M74 582v90h499v-90h-499z" />
<glyph unicode="&#x2013;" horiz-adv-x="954" d="M74 582v90h807v-90h-807z" />
<glyph unicode="&#x2014;" horiz-adv-x="1568" d="M74 582v90h1421v-90h-1421z" />
<glyph unicode="&#x2018;" horiz-adv-x="448" d="M127 1022q0 95 47 179t105 142l55 -20q-38 -43 -70.5 -110.5t-32.5 -127.5q38 4 67.5 -23t29.5 -65t-27 -63t-70 -25q-52 0 -78 31.5t-26 81.5z" />
<glyph unicode="&#x2019;" horiz-adv-x="448" d="M115 930q102 133 102 237q-38 -4 -67 22.5t-29 65.5q0 38 26.5 63t69.5 25q52 0 78.5 -31t26.5 -81q0 -153 -152 -322z" />
<glyph unicode="&#x201a;" horiz-adv-x="448" d="M115 -246q102 133 102 238q-38 -4 -67 22.5t-29 65.5q0 38 26.5 63t69.5 25q52 0 78.5 -31.5t26.5 -81.5q0 -152 -152 -321z" />
<glyph unicode="&#x201c;" horiz-adv-x="737" d="M127 1022q0 95 47 179t105 142l55 -20q-38 -43 -70.5 -110.5t-32.5 -127.5q38 4 67.5 -23t29.5 -65t-27 -63t-70 -25q-52 0 -78 31.5t-26 81.5zM416 1022q0 95 46.5 179t104.5 142l56 -20q-38 -43 -70.5 -110.5t-32.5 -127.5q38 4 67 -22.5t29 -65.5q0 -38 -26.5 -63 t-69.5 -25q-52 0 -78 31.5t-26 81.5z" />
<glyph unicode="&#x201d;" horiz-adv-x="737" d="M115 930q102 133 102 237q-38 -4 -67 22.5t-29 65.5q0 38 26.5 63t69.5 25q52 0 78.5 -31t26.5 -81q0 -153 -152 -322zM403 930q103 135 103 237q-38 -4 -67 22.5t-29 65.5q0 38 26.5 63t69.5 25q52 0 78 -31t26 -81q0 -155 -151 -322z" />
<glyph unicode="&#x201e;" horiz-adv-x="737" d="M115 -246q102 133 102 238q-38 -4 -67 22.5t-29 65.5q0 38 26.5 63t69.5 25q52 0 78.5 -31.5t26.5 -81.5q0 -152 -152 -321zM403 -246q103 135 103 238q-38 -4 -67 22.5t-29 65.5q0 38 26.5 63t69.5 25q52 0 78 -31.5t26 -81.5q0 -154 -151 -321z" />
<glyph unicode="&#x2022;" horiz-adv-x="720" d="M135 649q0 94 65.5 159.5t159.5 65.5t160 -65.5t66 -159.5t-66 -159.5t-160 -65.5t-159.5 65.5t-65.5 159.5z" />
<glyph unicode="&#x2026;" horiz-adv-x="1277" d="M119 76q0 40 27 64t67 24t67 -24t27 -64t-27 -64t-67 -24t-67 24t-27 64zM545 76q0 40 27 64t67 24t67 -24t27 -64t-27 -64t-67 -24t-67 24t-27 64zM971 76q0 40 27 64t67 24t67 -24t27 -64t-27 -64t-67 -24t-67 24t-27 64z" />
<glyph unicode="&#x202f;" horiz-adv-x="340" />
<glyph unicode="&#x2039;" horiz-adv-x="532" d="M53 553l285 428h100l-286 -426l286 -424h-100z" />
<glyph unicode="&#x203a;" horiz-adv-x="532" d="M94 131l287 424l-287 426h101l284 -428l-284 -422h-101z" />
<glyph unicode="&#x205f;" horiz-adv-x="426" />
<glyph unicode="&#x20ac;" horiz-adv-x="1228" d="M127 449v86h168q-6 81 -6 86q0 57 8 104h-170v86h182q47 216 186 337.5t336 121.5q185 0 314 -117l-23 -102q-56 62 -122.5 92.5t-157.5 30.5q-163 0 -274 -93t-152 -270h520l-18 -86h-517q-6 -49 -6 -104q0 -32 4 -86h492l-19 -86h-460q37 -188 152.5 -284.5 t285.5 -96.5q175 0 289 127l22 -103q-129 -121 -321 -121q-203 0 -348.5 126.5t-186.5 351.5h-178z" />
<glyph unicode="&#x2122;" horiz-adv-x="1552" d="M66 1163v86h532v-86l-219 2v-592h-94v592zM647 573l86 676h94l226 -565l225 565h94l86 -676h-94l-47 353l-8 174l-209 -527h-94l-209 527l-9 -174l-47 -353h-94z" />
<glyph unicode="&#x25fc;" horiz-adv-x="921" d="M0 0v922h922v-922h-922z" />
</font>
</defs>
</svg>
