<?xml version="1.0" standalone="no"?>
<!DOCTYPE svg PUBLIC "-//W3C//DTD SVG 1.1//EN" "http://www.w3.org/Graphics/SVG/1.1/DTD/svg11.dtd" >
<svg xmlns="http://www.w3.org/2000/svg" xmlns:xlink="http://www.w3.org/1999/xlink" version="1.1">
<metadata></metadata>
<defs>
<font id="scgbold" horiz-adv-x="1220" >
<font-face units-per-em="2048" ascent="1638" descent="-410" />
<missing-glyph horiz-adv-x="512" />
<glyph unicode="&#xfb01;" horiz-adv-x="1345" d="M29 709v213h159v34q0 204 159 306t489 102q207 0 383 -45v-232q-198 39 -353 39q-193 0 -277.5 -34.5t-84.5 -135.5v-34h250v-211h-250v-711h-316v709h-159zM907 0v922h312v-922h-312z" />
<glyph unicode="&#xfb02;" horiz-adv-x="1345" d="M29 709v213h159v34q0 96 29.5 169t94 127.5t174 83t262.5 28.5q279 0 471 -45v-1319h-316v1128q-40 9 -143 9q-137 0 -196.5 -42t-59.5 -139v-34h250v-211h-250v-711h-316v709h-159z" />
<glyph horiz-adv-x="0" />
<glyph horiz-adv-x="682" />
<glyph unicode=" "  horiz-adv-x="512" />
<glyph unicode="&#x09;" horiz-adv-x="512" />
<glyph unicode="&#xa0;" horiz-adv-x="512" />
<glyph unicode="!" horiz-adv-x="638" d="M123 170q0 84 58 140.5t141 56.5q80 0 137 -59.5t57 -137.5q0 -84 -56 -140.5t-138 -56.5t-140.5 57.5t-58.5 139.5zM139 1249h361l-43 -778h-275z" />
<glyph unicode="&#x22;" horiz-adv-x="892" d="M106 1331h277l-37 -491h-205zM510 1331h276l-36 -491h-205z" />
<glyph unicode="#" horiz-adv-x="1335" d="M66 342v197h225l51 249h-195v199h238l70 340h204l-71 -340h295l69 340h207l-74 -340h185v-199h-226l-51 -249h195v-197h-238l-69 -342h-207l74 342h-295l-70 -342h-207l74 342h-184zM494 539h294l54 249h-295z" />
<glyph unicode="$" horiz-adv-x="1335" d="M143 119l119 221q151 -121 369 -121q233 0 233 100q0 47 -38 84.5t-99 64t-134.5 53.5t-147 60.5t-134.5 75.5t-99 108t-38 150q0 157 107 246.5t303 108.5v184h164v-182q254 -18 395 -152l-119 -205q-65 58 -137.5 87.5t-175.5 29.5q-97 0 -157 -29t-60 -81 q0 -37 38.5 -68t99.5 -56t135 -51.5t148 -63.5t135 -82.5t99.5 -117t38.5 -159.5q0 -162 -115.5 -248.5t-324.5 -100.5v-180h-164v178q-140 7 -254.5 47t-186.5 99z" />
<glyph unicode="%" horiz-adv-x="1499" d="M74 973q0 132 84.5 218.5t224.5 86.5t224.5 -86.5t84.5 -218.5q0 -130 -84.5 -215.5t-224.5 -85.5t-224.5 85.5t-84.5 215.5zM180 0l934 1249h205l-932 -1249h-207zM256 975q0 -70 31.5 -112t95.5 -42t95.5 42t31.5 112t-31 111.5t-96 41.5t-96 -41.5t-31 -111.5z M807 268q0 132 84.5 218.5t224.5 86.5t224.5 -86.5t84.5 -218.5q0 -130 -84.5 -215.5t-224.5 -85.5t-224.5 85.5t-84.5 215.5zM989 270q0 -70 31 -111.5t96 -41.5t96 41.5t31 111.5t-31.5 112t-95.5 42t-95.5 -42t-31.5 -112z" />
<glyph unicode="&#x26;" horiz-adv-x="1396" d="M61 336q0 121 61.5 197t194.5 153q-143 118 -143 289q0 141 117 224t315 83q217 0 325.5 -90.5t108.5 -263.5h-288q0 93 -36 128.5t-114 35.5q-61 0 -98 -32.5t-37 -82.5q0 -80 102 -182l363 -359q49 116 49 266h301q0 -117 -42 -234.5t-120 -215.5l264 -252h-346l-92 90 q-186 -123 -407 -123q-211 0 -344.5 100t-133.5 269zM360 352q0 -44 20 -78t53 -52t67.5 -27t70.5 -9q114 0 205 58l-291 295q-125 -85 -125 -187z" />
<glyph unicode="'" horiz-adv-x="505" d="M115 1331h276l-37 -491h-204z" />
<glyph unicode="(" horiz-adv-x="663" d="M90 539q0 310 145.5 528.5t387.5 288.5v-201q-107 -57 -173.5 -226.5t-66.5 -389.5t66.5 -390t173.5 -227v-201q-241 70 -387 289t-146 529z" />
<glyph unicode=")" horiz-adv-x="663" d="M41 -78q107 57 173.5 227t66.5 390t-66.5 389.5t-173.5 226.5v201q241 -70 386.5 -288t145.5 -529t-145.5 -529.5t-386.5 -288.5v201z" />
<glyph unicode="*" horiz-adv-x="894" d="M66 850l243 117l-243 123l110 159l193 -153l-33 235h223l-33 -235l193 153l110 -159l-243 -123l243 -117l-108 -166l-195 160l33 -238h-223l33 238l-195 -160z" />
<glyph unicode="+" horiz-adv-x="1122" d="M78 530v226h350v370h266v-370h350v-226h-350v-370h-266v370h-350z" />
<glyph unicode="," horiz-adv-x="591" d="M90 172q0 86 55 140.5t146 54.5q74 0 123.5 -33.5t68.5 -79t19 -98.5q0 -74 -23.5 -144.5t-63 -125.5t-81 -96.5t-86.5 -72.5l-127 50q129 120 129 210q-61 8 -110.5 62t-49.5 133z" />
<glyph unicode="-" horiz-adv-x="722" d="M61 481v269h601v-269h-601z" />
<glyph unicode="." horiz-adv-x="573" d="M90 170q0 84 58 140.5t141 56.5q80 0 137 -59.5t57 -137.5q0 -84 -56 -140.5t-138 -56.5t-140.5 57.5t-58.5 139.5z" />
<glyph unicode="/" horiz-adv-x="1015" d="M20 -82l730 1413h245l-729 -1413h-246z" />
<glyph unicode="0" horiz-adv-x="1335" d="M86 623q0 316 160 487.5t422 171.5q128 0 233.5 -42.5t183.5 -123.5t121 -207.5t43 -285.5q0 -160 -43 -286t-121 -207.5t-183.5 -124t-233.5 -42.5t-234 42.5t-183.5 124t-121 208t-43.5 285.5zM406 623q0 -201 60.5 -309.5t201.5 -108.5t201.5 108.5t60.5 309.5 t-60.5 309t-201.5 108t-201.5 -108t-60.5 -309z" />
<glyph unicode="1" horiz-adv-x="864" d="M45 827v265q135 -7 245 46t144 111h266v-1249h-307v940q-106 -117 -348 -113z" />
<glyph unicode="2" horiz-adv-x="1060" d="M61 0v221q175 118 286.5 205.5t176.5 160.5t90 131.5t25 123.5q0 194 -215 194q-188 0 -354 -96v270q165 72 381 72q111 0 199 -23.5t145 -63t94.5 -95t53 -115.5t15.5 -129q0 -78 -31 -155t-77 -137t-116 -122.5t-128.5 -105t-134.5 -90.5h512v-246h-922z" />
<glyph unicode="3" horiz-adv-x="1048" d="M70 35v250q53 -31 156.5 -53.5t179.5 -22.5q249 0 249 170q0 181 -350 151v226q324 0 324 149q0 135 -232 135q-81 0 -165 -19.5t-142 -53.5v245q61 28 163.5 47t217.5 19q220 0 343.5 -86t123.5 -254q0 -108 -55.5 -180t-159.5 -103v-4q118 -24 185 -101t67 -198 q0 -185 -144.5 -285t-379.5 -100q-233 0 -381 68z" />
<glyph unicode="4" horiz-adv-x="1177" d="M25 231v209l624 809h316v-782h172v-236h-172v-231h-308v231h-632zM338 467h319v420z" />
<glyph unicode="5" horiz-adv-x="1093" d="M70 31v248q62 -30 150.5 -49t176.5 -19q297 0 297 199q0 176 -305 176q-121 0 -289 -21l25 684h827v-245h-549l-8 -187q31 2 107 2q258 0 386 -111t128 -294q0 -108 -44 -194t-122.5 -140.5t-183.5 -83.5t-230 -29q-106 0 -209 19t-157 45z" />
<glyph unicode="6" horiz-adv-x="1169" d="M82 610q0 160 45 287.5t125.5 210.5t190.5 126.5t243 43.5q156 0 295 -47v-252q-102 57 -256 57q-168 0 -243.5 -84t-88.5 -239q114 102 297 102q101 0 181 -31.5t130 -86t76.5 -126.5t26.5 -155q0 -202 -127.5 -324.5t-349.5 -122.5q-256 0 -400.5 161.5t-144.5 479.5z M389 465q10 -116 71 -185t150 -69q35 0 66.5 8.5t63 29t50.5 62.5t19 101q0 78 -46.5 134t-139.5 56q-69 0 -133 -39.5t-101 -97.5z" />
<glyph unicode="7" horiz-adv-x="985" d="M25 1004v245h927v-223l-448 -1026h-336l442 1004h-585z" />
<glyph unicode="8" horiz-adv-x="1110" d="M57 328q0 107 59 188t173 117v4q-205 73 -205 295q0 153 126.5 251.5t340.5 98.5q216 0 341.5 -96.5t125.5 -253.5q0 -103 -55.5 -176t-137.5 -107v-4q118 -34 173 -112t55 -187q0 -174 -137.5 -278.5t-380.5 -104.5q-223 0 -350.5 102.5t-127.5 262.5zM352 350 q0 -80 60.5 -122t142.5 -42t142.5 42.5t60.5 127.5q0 37 -21.5 65t-61.5 47t-83 30.5t-100 21.5q-58 -22 -99 -67.5t-41 -102.5zM373 932q0 -142 250 -178q45 31 76.5 80t31.5 98q0 56 -47.5 93.5t-130.5 37.5q-39 0 -78 -12t-70.5 -43t-31.5 -76z" />
<glyph unicode="9" horiz-adv-x="1169" d="M66 831q0 202 127.5 324.5t349.5 122.5q256 0 400 -161.5t144 -479.5q0 -160 -45 -287.5t-125.5 -210.5t-190.5 -126.5t-243 -43.5q-156 0 -295 47v252q102 -57 256 -57q168 0 243.5 84.5t88.5 239.5q-115 -103 -297 -103q-101 0 -180.5 31.5t-130 86t-76.5 126.5 t-26 155zM360 836q0 -78 47 -134.5t140 -56.5q69 0 132.5 39.5t100.5 97.5q-10 116 -71 185t-150 69q-35 0 -66.5 -8.5t-63 -28.5t-50.5 -62t-19 -101z" />
<glyph unicode=":" horiz-adv-x="638" d="M123 170q0 84 58 140.5t141 56.5q80 0 137 -59.5t57 -137.5q0 -84 -56 -140.5t-138 -56.5t-140.5 57.5t-58.5 139.5zM123 852q0 84 58 140.5t141 56.5q80 0 137 -59.5t57 -137.5q0 -84 -56 -140.5t-138 -56.5t-140.5 57.5t-58.5 139.5z" />
<glyph unicode=";" horiz-adv-x="638" d="M117 172q0 86 54.5 140.5t145.5 54.5q74 0 123.5 -33.5t68.5 -79t19 -98.5q0 -74 -23.5 -144.5t-63 -125.5t-81 -96.5t-86.5 -72.5l-127 50q129 120 129 210q-61 8 -110 62t-49 133zM131 852q0 84 58 140.5t141 56.5q80 0 137 -59.5t57 -137.5q0 -84 -56 -140.5 t-138 -56.5t-140.5 57.5t-58.5 139.5z" />
<glyph unicode="&#x3c;" horiz-adv-x="1122" d="M45 584v196l954 459v-244l-688 -313l688 -313v-244z" />
<glyph unicode="=" horiz-adv-x="1122" d="M119 301v221h885v-221h-885zM119 709v221h885v-221h-885z" />
<glyph unicode="&#x3e;" horiz-adv-x="1122" d="M123 125v244l688 313l-688 313v244l954 -459v-196z" />
<glyph unicode="?" horiz-adv-x="944" d="M74 987v215q153 80 366 80q84 0 154.5 -17t130.5 -53.5t94.5 -103t34.5 -156.5q0 -205 -317 -481h-275q133 127 208 235t75 205q0 142 -172 142q-70 0 -154 -18t-145 -48zM197 170q0 84 57.5 140.5t140.5 56.5q80 0 137.5 -59.5t57.5 -137.5q0 -84 -56.5 -140.5 t-138.5 -56.5t-140 57.5t-58 139.5z" />
<glyph unicode="@" horiz-adv-x="1548" d="M86 625q0 111 30 216.5t92.5 198.5t150.5 163t212 110.5t269 40.5q183 0 326 -73.5t219.5 -199t76.5 -280.5q0 -133 -53.5 -255t-153.5 -201t-221 -79q-142 0 -160 105q-82 -105 -198 -105q-134 0 -211.5 89.5t-77.5 238.5q0 80 24 158t71 146t127.5 110.5t181.5 42.5 q65 0 118.5 -24.5t67.5 -57.5l12 63h215l-102 -518q-10 -42 -10 -68q0 -32 28 -32t63 31.5t66 82.5t52.5 126t21.5 153q0 59 -15 117.5t-51 116.5t-90 101.5t-139 71t-190 27.5q-132 0 -240 -43.5t-175.5 -111t-113.5 -153t-65 -165t-19 -152.5q0 -79 20 -153t67 -143.5 t116 -120.5t175 -82t237 -31q88 0 165 15.5t127.5 37t97 53.5t69.5 55t49 52h151q-53 -108 -158.5 -183t-234 -109t-275.5 -34q-220 0 -386.5 73t-262.5 222t-96 357zM635 602q0 -76 31 -120t79 -44q41 0 78.5 28t63.5 79l45 256q-21 43 -48 66.5t-77 23.5q-80 0 -126 -83 t-46 -206z" />
<glyph unicode="A" horiz-adv-x="1400" d="M4 0l514 1249h365l514 -1249h-334l-102 266h-519l-104 -266h-334zM541 508h319l-88 246l-70 241h-4l-69 -241z" />
<glyph unicode="B" horiz-adv-x="1251" d="M131 0v1249h549q97 0 175.5 -17.5t140.5 -54t96 -99.5t34 -148q0 -89 -42 -157.5t-103 -108.5v-5q89 -29 149 -102.5t60 -198.5q0 -94 -36.5 -164t-104.5 -112t-157.5 -62t-201.5 -20h-559zM444 240h220q32 0 57 2.5t53.5 11t47.5 23.5t31.5 42t12.5 64q0 35 -11.5 59.5 t-28 37.5t-47 20t-57 8.5t-69.5 1.5h-209v-270zM444 750h330q31 60 31 135q0 68 -35.5 96.5t-126.5 28.5h-199v-260z" />
<glyph unicode="C" horiz-adv-x="1298" d="M82 627q0 154 58.5 279.5t159 207t232.5 125t281 43.5q224 0 389 -72v-272q-153 98 -360 98q-198 0 -311 -108.5t-113 -300.5q0 -196 121.5 -307t316.5 -111q212 0 361 113v-269q-56 -36 -162 -63t-248 -27q-148 0 -277 41t-230 120.5t-159.5 208.5t-58.5 294z" />
<glyph unicode="D" horiz-adv-x="1382" d="M131 0v1249h508q144 0 263 -36.5t208.5 -109t139.5 -190t50 -270.5q0 -133 -32 -240.5t-90 -182t-141.5 -124.5t-184 -73t-219.5 -23h-502zM451 250h178q189 0 268.5 93.5t79.5 299.5q0 188 -83 272t-259 84h-184v-749z" />
<glyph unicode="E" horiz-adv-x="1089" d="M131 0v1249h873v-250h-558v-237h508v-244h-508v-268h558v-250h-873z" />
<glyph unicode="F" horiz-adv-x="1060" d="M131 0v1249h877v-250h-562v-301h525v-243h-520v-455h-320z" />
<glyph unicode="G" horiz-adv-x="1447" d="M82 602q0 162 61.5 292t169.5 214t252 129t312 45q258 0 423 -74v-268q-76 42 -189.5 69t-217.5 27q-105 0 -189.5 -24t-149.5 -73.5t-100.5 -132.5t-35.5 -194q0 -196 117.5 -297.5t318.5 -101.5q114 0 188 31v379h304v-549q-244 -111 -525 -111q-154 0 -287 40.5 t-234.5 118.5t-159.5 201.5t-58 278.5z" />
<glyph unicode="H" horiz-adv-x="1417" d="M131 0v1249h320v-481h516v481h319v-1249h-319v514h-516v-514h-320z" />
<glyph unicode="I" horiz-adv-x="589" d="M135 0v1249h320v-1249h-320z" />
<glyph unicode="J" horiz-adv-x="804" d="M41 6v248q69 -37 158 -37q84 0 121.5 36.5t37.5 127.5v868h320v-876q0 -406 -406 -406q-58 0 -124 10.5t-107 28.5z" />
<glyph unicode="K" horiz-adv-x="1290" d="M131 0v1249h311v-542l476 542h344l-508 -569l532 -680h-358l-486 631v-631h-311z" />
<glyph unicode="L" horiz-adv-x="1032" d="M131 0v1249h320v-995h528v-254h-848z" />
<glyph unicode="M" horiz-adv-x="1720" d="M66 0l141 1249h377l223 -676l51 -297h4l51 297l224 676h376l142 -1249h-320l-45 625v311h-4l-76 -297l-215 -639h-270l-215 639l-76 297h-4v-311l-45 -625h-319z" />
<glyph unicode="N" horiz-adv-x="1433" d="M131 0v1249h338l393 -590q76 -112 144 -258h4q-15 195 -15 308v540h308v-1249h-338l-394 590q-73 107 -143 258h-4q14 -182 14 -307v-541h-307z" />
<glyph unicode="O" horiz-adv-x="1581" d="M82 623q0 158 57 285t155 208t225 123.5t272 42.5t272 -42.5t224.5 -123.5t154.5 -208t57 -285t-57 -285.5t-154.5 -208t-224.5 -123.5t-272 -43t-272 43t-225 123.5t-155 208t-57 285.5zM418 623q0 -204 95 -309t278 -105t277.5 105t94.5 309t-94.5 308.5t-277.5 104.5 t-278 -104.5t-95 -308.5z" />
<glyph unicode="P" horiz-adv-x="1191" d="M131 0v1249h494q251 0 380.5 -99.5t129.5 -313.5q0 -215 -129 -314.5t-381 -99.5h-174v-422h-320zM446 664h179q84 0 142 42.5t58 129.5q0 172 -200 172h-179v-344z" />
<glyph unicode="Q" horiz-adv-x="1581" d="M82 623q0 158 57 285t155 208t225 123.5t272 42.5t272 -42.5t224.5 -123.5t154.5 -208t57 -285q0 -232 -125.5 -394t-326.5 -227q42 -43 114.5 -68.5t157.5 -25.5q58 0 127 16v-268q-85 -10 -146 -10q-184 0 -315 76t-227 241q-139 4 -260.5 49t-214.5 126t-147 206 t-54 279zM418 623q0 -204 95 -309t278 -105t277.5 105t94.5 309t-94.5 308.5t-277.5 104.5t-278 -104.5t-95 -308.5z" />
<glyph unicode="R" horiz-adv-x="1241" d="M131 0v1249h494q255 0 382.5 -95.5t127.5 -279.5q0 -232 -238 -309v-4q157 -43 205 -205l106 -356h-331l-93 313q-25 84 -68 122t-132 38h-133v-473h-320zM444 715h174q104 0 155.5 33.5t51.5 115.5t-51 113t-156 31h-174v-293z" />
<glyph unicode="S" horiz-adv-x="1081" d="M70 66v256q75 -51 191.5 -82t223.5 -31q97 0 148 25t51 90q0 44 -32.5 80t-85 63.5t-115.5 55t-126 63t-115.5 79t-85 110.5t-32.5 151q0 116 64.5 197t169 118t239.5 37q228 0 365 -70v-258q-168 86 -342 86q-81 0 -128.5 -26t-47.5 -78q0 -39 33 -73t85.5 -61 t116 -55.5t127 -65.5t116 -82.5t85.5 -115.5t33 -155q0 -89 -41 -159t-111.5 -112.5t-158.5 -64t-189 -21.5q-128 0 -255 30.5t-183 68.5z" />
<glyph unicode="T" horiz-adv-x="1171" d="M33 999v250h1106v-250l-394 5v-1004h-319v1004z" />
<glyph unicode="U" horiz-adv-x="1452" d="M123 545v704h319v-682q0 -171 66 -254.5t217 -83.5t218 83.5t67 254.5v682h319v-704q0 -310 -168 -447q-151 -125 -436 -125t-436 125q-166 135 -166 447z" />
<glyph unicode="V" horiz-adv-x="1343" d="M12 1249h344l199 -553l115 -426h4l114 426l199 553h344l-493 -1249h-332z" />
<glyph unicode="W" horiz-adv-x="2007" d="M20 1249h324l172 -540l64 -324h4l82 324l190 540h295l190 -540l82 -324h4l64 324l172 540h324l-420 -1249h-262l-205 596l-94 348h-5l-94 -348l-205 -596h-262z" />
<glyph unicode="X" horiz-adv-x="1409" d="M16 0l514 649l-473 600h355l293 -393l292 393h355l-475 -600l516 -649h-355l-333 442l-334 -442h-355z" />
<glyph unicode="Y" horiz-adv-x="1273" d="M8 1249h330l186 -327l111 -222h4l111 222l186 327h330l-469 -770v-479h-320v479z" />
<glyph unicode="Z" horiz-adv-x="1169" d="M70 0v221l628 791l-602 -4v241h965v-221l-629 -790l664 4v-242h-1026z" />
<glyph unicode="[" horiz-adv-x="704" d="M152 -279v1635h491v-219h-203v-1192h203v-224h-491z" />
<glyph unicode="\" horiz-adv-x="1015" d="M20 1331h246l729 -1413h-245z" />
<glyph unicode="]" horiz-adv-x="724" d="M82 -55h203v1192h-203v219h491v-1635h-491v224z" />
<glyph unicode="^" horiz-adv-x="1122" d="M61 516l373 733h254l373 -733h-293l-205 440l-207 -440h-295z" />
<glyph unicode="_" horiz-adv-x="798" d="M0 -125h799v-129h-799v129z" />
<glyph unicode="`" horiz-adv-x="819" d="M61 1331h328l168 -282h-207z" />
<glyph unicode="a" horiz-adv-x="1075" d="M66 264q0 88 38 153t102.5 100t136 51t151.5 16q78 0 157 -11v29q0 74 -49 106.5t-151 32.5q-69 0 -153 -19.5t-146 -51.5v217q62 30 159.5 48.5t194.5 18.5q77 0 139 -9.5t122.5 -36t100.5 -69.5t65 -114t25 -166v-559h-249l-29 115h-4q-32 -60 -114.5 -101t-188.5 -41 q-140 0 -223.5 76.5t-83.5 214.5zM348 289q0 -55 37 -82t88 -27q115 0 178 88v138q-52 10 -127 10q-176 0 -176 -127z" />
<glyph unicode="b" d="M127 0v1331h315v-483h4q117 102 287 102q185 0 295.5 -131.5t110.5 -341.5q0 -120 -33.5 -217.5t-91 -161t-132.5 -97.5t-159 -34q-110 0 -191 41t-122 107h-4l-29 -115h-250zM442 272q94 -75 195 -75q86 0 134 69t48 203q0 48 -9.5 90.5t-30 81.5t-59 61.5t-91.5 22.5 q-104 0 -187 -86v-367z" />
<glyph unicode="c" horiz-adv-x="1009" d="M78 461q0 219 150 356t388 137q96 0 176.5 -19t127.5 -46v-225q-115 75 -250 75q-131 0 -200 -71t-69 -207q0 -134 72 -208.5t193 -74.5q77 0 137.5 18.5t128.5 61.5v-221q-63 -39 -132 -56.5t-177 -17.5q-156 0 -279 58.5t-194.5 172.5t-71.5 267z" />
<glyph unicode="d" d="M82 465q0 211 116.5 350t309.5 139q82 0 153.5 -26t112.5 -64h4v467h316v-1331h-250l-29 115h-4q-97 -148 -301 -148q-196 0 -312 129t-116 369zM401 469q0 -135 49 -204.5t138 -69.5q104 0 190 92v381q-80 57 -182 57q-54 0 -94 -22.5t-61 -61.5t-30.5 -81.5t-9.5 -90.5 z" />
<glyph unicode="e" horiz-adv-x="1126" d="M78 469q0 218 134.5 351.5t369.5 133.5q113 0 204 -36.5t148.5 -98t88 -140t30.5 -165.5q0 -83 -17 -135h-661q9 -203 289 -203q155 0 321 86v-223q-161 -76 -369 -76q-268 0 -403 136.5t-135 369.5zM375 553h405q-4 98 -56 150.5t-140 52.5q-91 0 -146 -54t-63 -149z " />
<glyph unicode="f" horiz-adv-x="811" d="M29 709v213h159v73q0 181 107 273t297 92q125 0 211 -29v-223q-71 22 -129 22q-39 0 -65.5 -4.5t-52.5 -18t-39 -43t-13 -75.5v-67h270v-211h-270v-711h-316v709h-159z" />
<glyph unicode="g" horiz-adv-x="1212" d="M78 465q0 212 118 348.5t318 136.5q155 0 274 -119h5l22 91h275v-951q0 -204 -140.5 -324t-388.5 -120q-254 0 -411 70v251q83 -43 183.5 -67.5t178.5 -24.5q58 0 102 9.5t82 32.5t58 66.5t20 106.5q0 56 10 115h-4q-82 -113 -286 -113q-86 0 -161 31.5t-132 91 t-90 154.5t-33 215zM397 469q0 -134 48.5 -201t138.5 -67q57 0 102 20t88 66v372q-89 66 -180 66q-44 0 -79 -15.5t-57 -40t-36 -59t-19.5 -69t-5.5 -72.5z" />
<glyph unicode="h" horiz-adv-x="1218" d="M127 0v1331h315v-500q63 55 143 87t160 32q182 0 269.5 -98t87.5 -295v-557h-316v537q0 95 -38 134.5t-109 39.5q-103 0 -197 -62v-649h-315z" />
<glyph unicode="i" horiz-adv-x="573" d="M92 1190q0 80 49.5 125t145.5 45t145 -45t49 -125t-49 -125t-145 -45t-145.5 45t-49.5 125zM131 0v922h311v-922h-311z" />
<glyph unicode="j" horiz-adv-x="589" d="M-113 -209q61 -22 123 -22q71 0 104 35t33 128v990h312v-977q0 -410 -379 -410q-98 0 -193 33v223zM109 1190q0 80 49 125t145 45t145.5 -45t49.5 -125t-49.5 -125t-145.5 -45t-145 45t-49 125z" />
<glyph unicode="k" horiz-adv-x="1167" d="M127 0v1331h315v-809l357 400h340l-385 -420l405 -502h-354l-363 440v-440h-315z" />
<glyph unicode="l" horiz-adv-x="565" d="M127 0v1331h311v-1331h-311z" />
<glyph unicode="m" horiz-adv-x="1792" d="M123 0v922h258l29 -115h2q55 67 136.5 105t172.5 38q207 0 287 -153q57 69 148 111t183 42q166 0 251 -100t85 -295v-555h-315v526q0 103 -31 146t-96 43q-90 0 -182 -58q4 -46 4 -71v-586h-312v526q0 102 -32 145.5t-97 43.5q-92 0 -176 -53v-662h-315z" />
<glyph unicode="n" horiz-adv-x="1214" d="M123 0v922h258l29 -115h4q64 67 150 105t177 38q182 0 269.5 -98t87.5 -295v-557h-316v537q0 95 -38 134.5t-109 39.5q-103 0 -197 -62v-649h-315z" />
<glyph unicode="o" d="M78 459q0 106 36 196.5t103 157t168 104t225 37.5q248 0 390.5 -138.5t142.5 -356.5q0 -142 -62 -253.5t-184 -177t-287 -65.5q-247 0 -389.5 139t-142.5 357zM401 459q0 -135 55.5 -206t153.5 -71t153.5 71t55.5 206q0 134 -55.5 205t-153.5 71t-153.5 -71t-55.5 -205z " />
<glyph unicode="p" horiz-adv-x="1216" d="M123 -440v1362h278l25 -99h4q127 127 313 127q177 0 284.5 -132t107.5 -341q0 -120 -33.5 -217.5t-91 -161t-132.5 -97.5t-159 -34q-100 0 -173 33t-116 78h-4q12 -53 12 -141v-377h-315zM438 272q94 -75 195 -75q86 0 134 69t48 203q0 48 -9.5 90.5t-30 81.5t-59 61.5 t-91.5 22.5q-107 0 -187 -92v-361z" />
<glyph unicode="q" horiz-adv-x="1206" d="M72 465q0 212 115.5 350.5t306.5 138.5q172 0 292 -120h5l24 88h268v-1362h-319v334q0 111 14 180h-4q-43 -49 -119 -78t-151 -29q-192 0 -312 130t-120 368zM391 469q0 -136 49.5 -210.5t137.5 -74.5q57 0 102 19t88 65v387q-94 70 -184 70q-54 0 -93 -22.5t-60 -61.5 t-30.5 -81.5t-9.5 -90.5z" />
<glyph unicode="r" horiz-adv-x="839" d="M123 0v922h248l49 -197h4q44 105 121.5 164t171.5 59q43 0 90 -12v-293q-44 8 -96 8q-79 0 -150.5 -30.5t-122.5 -81.5v-539h-315z" />
<glyph unicode="s" horiz-adv-x="913" d="M74 664q0 125 106 207.5t289 82.5q87 0 173.5 -13.5t135.5 -33.5v-211q-118 56 -246 56q-80 0 -125 -20.5t-45 -53.5q0 -18 12 -32t36.5 -26t49.5 -21t64 -22q4 -1 7 -2l6 -2q49 -16 84.5 -29.5t79 -39.5t70.5 -55.5t46 -76t19 -102.5q0 -98 -57.5 -169t-150 -104.5 t-206.5 -33.5q-109 0 -201.5 15.5t-144.5 37.5v217q153 -61 278 -61q98 0 142.5 21t44.5 55q0 17 -11 30.5t-33.5 25.5t-44.5 20.5t-58.5 21.5t-59.5 23q-110 50 -149 78q-111 79 -111 217z" />
<glyph unicode="t" horiz-adv-x="874" d="M29 711v211h168l94 290h213v-290h313v-211h-313v-373q0 -76 35 -106.5t102 -30.5q108 0 176 43v-232q-92 -45 -237 -45q-211 0 -301.5 87.5t-90.5 271.5v385h-159z" />
<glyph unicode="u" horiz-adv-x="1181" d="M123 365v557h315v-537q0 -96 33 -135t102 -39q85 0 177 61v650h315v-922h-258l-29 115h-4q-131 -144 -313 -144q-175 0 -256.5 98t-81.5 296z" />
<glyph unicode="v" horiz-adv-x="1056" d="M16 922h320l106 -324l84 -352h4l84 352l107 324h319l-356 -922h-311z" />
<glyph unicode="w" horiz-adv-x="1540" d="M25 922h303l90 -320l59 -323h4l68 321l90 322h262l90 -322l68 -321h4l59 323l90 320h304l-316 -922h-276l-84 322l-68 337h-4l-68 -337l-84 -322h-276z" />
<glyph unicode="x" horiz-adv-x="1089" d="M4 0l381 479l-348 443h330l178 -263l178 263h330l-351 -443l383 -479h-337l-203 295l-203 -295h-338z" />
<glyph unicode="y" horiz-adv-x="1091" d="M16 922h312l211 -639h4l213 639h319l-467 -1100q-66 -154 -145.5 -222.5t-210.5 -68.5q-104 0 -199 31v219q55 -25 152 -25q101 0 162 144l36 92z" />
<glyph unicode="z" horiz-adv-x="991" d="M70 0v193l489 520l-467 -4v213h799v-193l-492 -520l519 4v-213h-848z" />
<glyph unicode="{" horiz-adv-x="704" d="M61 455v188q71 11 108.5 52.5t37.5 127.5v238q0 158 83.5 233.5t221.5 75.5q82 0 131 -12v-205q-27 12 -80 12q-51 0 -76.5 -33t-25.5 -106v-219q0 -111 -44 -171t-124 -87q80 -27 124 -87t44 -171v-219q0 -140 102 -140q51 0 80 13v-205q-49 -12 -131 -12 q-138 0 -221.5 75.5t-83.5 233.5v237q0 86 -37.5 128t-108.5 53z" />
<glyph unicode="|" horiz-adv-x="552" d="M147 -440v1771h259v-1771h-259z" />
<glyph unicode="}" horiz-adv-x="704" d="M61 -55q29 -13 80 -13q103 0 103 140v219q0 111 44 171t124 87q-80 27 -124 87t-44 171v219q0 139 -103 139q-53 0 -80 -12v205q49 12 132 12q138 0 221.5 -75.5t83.5 -233.5v-238q0 -86 37 -127.5t108 -52.5v-188q-71 -11 -108 -53t-37 -128v-237q0 -158 -83.5 -233.5 t-221.5 -75.5q-83 0 -132 12v205z" />
<glyph unicode="~" horiz-adv-x="962" d="M82 379v287q34 28 59 46t70.5 35t91.5 17q52 0 102.5 -20.5t84.5 -45t80.5 -45t91.5 -20.5q105 0 219 117v-287q-116 -98 -224 -98q-52 0 -102 20.5t-83.5 45t-79.5 45t-91 20.5q-58 0 -104.5 -27t-114.5 -90z" />
<glyph horiz-adv-x="921" />
<glyph unicode="&#xa1;" horiz-adv-x="638" d="M123 754q0 81 58.5 138.5t140.5 57.5t138 -56t56 -140q0 -78 -57 -137.5t-137 -59.5q-83 0 -141 56.5t-58 140.5zM139 -326l43 779h275l43 -779h-361z" />
<glyph unicode="&#xa2;" horiz-adv-x="1335" d="M211 461q0 207 147 343t381 148v174h164v-178q156 -15 232 -59v-225q-115 75 -291 75q-149 0 -229 -71t-80 -207q0 -134 83.5 -208.5t221.5 -74.5q181 0 307 80v-221q-95 -59 -244 -70v-172h-164v170q-234 18 -381 149.5t-147 346.5z" />
<glyph unicode="&#xa3;" horiz-adv-x="1335" d="M184 0v252h15q84 0 120.5 49.5t36.5 179.5v140h-170v145h170v53q0 463 500 463q129 0 262 -45v-236q-129 39 -190 39q-64 0 -106 -7t-78.5 -28t-54 -63t-17.5 -108v-68h274v-143h-274v-125q0 -98 -34 -151.5t-103 -94.5h645v-252h-996z" />
<glyph unicode="&#xa4;" horiz-adv-x="1175" d="M82 279l135 131q-61 104 -61 223q0 113 61 223l-135 133l149 150l134 -138q107 64 223 64t223 -64l133 138l150 -150l-136 -133q62 -112 62 -223q0 -117 -62 -223l136 -131l-150 -148l-133 133q-72 -36 -116 -49.5t-107 -13.5t-107 13.5t-116 49.5l-134 -133zM360 633 q0 -97 64 -165.5t164 -68.5t163.5 68.5t63.5 165.5t-63.5 166t-163.5 69t-164 -69t-64 -166z" />
<glyph unicode="&#xa5;" horiz-adv-x="1335" d="M63 1249h330l162 -327l111 -242h4l110 242l162 327h330l-340 -573h209v-152h-314v-104h314v-152h-314v-268h-319v268h-313v152h313v104h-313v152h208z" />
<glyph unicode="&#xa6;" horiz-adv-x="585" d="M164 285h258v-725h-258v725zM164 606v725h258v-725h-258z" />
<glyph unicode="&#xa7;" horiz-adv-x="1335" d="M178 455q0 106 51 190t136 143q-103 93 -103 244q0 64 24.5 118t67 91.5t98.5 64.5t118 39.5t128 12.5q104 0 202.5 -16.5t154.5 -47.5v-245q-58 37 -150.5 58t-181.5 21q-69 0 -128.5 -28t-59.5 -70q0 -36 33.5 -67t86.5 -57t117.5 -53.5t129 -64t117.5 -81.5 t86.5 -113.5t33.5 -151.5q0 -205 -189 -336q105 -95 105 -245q0 -79 -41 -143t-107.5 -103t-146 -59.5t-162.5 -20.5q-231 0 -344 64v245q59 -37 145.5 -58.5t173.5 -21.5q45 0 92.5 12t82 35.5t34.5 51.5q0 36 -33.5 67t-86.5 57t-117.5 54.5t-129 66t-117.5 82.5 t-86.5 113.5t-33.5 151.5zM453 469q0 -20 4.5 -38.5t15.5 -34.5t21.5 -29t30.5 -27t34.5 -23.5t41.5 -22.5t43 -20.5t47.5 -21.5t47.5 -21v2q125 87 125 195q0 18 -4.5 34.5t-11 30t-19.5 27.5t-23.5 24t-30.5 22.5t-33.5 20.5t-38 20t-39.5 18.5t-43 19t-43 19.5 q-125 -87 -125 -195z" />
<glyph unicode="&#xa8;" horiz-adv-x="819" d="M0 1190q0 71 41 111t125 40t125 -40t41 -111q0 -72 -41 -112t-125 -40t-125 40t-41 112zM487 1190q0 71 41 111t125 40t125 -40t41 -111q0 -72 -41 -112t-125 -40t-125 40t-41 112z" />
<glyph unicode="&#xa9;" horiz-adv-x="1497" d="M94 621q0 135 50.5 254t137 204t208 134t258.5 49q139 0 261 -49t208.5 -134t136 -204t49.5 -254q0 -180 -86.5 -327t-236.5 -229.5t-332 -82.5q-137 0 -258.5 48.5t-208 133t-137 203.5t-50.5 254zM213 621q0 -148 67 -270.5t190 -194.5t278 -72q154 0 277.5 72 t191 194.5t67.5 270.5t-65 270.5t-188.5 196t-282.5 73.5q-116 0 -217 -43t-170 -116t-108.5 -172t-39.5 -209zM367 621q0 172 120 281.5t310 109.5q161 0 243 -54v-196q-87 65 -200 65q-100 0 -157.5 -52.5t-57.5 -153.5t58.5 -154t154.5 -53q61 0 109 16.5t104 54.5v-196 q-97 -60 -248 -60q-191 0 -313.5 108t-122.5 284z" />
<glyph unicode="&#xaa;" horiz-adv-x="860" d="M53 776q0 67 27 115.5t74 74.5t100 38t115 12q95 0 131 -8v22q0 44 -30 62t-105 18q-43 0 -120.5 -15t-127.5 -38v174q41 19 128.5 32t149.5 13q78 0 139 -12t117.5 -42t87.5 -89.5t31 -145.5v-414h-227l-23 82h-4q-25 -45 -82 -73.5t-141 -28.5q-115 0 -177.5 59 t-62.5 164zM309 797q0 -32 24.5 -51t49.5 -19q74 0 117 61v89q-29 10 -80 10q-49 0 -80 -24t-31 -66z" />
<glyph unicode="&#xab;" horiz-adv-x="1187" d="M37 565l282 453h302l-283 -453l283 -452h-302zM539 565l282 453h301l-282 -453l282 -452h-301z" />
<glyph unicode="&#xac;" horiz-adv-x="1157" d="M102 721v227h973v-631h-244v404h-729z" />
<glyph unicode="&#xad;" horiz-adv-x="722" d="M61 481v269h601v-269h-601z" />
<glyph unicode="&#xae;" horiz-adv-x="1497" d="M94 621q0 135 50.5 254t137 204t208 134t258.5 49q139 0 261 -49t208.5 -134t136 -204t49.5 -254q0 -180 -86.5 -327t-236.5 -229.5t-332 -82.5q-137 0 -258.5 48.5t-208 133t-137 203.5t-50.5 254zM213 621q0 -148 67 -270.5t190 -194.5t278 -72q154 0 277.5 72 t191 194.5t67.5 270.5t-65 270.5t-188.5 196t-282.5 73.5q-116 0 -217 -43t-170 -116t-108.5 -172t-39.5 -209zM442 256v745h293q155 0 235.5 -58t80.5 -167q0 -141 -144 -186q44 -12 69.5 -42t45.5 -79l84 -213h-242l-67 193q-18 48 -30 61q-19 18 -54 18h-51v-272h-220z M662 680h49q114 0 114 86q0 46 -26.5 65t-87.5 19h-49v-170z" />
<glyph unicode="&#xaf;" horiz-adv-x="819" d="M84 1102v192h651v-192h-651z" />
<glyph unicode="&#xb0;" horiz-adv-x="671" d="M61 1106q0 106 80 182t195 76t194.5 -76t79.5 -182q0 -112 -79 -187t-195 -75t-195.5 75t-79.5 187zM227 1104q0 -49 30.5 -83t78.5 -34t78 34t30 83q0 46 -30 81.5t-78 35.5t-78.5 -35.5t-30.5 -81.5z" />
<glyph unicode="&#xb1;" horiz-adv-x="1122" d="M78 0v184h966v-184h-966zM78 612v226h350v370h266v-370h350v-226h-350v-370h-266v370h-350z" />
<glyph unicode="&#xb2;" horiz-adv-x="782" d="M78 588v178q187 105 276.5 188.5t89.5 155.5q0 78 -118 78q-108 0 -244 -58v179q121 47 264 47q334 0 334 -240q0 -106 -86.5 -193t-222.5 -151h329v-184h-622z" />
<glyph unicode="&#xb3;" horiz-adv-x="784" d="M61 614v183q34 -20 104.5 -32.5t121.5 -12.5q94 0 147 17.5t53 66.5q0 51 -54 60.5t-188 4.5h-5v146q128 0 155 4q64 11 69 58q1 5 1 11q0 36 -38 51t-130 15q-51 0 -115.5 -11.5t-107.5 -33.5v174q35 17 109 29t149 12q350 0 350 -199q0 -131 -127 -172v-4 q78 -7 115 -54t37 -108q0 -248 -379 -248q-85 0 -158.5 13.5t-108.5 29.5z" />
<glyph unicode="&#xb4;" horiz-adv-x="819" d="M262 1049l168 282h328l-289 -282h-207z" />
<glyph unicode="&#xb5;" horiz-adv-x="1181" d="M123 -440v1362h315v-650q92 -61 176 -61q69 0 102.5 39t33.5 135v537h315v-557q0 -198 -81.5 -296t-256.5 -98q-177 0 -293 125h-4q8 -65 8 -162v-374h-315z" />
<glyph unicode="&#xb6;" horiz-adv-x="1230" d="M45 846q0 132 67.5 243.5t185 176.5t257.5 65h537v-1771h-185v1583h-164v-1583h-184v800h-4q-140 0 -257.5 65t-185 177t-67.5 244z" />
<glyph unicode="&#xb7;" horiz-adv-x="573" d="M90 594q0 84 58 140.5t141 56.5q80 0 137 -59.5t57 -137.5q0 -84 -56 -140.5t-138 -56.5t-140.5 57.5t-58.5 139.5z" />
<glyph unicode="&#xb8;" horiz-adv-x="819" d="M262 -301q23 -6 86 -6q56 0 95.5 16t39.5 49q0 66 -168 66l45 190l127 -12l-8 -104q89 -5 146 -45t57 -117q0 -74 -43.5 -121t-104.5 -63.5t-139 -16.5q-71 0 -133 12v152z" />
<glyph unicode="&#xb9;" horiz-adv-x="581" d="M29 991v213q181 -11 272 135h191v-751h-228v497q-85 -97 -235 -94z" />
<glyph unicode="&#xba;" horiz-adv-x="876" d="M41 915q0 162 103.5 261.5t293.5 99.5q191 0 294.5 -99.5t103.5 -261.5q0 -164 -103 -263t-295 -99q-190 0 -293.5 99t-103.5 263zM326 915q0 -204 112 -204q113 0 113 204q0 205 -113 205q-112 0 -112 -205z" />
<glyph unicode="&#xbb;" horiz-adv-x="1187" d="M66 113l282 452l-282 453h301l282 -453l-282 -452h-301zM567 113l283 452l-283 453h301l283 -453l-283 -452h-301z" />
<glyph unicode="&#xbc;" horiz-adv-x="1744" d="M90 903v213q181 -11 272 135h191v-751h-227v497q-85 -97 -236 -94zM303 0l934 1249h205l-932 -1249h-207zM887 135v117l432 500h197v-465h122v-152h-122v-135h-228v135h-401zM1110 287h178v211z" />
<glyph unicode="&#xbd;" horiz-adv-x="1744" d="M90 903v213q181 -11 272 135h191v-751h-227v497q-85 -97 -236 -94zM283 0l934 1249h204l-932 -1249h-206zM1063 0v178q187 105 277 188.5t90 155.5q0 78 -119 78q-110 0 -244 -57v178q121 47 264 47q334 0 334 -240q0 -106 -86.5 -193t-222.5 -151h330v-184h-623z" />
<glyph unicode="&#xbe;" horiz-adv-x="1744" d="M66 532v183q34 -20 104 -32.5t121 -12.5q94 0 147.5 17.5t53.5 66.5q0 27 -14.5 42.5t-56.5 20.5t-70 5t-102 -3h-5v146q128 0 155 4q64 11 69 58q1 5 1 11q0 36 -38 51t-130 15q-51 0 -115.5 -11.5t-107.5 -33.5v174q35 17 109 29t149 12q350 0 350 -199 q0 -131 -127 -172v-4q78 -7 115 -54t37 -108q0 -248 -379 -248q-85 0 -158 13.5t-108 29.5zM344 0l934 1249h205l-932 -1249h-207zM887 135v117l432 500h197v-465h122v-152h-122v-135h-228v135h-401zM1110 287h178v211z" />
<glyph unicode="&#xbf;" horiz-adv-x="927" d="M86 -29q0 206 317 482h275q-283 -270 -283 -441q0 -141 172 -141q70 0 154 18t145 48v-216q-151 -79 -366 -79q-66 0 -124 10t-112.5 33.5t-93 60.5t-61.5 94.5t-23 130.5zM350 754q0 84 56.5 140t138.5 56t140 -57t58 -139q0 -84 -57.5 -140.5t-140.5 -56.5 q-82 0 -138.5 59.5t-56.5 137.5z" />
<glyph unicode="&#xc0;" horiz-adv-x="1400" d="M4 0l514 1249h365l514 -1249h-334l-102 266h-519l-104 -266h-334zM350 1659h328l168 -283h-207zM541 508h319l-88 246l-70 241h-4l-69 -241z" />
<glyph unicode="&#xc1;" horiz-adv-x="1400" d="M4 0l514 1249h365l514 -1249h-334l-102 266h-519l-104 -266h-334zM541 508h319l-88 246l-70 241h-4l-69 -241zM555 1376l168 283h328l-289 -283h-207z" />
<glyph unicode="&#xc2;" horiz-adv-x="1400" d="M4 0l514 1249h365l514 -1249h-334l-102 266h-519l-104 -266h-334zM365 1377l241 282h189l241 -282h-202l-133 116l-134 -116h-202zM541 508h319l-88 246l-70 241h-4l-69 -241z" />
<glyph unicode="&#xc3;" horiz-adv-x="1400" d="M4 0l514 1249h365l514 -1249h-334l-102 266h-519l-104 -266h-334zM375 1391q-8 117 37.5 190.5t146.5 73.5q50 0 95.5 -22t85.5 -44t75 -22q59 0 49 78h162q2 -53 -5.5 -98t-27.5 -84t-59.5 -61t-95.5 -22q-49 0 -94 22t-84.5 44t-73.5 22q-55 0 -49 -77h-162zM541 508 h319l-88 246l-70 241h-4l-69 -241z" />
<glyph unicode="&#xc4;" horiz-adv-x="1400" d="M4 0l514 1249h365l514 -1249h-334l-102 266h-519l-104 -266h-334zM291 1518q0 71 41 111t125 40t125 -40t41 -111q0 -72 -41 -112t-125 -40t-125 40t-41 112zM541 508h319l-88 246l-70 241h-4l-69 -241zM778 1518q0 71 41 111t125 40t125 -40t41 -111q0 -72 -41 -112 t-125 -40t-125 40t-41 112z" />
<glyph unicode="&#xc5;" horiz-adv-x="1400" d="M4 0l514 1249h365l514 -1249h-334l-102 266h-519l-104 -266h-334zM465 1518q0 89 68.5 145t167.5 56t167 -56t68 -145t-68 -145t-167 -56t-167.5 56t-68.5 145zM541 508h319l-88 246l-70 241h-4l-69 -241zM619 1518q0 -35 23 -56.5t59 -21.5t59 21.5t23 56.5t-23 56.5 t-59 21.5t-59 -21.5t-23 -56.5z" />
<glyph unicode="&#xc6;" horiz-adv-x="1861" d="M12 0l779 1249h985v-250h-537v-237h487v-244h-487v-268h537v-250h-852v266h-420l-156 -266h-336zM641 504h283v483z" />
<glyph unicode="&#xc7;" horiz-adv-x="1298" d="M82 627q0 154 58.5 279.5t159 207t232.5 125t281 43.5q224 0 389 -72v-272q-153 98 -360 98q-198 0 -311 -108.5t-113 -300.5q0 -196 121.5 -307t316.5 -111q212 0 361 113v-269q-113 -77 -353 -88l-4 -67q89 -5 146 -45t57 -117q0 -74 -43.5 -121t-104.5 -63.5 t-139 -16.5q-72 0 -133 12v152q23 -6 86 -6q56 0 95.5 16t39.5 49q0 66 -168 66l33 143q-107 8 -202.5 38t-177.5 85t-141 130t-92.5 179t-33.5 228z" />
<glyph unicode="&#xc8;" horiz-adv-x="1089" d="M131 0v1249h873v-250h-558v-237h508v-244h-508v-268h558v-250h-873zM215 1659h328l168 -282h-207z" />
<glyph unicode="&#xc9;" horiz-adv-x="1089" d="M131 0v1249h873v-250h-558v-237h508v-244h-508v-268h558v-250h-873zM399 1376l168 283h328l-289 -283h-207z" />
<glyph unicode="&#xca;" horiz-adv-x="1089" d="M131 0v1249h873v-250h-558v-237h508v-244h-508v-268h558v-250h-873zM209 1376l242 283h188l242 -283h-203l-133 117l-133 -117h-203z" />
<glyph unicode="&#xcb;" horiz-adv-x="1089" d="M131 0v1249h873v-250h-558v-237h508v-244h-508v-268h558v-250h-873zM156 1518q0 71 41 111t125 40t124.5 -39.5t40.5 -111.5t-40.5 -112t-124.5 -40t-125 40t-41 112zM643 1518q0 71 41 111t125 40t125 -40t41 -111q0 -72 -41 -112t-125 -40t-125 40t-41 112z" />
<glyph unicode="&#xcc;" horiz-adv-x="589" d="M-51 1659h327l168 -283h-206zM135 0v1249h320v-1249h-320z" />
<glyph unicode="&#xcd;" horiz-adv-x="589" d="M135 0v1249h320v-1249h-320zM154 1376l168 283h327l-289 -283h-206z" />
<glyph unicode="&#xce;" horiz-adv-x="589" d="M-37 1376l242 283h188l242 -283h-203l-133 117l-133 -117h-203zM135 0v1249h320v-1249h-320z" />
<glyph unicode="&#xcf;" horiz-adv-x="589" d="M-111 1518q0 71 41 111t125 40t125 -40t41 -111q0 -72 -41 -112t-125 -40t-125 40t-41 112zM135 0v1249h320v-1249h-320zM377 1518q0 71 41 111t125 40t125 -40t41 -111q0 -72 -41 -112t-125 -40t-125 40t-41 112z" />
<glyph unicode="&#xd0;" horiz-adv-x="1382" d="M20 539v192h111v518h508q144 0 263 -36.5t208.5 -109t139.5 -190t50 -270.5q0 -133 -32 -240.5t-90 -182t-141.5 -124.5t-184 -73t-219.5 -23h-502v539h-111zM451 250h178q189 0 268.5 93.5t79.5 299.5q0 188 -83 272t-259 84h-184v-268h262v-192h-262v-289z" />
<glyph unicode="&#xd1;" horiz-adv-x="1433" d="M131 0v1249h338l393 -590q76 -112 144 -258h4q-15 195 -15 308v540h308v-1249h-338l-394 590q-73 107 -143 258h-4q14 -182 14 -307v-541h-307zM391 1391q-8 117 37.5 190.5t146.5 73.5q50 0 95.5 -22t85.5 -44t75 -22q59 0 49 78h162q2 -53 -5.5 -97.5t-27.5 -83.5 t-59.5 -61t-95.5 -22q-49 0 -94 22t-84.5 44t-73.5 22q-55 0 -49 -78h-162z" />
<glyph unicode="&#xd2;" horiz-adv-x="1581" d="M82 623q0 158 57 285t155 208t225 123.5t272 42.5t272 -42.5t224.5 -123.5t154.5 -208t57 -285t-57 -285.5t-154.5 -208t-224.5 -123.5t-272 -43t-272 43t-225 123.5t-155 208t-57 285.5zM418 623q0 -204 95 -309t278 -105t277.5 105t94.5 309t-94.5 308.5t-277.5 104.5 t-278 -104.5t-95 -308.5zM440 1659h328l168 -282h-207z" />
<glyph unicode="&#xd3;" horiz-adv-x="1581" d="M82 623q0 158 57 285t155 208t225 123.5t272 42.5t272 -42.5t224.5 -123.5t154.5 -208t57 -285t-57 -285.5t-154.5 -208t-224.5 -123.5t-272 -43t-272 43t-225 123.5t-155 208t-57 285.5zM418 623q0 -204 95 -309t278 -105t277.5 105t94.5 309t-94.5 308.5t-277.5 104.5 t-278 -104.5t-95 -308.5zM645 1376l168 283h328l-289 -283h-207z" />
<glyph unicode="&#xd4;" horiz-adv-x="1581" d="M82 623q0 158 57 285t155 208t225 123.5t272 42.5t272 -42.5t224.5 -123.5t154.5 -208t57 -285t-57 -285.5t-154.5 -208t-224.5 -123.5t-272 -43t-272 43t-225 123.5t-155 208t-57 285.5zM418 623q0 -204 95 -309t278 -105t277.5 105t94.5 309t-94.5 308.5t-277.5 104.5 t-278 -104.5t-95 -308.5zM455 1376l241 283h189l241 -283h-202l-133 117l-134 -117h-202z" />
<glyph unicode="&#xd5;" horiz-adv-x="1581" d="M82 623q0 158 57 285t155 208t225 123.5t272 42.5t272 -42.5t224.5 -123.5t154.5 -208t57 -285t-57 -285.5t-154.5 -208t-224.5 -123.5t-272 -43t-272 43t-225 123.5t-155 208t-57 285.5zM418 623q0 -204 95 -309t278 -105t277.5 105t94.5 309t-94.5 308.5t-277.5 104.5 t-278 -104.5t-95 -308.5zM465 1391q-8 117 37.5 190.5t146.5 73.5q50 0 95.5 -22t85.5 -44t75 -22q59 0 49 78h162q2 -53 -5.5 -98t-27.5 -84t-59.5 -61t-95.5 -22q-49 0 -94 22t-84.5 44t-73.5 22q-55 0 -49 -77h-162z" />
<glyph unicode="&#xd6;" horiz-adv-x="1581" d="M82 623q0 158 57 285t155 208t225 123.5t272 42.5t272 -42.5t224.5 -123.5t154.5 -208t57 -285t-57 -285.5t-154.5 -208t-224.5 -123.5t-272 -43t-272 43t-225 123.5t-155 208t-57 285.5zM381 1518q0 71 41 111t125 40t125 -40t41 -111q0 -72 -41 -112t-125 -40t-125 40 t-41 112zM418 623q0 -204 95 -309t278 -105t277.5 105t94.5 309t-94.5 308.5t-277.5 104.5t-278 -104.5t-95 -308.5zM868 1518q0 71 41 111t125 40t125 -40t41 -111q0 -72 -41 -112t-125 -40t-125 40t-41 112z" />
<glyph unicode="&#xd7;" horiz-adv-x="1122" d="M98 360l283 283l-283 283l181 180l282 -283l283 283l180 -180l-283 -283l283 -283l-180 -180l-283 283l-282 -283z" />
<glyph unicode="&#xd8;" horiz-adv-x="1581" d="M82 623q0 158 57 285t155 208t225 123.5t272 42.5q201 0 364 -82l68 82h215l-144 -174q205 -185 205 -485q0 -158 -57 -285.5t-154.5 -208t-224.5 -123.5t-272 -43q-202 0 -367 80l-66 -80h-215l142 174q-203 184 -203 486zM418 623q0 -162 57 -254l510 624 q-79 43 -194 43q-183 0 -278 -104.5t-95 -308.5zM594 252q79 -43 197 -43q183 0 277.5 105t94.5 309q0 155 -57 254z" />
<glyph unicode="&#xd9;" horiz-adv-x="1452" d="M123 545v704h319v-682q0 -171 66 -254.5t217 -83.5t218 83.5t67 254.5v682h319v-704q0 -310 -168 -447q-151 -125 -436 -125t-436 125q-166 135 -166 447zM374 1659h328l168 -282h-207z" />
<glyph unicode="&#xda;" horiz-adv-x="1452" d="M123 545v704h319v-682q0 -171 66 -254.5t217 -83.5t218 83.5t67 254.5v682h319v-704q0 -310 -168 -447q-151 -125 -436 -125t-436 125q-166 135 -166 447zM580 1376l168 283h327l-289 -283h-206z" />
<glyph unicode="&#xdb;" horiz-adv-x="1452" d="M123 545v704h319v-682q0 -171 66 -254.5t217 -83.5t218 83.5t67 254.5v682h319v-704q0 -310 -168 -447q-151 -125 -436 -125t-436 125q-166 135 -166 447zM389 1376l242 283h188l242 -283h-203l-133 117l-133 -117h-203z" />
<glyph unicode="&#xdc;" horiz-adv-x="1452" d="M123 545v704h319v-682q0 -171 66 -254.5t217 -83.5t218 83.5t67 254.5v682h319v-704q0 -310 -168 -447q-151 -125 -436 -125t-436 125q-166 135 -166 447zM315 1518q0 71 41 111t125 40t125 -40t41 -111q0 -72 -41 -112t-125 -40t-125 40t-41 112zM803 1518q0 71 41 111 t125 40t125 -40t41 -111q0 -72 -41 -112t-125 -40t-125 40t-41 112z" />
<glyph unicode="&#xdd;" horiz-adv-x="1273" d="M8 1249h330l186 -327l111 -222h4l111 222l186 327h330l-469 -770v-479h-320v479zM491 1377l168 282h328l-289 -282h-207z" />
<glyph unicode="&#xde;" horiz-adv-x="1200" d="M131 0v1249h315v-205h179q251 0 380.5 -97t129.5 -308t-129 -308.5t-381 -97.5h-174v-233h-320zM446 475h183q54 0 97 14t73 52.5t30 97.5q0 92 -51.5 128t-148.5 36h-183v-328z" />
<glyph unicode="&#xdf;" horiz-adv-x="1269" d="M127 0v918q0 202 135.5 322t384.5 120q483 0 483 -344q0 -49 -18.5 -88.5t-45.5 -63.5t-59.5 -47t-59.5 -40t-45.5 -41t-18.5 -52q0 -30 23.5 -58t58.5 -50.5t76.5 -52.5t76.5 -62t58.5 -82t23.5 -109q0 -143 -101.5 -220t-252.5 -77q-134 0 -248 50v208q27 -15 82 -30 t104 -15q107 0 107 68q0 35 -29.5 69t-71.5 66t-84.5 69.5t-72 96.5t-29.5 131q0 60 22.5 106t54 73.5t63.5 50.5t54.5 51t22.5 61q0 50 -42 76t-113 26q-62 0 -108 -19t-71 -52t-37 -71.5t-12 -84.5v-903h-311z" />
<glyph unicode="&#xe0;" horiz-adv-x="1075" d="M66 264q0 88 38 153t102.5 100t136 51t151.5 16q78 0 157 -11v29q0 74 -49 106.5t-151 32.5q-69 0 -153 -19.5t-146 -51.5v217q62 30 159.5 48.5t194.5 18.5q77 0 139 -9.5t122.5 -36t100.5 -69.5t65 -114t25 -166v-559h-249l-29 115h-4q-32 -60 -114.5 -101t-188.5 -41 q-140 0 -223.5 76.5t-83.5 214.5zM227 1331h328l168 -282h-207zM348 289q0 -55 37 -82t88 -27q115 0 178 88v138q-52 10 -127 10q-176 0 -176 -127z" />
<glyph unicode="&#xe1;" horiz-adv-x="1075" d="M66 264q0 88 38 153t102.5 100t136 51t151.5 16q78 0 157 -11v29q0 74 -49 106.5t-151 32.5q-69 0 -153 -19.5t-146 -51.5v217q62 30 159.5 48.5t194.5 18.5q77 0 139 -9.5t122.5 -36t100.5 -69.5t65 -114t25 -166v-559h-249l-29 115h-4q-32 -60 -114.5 -101t-188.5 -41 q-140 0 -223.5 76.5t-83.5 214.5zM348 289q0 -55 37 -82t88 -27q115 0 178 88v138q-52 10 -127 10q-176 0 -176 -127zM350 1049l168 282h328l-289 -282h-207z" />
<glyph unicode="&#xe2;" horiz-adv-x="1075" d="M66 264q0 88 38 153t102.5 100t136 51t151.5 16q78 0 157 -11v29q0 74 -49 106.5t-151 32.5q-69 0 -153 -19.5t-146 -51.5v217q62 30 159.5 48.5t194.5 18.5q77 0 139 -9.5t122.5 -36t100.5 -69.5t65 -114t25 -166v-559h-249l-29 115h-4q-32 -60 -114.5 -101t-188.5 -41 q-140 0 -223.5 76.5t-83.5 214.5zM201 1049l241 282h189l241 -282h-202l-133 116l-134 -116h-202zM348 289q0 -55 37 -82t88 -27q115 0 178 88v138q-52 10 -127 10q-176 0 -176 -127z" />
<glyph unicode="&#xe3;" horiz-adv-x="1075" d="M66 264q0 88 38 153t102.5 100t136 51t151.5 16q78 0 157 -11v29q0 74 -49 106.5t-151 32.5q-69 0 -153 -19.5t-146 -51.5v217q62 30 159.5 48.5t194.5 18.5q77 0 139 -9.5t122.5 -36t100.5 -69.5t65 -114t25 -166v-559h-249l-29 115h-4q-32 -60 -114.5 -101t-188.5 -41 q-140 0 -223.5 76.5t-83.5 214.5zM213 1063q-8 117 37.5 190.5t146.5 73.5q50 0 95.5 -22t85.5 -44t75 -22q59 0 49 78h162q2 -53 -5.5 -97.5t-27.5 -83.5t-59.5 -61t-95.5 -22q-49 0 -94 22t-84.5 44t-73.5 22q-55 0 -49 -78h-162zM348 289q0 -55 37 -82t88 -27 q115 0 178 88v138q-52 10 -127 10q-176 0 -176 -127z" />
<glyph unicode="&#xe4;" horiz-adv-x="1075" d="M66 264q0 88 38 153t102.5 100t136 51t151.5 16q78 0 157 -11v29q0 74 -49 106.5t-151 32.5q-69 0 -153 -19.5t-146 -51.5v217q62 30 159.5 48.5t194.5 18.5q77 0 139 -9.5t122.5 -36t100.5 -69.5t65 -114t25 -166v-559h-249l-29 115h-4q-32 -60 -114.5 -101t-188.5 -41 q-140 0 -223.5 76.5t-83.5 214.5zM127 1190q0 71 41 111t125 40t125 -40t41 -111q0 -72 -41 -112t-125 -40t-125 40t-41 112zM348 289q0 -55 37 -82t88 -27q115 0 178 88v138q-52 10 -127 10q-176 0 -176 -127zM614 1190q0 71 41 111t125 40t125 -40t41 -111q0 -72 -41 -112 t-125 -40t-125 40t-41 112z" />
<glyph unicode="&#xe5;" horiz-adv-x="1075" d="M66 264q0 88 38 153t102.5 100t136 51t151.5 16q78 0 157 -11v29q0 74 -49 106.5t-151 32.5q-69 0 -153 -19.5t-146 -51.5v217q62 30 159.5 48.5t194.5 18.5q77 0 139 -9.5t122.5 -36t100.5 -69.5t65 -114t25 -166v-559h-249l-29 115h-4q-32 -60 -114.5 -101t-188.5 -41 q-140 0 -223.5 76.5t-83.5 214.5zM301 1190q0 89 68.5 145t167.5 56t167 -56t68 -145t-68 -145t-167 -56t-167.5 56t-68.5 145zM348 289q0 -55 37 -82t88 -27q115 0 178 88v138q-52 10 -127 10q-176 0 -176 -127zM455 1190q0 -35 23 -56.5t59 -21.5t58.5 21.5t22.5 56.5 t-22.5 56.5t-58.5 21.5t-59 -21.5t-23 -56.5z" />
<glyph unicode="&#xe6;" horiz-adv-x="1646" d="M66 264q0 71 28 127.5t72.5 92t104.5 58.5t120 32.5t123 9.5q88 0 158 -9q7 47 14 68q-34 98 -227 98q-71 0 -159 -19.5t-148 -51.5v217q61 29 168 48t206 19q203 0 314 -100q135 100 295 100q113 0 199 -36t137 -98.5t76.5 -139.5t25.5 -166q0 -83 -17 -135h-595 q5 -105 63.5 -154t192.5 -49q57 0 108.5 12.5t80.5 25.5t99 48v-223q-161 -76 -336 -76q-287 0 -389 152q-66 -76 -160 -109t-227 -33q-142 0 -234.5 76.5t-92.5 214.5zM348 289q0 -52 47 -80.5t99 -28.5q61 0 113.5 22t82.5 62q-21 67 -24 146q-39 6 -121 6 q-83 0 -140 -30.5t-57 -96.5zM961 553h339q-5 103 -42 153t-121 50q-88 0 -128 -51.5t-48 -151.5z" />
<glyph unicode="&#xe7;" horiz-adv-x="1009" d="M78 461q0 219 150 356t388 137q96 0 176.5 -19t127.5 -46v-225q-115 75 -250 75q-131 0 -200 -71t-69 -207q0 -134 72 -208.5t193 -74.5q77 0 137.5 18.5t128.5 61.5v-221q-57 -36 -117.5 -53t-155.5 -21l-4 -65q89 -5 146 -45t57 -117q0 -74 -43.5 -121t-104.5 -63.5 t-139 -16.5q-71 0 -133 12v152q23 -6 86 -6q56 0 95.5 16t39.5 49q0 66 -167 66l34 145q-201 25 -324.5 156t-123.5 336z" />
<glyph unicode="&#xe8;" horiz-adv-x="1126" d="M78 469q0 218 134.5 351.5t369.5 133.5q113 0 204 -36.5t148.5 -98t88 -140t30.5 -165.5q0 -83 -17 -135h-661q9 -203 289 -203q155 0 321 86v-223q-161 -76 -369 -76q-268 0 -403 136.5t-135 369.5zM254 1331h328l168 -282h-207zM375 553h405q-4 98 -56 150.5t-140 52.5 q-91 0 -146 -54t-63 -149z" />
<glyph unicode="&#xe9;" horiz-adv-x="1126" d="M78 469q0 218 134.5 351.5t369.5 133.5q113 0 204 -36.5t148.5 -98t88 -140t30.5 -165.5q0 -83 -17 -135h-661q9 -203 289 -203q155 0 321 86v-223q-161 -76 -369 -76q-268 0 -403 136.5t-135 369.5zM375 553h405q-4 98 -56 150.5t-140 52.5q-91 0 -146 -54t-63 -149z M377 1049l168 282h327l-288 -282h-207z" />
<glyph unicode="&#xea;" horiz-adv-x="1126" d="M78 469q0 218 134.5 351.5t369.5 133.5q113 0 204 -36.5t148.5 -98t88 -140t30.5 -165.5q0 -83 -17 -135h-661q9 -203 289 -203q155 0 321 86v-223q-161 -76 -369 -76q-268 0 -403 136.5t-135 369.5zM227 1049l242 282h188l242 -282h-203l-133 116l-133 -116h-203z M375 553h405q-4 98 -56 150.5t-140 52.5q-91 0 -146 -54t-63 -149z" />
<glyph unicode="&#xeb;" horiz-adv-x="1126" d="M78 469q0 218 134.5 351.5t369.5 133.5q113 0 204 -36.5t148.5 -98t88 -140t30.5 -165.5q0 -83 -17 -135h-661q9 -203 289 -203q155 0 321 86v-223q-161 -76 -369 -76q-268 0 -403 136.5t-135 369.5zM154 1190q0 72 40.5 111.5t124.5 39.5t125 -40t41 -111 q0 -72 -41 -112t-125 -40t-124.5 40t-40.5 112zM375 553h405q-4 98 -56 150.5t-140 52.5q-91 0 -146 -54t-63 -149zM641 1190q0 71 41 111t125 40t125 -40t41 -111q0 -72 -41 -112t-125 -40t-125 40t-41 112z" />
<glyph unicode="&#xec;" horiz-adv-x="573" d="M-60 1331h328l168 -282h-207zM131 0v922h311v-922h-311z" />
<glyph unicode="&#xed;" horiz-adv-x="573" d="M131 0v922h311v-922h-311zM145 1049l168 282h328l-289 -282h-207z" />
<glyph unicode="&#xee;" horiz-adv-x="573" d="M-45 1049l241 282h189l241 -282h-202l-133 116l-134 -116h-202zM131 0v922h311v-922h-311z" />
<glyph unicode="&#xef;" horiz-adv-x="573" d="M-119 1190q0 71 41 111t125 40t125 -40t41 -111q0 -72 -41 -112t-125 -40t-125 40t-41 112zM131 0v922h311v-922h-311zM369 1190q0 71 41 111t125 40t124.5 -39.5t40.5 -111.5t-40.5 -112t-124.5 -40t-125 40t-41 112z" />
<glyph unicode="&#xf0;" horiz-adv-x="1204" d="M74 424q0 204 140 321t386 117q74 0 127 -12q-41 85 -109 147l-305 -123v158l152 62q-95 40 -209 43v192q279 8 489 -123l318 127v-157l-184 -74q117 -117 178 -278.5t61 -352.5q0 -241 -139.5 -369.5t-382.5 -128.5q-237 0 -379.5 123.5t-142.5 327.5zM401 424 q0 -246 195 -246t195 246q0 143 -31 215q-105 34 -185 26t-127 -70t-47 -171z" />
<glyph unicode="&#xf1;" horiz-adv-x="1214" d="M123 0v922h258l29 -115h4q64 67 150 105t177 38q182 0 269.5 -98t87.5 -295v-557h-316v537q0 95 -38 134.5t-109 39.5q-103 0 -197 -62v-649h-315zM283 1063q-8 117 37.5 190.5t146.5 73.5q50 0 95.5 -22t85.5 -44t75 -22q59 0 49 78h162q2 -53 -5.5 -97.5t-27.5 -83.5 t-59.5 -61t-95.5 -22q-49 0 -94 22t-84.5 44t-73.5 22q-55 0 -49 -78h-162z" />
<glyph unicode="&#xf2;" d="M78 459q0 106 36 196.5t103 157t168 104t225 37.5q248 0 390.5 -138.5t142.5 -356.5q0 -142 -62 -253.5t-184 -177t-287 -65.5q-247 0 -389.5 139t-142.5 357zM301 1331h328l168 -282h-207zM401 459q0 -135 55.5 -206t153.5 -71t153.5 71t55.5 206q0 134 -55.5 205 t-153.5 71t-153.5 -71t-55.5 -205z" />
<glyph unicode="&#xf3;" d="M78 459q0 106 36 196.5t103 157t168 104t225 37.5q248 0 390.5 -138.5t142.5 -356.5q0 -142 -62 -253.5t-184 -177t-287 -65.5q-247 0 -389.5 139t-142.5 357zM401 459q0 -135 55.5 -206t153.5 -71t153.5 71t55.5 206q0 134 -55.5 205t-153.5 71t-153.5 -71t-55.5 -205z M424 1049l168 282h328l-289 -282h-207z" />
<glyph unicode="&#xf4;" d="M78 459q0 106 36 196.5t103 157t168 104t225 37.5q248 0 390.5 -138.5t142.5 -356.5q0 -142 -62 -253.5t-184 -177t-287 -65.5q-247 0 -389.5 139t-142.5 357zM274 1049l242 282h189l241 -282h-203l-133 116l-133 -116h-203zM401 459q0 -135 55.5 -206t153.5 -71 t153.5 71t55.5 206q0 134 -55.5 205t-153.5 71t-153.5 -71t-55.5 -205z" />
<glyph unicode="&#xf5;" d="M78 459q0 106 36 196.5t103 157t168 104t225 37.5q248 0 390.5 -138.5t142.5 -356.5q0 -142 -62 -253.5t-184 -177t-287 -65.5q-247 0 -389.5 139t-142.5 357zM285 1063q-8 117 37.5 190.5t146.5 73.5q50 0 95.5 -22t85.5 -44t75 -22q59 0 49 78h162q2 -53 -5.5 -97.5 t-27.5 -83.5t-59.5 -61t-95.5 -22q-49 0 -94 22t-84.5 44t-73.5 22q-56 0 -50 -78h-161zM401 459q0 -135 55.5 -206t153.5 -71t153.5 71t55.5 206q0 134 -55.5 205t-153.5 71t-153.5 -71t-55.5 -205z" />
<glyph unicode="&#xf6;" d="M78 459q0 106 36 196.5t103 157t168 104t225 37.5q248 0 390.5 -138.5t142.5 -356.5q0 -142 -62 -253.5t-184 -177t-287 -65.5q-247 0 -389.5 139t-142.5 357zM201 1190q0 71 41 111t125 40t124.5 -39.5t40.5 -111.5t-40.5 -112t-124.5 -40t-125 40t-41 112zM401 459 q0 -135 55.5 -206t153.5 -71t153.5 71t55.5 206q0 134 -55.5 205t-153.5 71t-153.5 -71t-55.5 -205zM688 1190q0 71 41 111t125 40t125 -40t41 -111q0 -72 -41 -112t-125 -40t-125 40t-41 112z" />
<glyph unicode="&#xf7;" horiz-adv-x="1122" d="M88 530v226h946v-226h-946zM393 281q0 71 49 118t119 47q68 0 116 -49t48 -116q0 -71 -47.5 -118.5t-116.5 -47.5t-118.5 48.5t-49.5 117.5zM393 1004q0 71 49 118t119 47q68 0 116 -49t48 -116q0 -72 -47.5 -119t-116.5 -47t-118.5 48.5t-49.5 117.5z" />
<glyph unicode="&#xf8;" d="M78 459q0 106 36 196.5t103 157t168 104t225 37.5q177 0 301 -71l64 71h147l-123 -137q144 -141 144 -358q0 -142 -62 -253.5t-184 -177t-287 -65.5q-174 0 -307 76l-67 -76h-138l123 137q-143 134 -143 359zM401 459q0 -74 19 -133l319 362q-53 47 -129 47 q-98 0 -153.5 -71t-55.5 -205zM475 231q52 -49 135 -49q98 0 153.5 71t55.5 206q0 79 -20 135z" />
<glyph unicode="&#xf9;" horiz-adv-x="1181" d="M123 365v557h315v-537q0 -96 33 -135t102 -39q85 0 177 61v650h315v-922h-258l-29 115h-4q-131 -144 -313 -144q-175 0 -256.5 98t-81.5 296zM281 1331h327l168 -282h-207z" />
<glyph unicode="&#xfa;" horiz-adv-x="1181" d="M123 365v557h315v-537q0 -96 33 -135t102 -39q85 0 177 61v650h315v-922h-258l-29 115h-4q-131 -144 -313 -144q-175 0 -256.5 98t-81.5 296zM403 1049l168 282h328l-289 -282h-207z" />
<glyph unicode="&#xfb;" horiz-adv-x="1181" d="M123 365v557h315v-537q0 -96 33 -135t102 -39q85 0 177 61v650h315v-922h-258l-29 115h-4q-131 -144 -313 -144q-175 0 -256.5 98t-81.5 296zM254 1049l242 282h188l242 -282h-203l-133 116l-133 -116h-203z" />
<glyph unicode="&#xfc;" horiz-adv-x="1181" d="M123 365v557h315v-537q0 -96 33 -135t102 -39q85 0 177 61v650h315v-922h-258l-29 115h-4q-131 -144 -313 -144q-175 0 -256.5 98t-81.5 296zM180 1190q0 71 41 111t125 40t125 -40t41 -111q0 -72 -41 -112t-125 -40t-125 40t-41 112zM668 1190q0 71 41 111t125 40 t124.5 -39.5t40.5 -111.5t-40.5 -112t-124.5 -40t-125 40t-41 112z" />
<glyph unicode="&#xfd;" horiz-adv-x="1091" d="M16 922h312l211 -639h4l213 639h319l-467 -1100q-66 -154 -145.5 -222.5t-210.5 -68.5q-104 0 -199 31v219q55 -25 152 -25q101 0 162 144l36 92zM399 1049l168 282h328l-289 -282h-207z" />
<glyph unicode="&#xfe;" d="M127 -440v1771h315v-500h4q57 57 126.5 88t175.5 31q177 0 284 -132t107 -341q0 -120 -33.5 -217.5t-91 -161t-132.5 -97.5t-159 -34q-100 0 -173 33t-116 78h-4q12 -53 12 -141v-377h-315zM442 272q94 -75 195 -75q86 0 134 69t48 203q0 48 -9.5 90.5t-30 81.5t-59 61.5 t-91.5 22.5q-107 0 -187 -92v-361z" />
<glyph unicode="&#xff;" horiz-adv-x="1091" d="M16 922h312l211 -639h4l213 639h319l-467 -1100q-66 -154 -145.5 -222.5t-210.5 -68.5q-104 0 -199 31v219q55 -25 152 -25q101 0 162 144l36 92zM135 1190q0 71 41 111t125 40t125 -40t41 -111q0 -72 -41 -112t-125 -40t-125 40t-41 112zM623 1190q0 72 40.5 111.5 t124.5 39.5t125 -40t41 -111q0 -72 -41 -112t-125 -40t-124.5 40t-40.5 112z" />
<glyph unicode="&#x152;" horiz-adv-x="1970" d="M82 623q0 158 58 283.5t157.5 203.5t227.5 119t274 41q113 0 196 -21h889v-250h-573v-237h524v-244h-524v-268h573v-250h-889q-93 -27 -196 -27q-146 0 -274 41.5t-227.5 120.5t-157.5 205t-58 283zM420 623q0 -201 97 -303.5t282 -102.5q70 0 114.5 6t81.5 27v743 q-67 33 -196 33q-185 0 -282 -100.5t-97 -302.5z" />
<glyph unicode="&#x153;" horiz-adv-x="1855" d="M78 459q0 106 36 196.5t103 157t168 104t225 37.5q251 0 363 -153q108 153 358 153q142 0 246.5 -63t154.5 -161.5t50 -215.5q0 -83 -17 -135h-649q6 -203 283 -203q86 0 158 21t157 65v-223q-155 -76 -362 -76q-274 0 -377 154q-113 -154 -365 -154q-247 0 -389.5 139 t-142.5 357zM401 459q0 -135 55.5 -206t153.5 -71t153.5 71t55.5 206q0 134 -55.5 205t-153.5 71t-153.5 -71t-55.5 -205zM1116 553h393q-5 98 -53.5 150.5t-136.5 52.5q-91 0 -143 -54t-60 -149z" />
<glyph unicode="&#x178;" horiz-adv-x="1273" d="M8 1249h330l186 -327l111 -222h4l111 222l186 327h330l-469 -770v-479h-320v479zM227 1518q0 71 41 111t125 40t125 -40t41 -111q0 -72 -41 -112t-125 -40t-125 40t-41 112zM715 1518q0 71 41 111t125 40t125 -40t41 -111q0 -72 -41 -112t-125 -40t-125 40t-41 112z" />
<glyph unicode="&#x2c6;" horiz-adv-x="819" d="M74 1049l241 282h189l241 -282h-202l-133 116l-134 -116h-202z" />
<glyph unicode="&#x2dc;" horiz-adv-x="819" d="M84 1063q-8 117 37.5 190.5t146.5 73.5q50 0 95.5 -22t85.5 -44t75 -22q59 0 49 78h162q2 -53 -5.5 -97.5t-27.5 -83.5t-59.5 -61t-95.5 -22q-49 0 -94 22t-84.5 44t-73.5 22q-55 0 -49 -78h-162z" />
<glyph unicode="&#x2000;" horiz-adv-x="859" />
<glyph unicode="&#x2001;" horiz-adv-x="1719" />
<glyph unicode="&#x2002;" horiz-adv-x="859" />
<glyph unicode="&#x2003;" horiz-adv-x="1719" />
<glyph unicode="&#x2004;" horiz-adv-x="573" />
<glyph unicode="&#x2005;" horiz-adv-x="429" />
<glyph unicode="&#x2006;" horiz-adv-x="286" />
<glyph unicode="&#x2007;" horiz-adv-x="286" />
<glyph unicode="&#x2008;" horiz-adv-x="214" />
<glyph unicode="&#x2009;" horiz-adv-x="343" />
<glyph unicode="&#x200a;" horiz-adv-x="95" />
<glyph unicode="&#x2010;" horiz-adv-x="722" d="M61 481v269h601v-269h-601z" />
<glyph unicode="&#x2011;" horiz-adv-x="722" d="M61 481v269h601v-269h-601z" />
<glyph unicode="&#x2012;" horiz-adv-x="722" d="M61 481v269h601v-269h-601z" />
<glyph unicode="&#x2013;" horiz-adv-x="1009" d="M61 500v229h887v-229h-887z" />
<glyph unicode="&#x2014;" horiz-adv-x="1726" d="M61 500v229h1604v-229h-1604z" />
<glyph unicode="&#x2018;" horiz-adv-x="514" d="M98 961q0 122 70 232.5t151 162.5l103 -39q-49 -44 -84 -105.5t-35 -107.5q49 -7 89 -50t40 -108q0 -67 -45.5 -112.5t-116.5 -45.5q-87 0 -129.5 50t-42.5 123z" />
<glyph unicode="&#x2019;" horiz-adv-x="514" d="M82 1198q0 67 45.5 112.5t116.5 45.5q88 0 130 -49.5t42 -122.5q0 -122 -69.5 -231.5t-151.5 -164.5l-103 39q49 44 84 105.5t35 107.5q-49 7 -89 50t-40 108z" />
<glyph unicode="&#x201a;" horiz-adv-x="514" d="M82 172q0 67 45.5 112.5t116.5 45.5q88 0 130 -49.5t42 -122.5q0 -122 -69.5 -231.5t-151.5 -164.5l-103 39q49 44 84 105.5t35 107.5q-49 7 -89 50t-40 108z" />
<glyph unicode="&#x201c;" horiz-adv-x="925" d="M90 961q0 122 70 232.5t151 162.5l103 -39q-49 -44 -84 -105.5t-35 -107.5q49 -7 89 -50t40 -108q0 -67 -45.5 -112.5t-116.5 -45.5q-87 0 -129.5 50t-42.5 123zM514 961q0 122 70 232.5t151 162.5l103 -39q-49 -44 -84 -105.5t-35 -107.5q49 -7 89 -50t40 -108 q0 -67 -45.5 -112.5t-116.5 -45.5q-87 0 -129.5 50t-42.5 123z" />
<glyph unicode="&#x201d;" horiz-adv-x="925" d="M78 1198q0 67 45.5 112.5t116.5 45.5q88 0 130 -49.5t42 -122.5q0 -122 -70 -231.5t-152 -164.5l-102 39q49 44 84 105.5t35 107.5q-49 7 -89 50t-40 108zM502 1198q0 67 45.5 112.5t116.5 45.5q88 0 130 -49.5t42 -122.5q0 -122 -70 -231.5t-152 -164.5l-102 39 q49 44 84 105.5t35 107.5q-49 7 -89 50t-40 108z" />
<glyph unicode="&#x201e;" horiz-adv-x="937" d="M82 172q0 67 45.5 112.5t116.5 45.5q88 0 130 -49.5t42 -122.5q0 -122 -69.5 -231.5t-151.5 -164.5l-103 39q49 44 84 105.5t35 107.5q-49 7 -89 50t-40 108zM506 172q0 67 45.5 112.5t116.5 45.5q88 0 130 -49.5t42 -122.5q0 -122 -70 -231.5t-152 -164.5l-102 39 q49 44 84 105.5t35 107.5q-49 7 -89 50t-40 108z" />
<glyph unicode="&#x2022;" horiz-adv-x="790" d="M92 645q0 123 88 213t215 90q122 0 212.5 -87.5t90.5 -215.5q0 -124 -87.5 -213.5t-215.5 -89.5q-122 0 -212.5 87.5t-90.5 215.5z" />
<glyph unicode="&#x2026;" horiz-adv-x="1720" d="M90 170q0 84 58 140.5t141 56.5q80 0 137 -59.5t57 -137.5q0 -84 -56 -140.5t-138 -56.5t-140.5 57.5t-58.5 139.5zM664 170q0 84 57.5 140.5t140.5 56.5q80 0 137.5 -59.5t57.5 -137.5q0 -84 -56.5 -140.5t-138.5 -56.5t-140 57.5t-58 139.5zM1237 170q0 84 58 140.5 t141 56.5q80 0 137 -59.5t57 -137.5q0 -84 -56 -140.5t-138 -56.5t-140.5 57.5t-58.5 139.5z" />
<glyph unicode="&#x202f;" horiz-adv-x="343" />
<glyph unicode="&#x2039;" horiz-adv-x="694" d="M41 565l283 453h301l-283 -453l283 -452h-301z" />
<glyph unicode="&#x203a;" horiz-adv-x="694" d="M70 113l282 452l-282 453h301l282 -453l-282 -452h-301z" />
<glyph unicode="&#x205f;" horiz-adv-x="429" />
<glyph unicode="&#x20ac;" horiz-adv-x="1335" d="M111 416v145h139q-2 23 -2 66q0 37 2 55h-139v145h161q37 144 127.5 248t211 155.5t259.5 51.5q113 0 205.5 -35.5t143.5 -81.5l-41 -233q-65 56 -126 83t-155 27q-98 0 -177.5 -56t-121.5 -159h379l-25 -145h-387q-2 -18 -2 -55q0 -20 4 -66h363l-27 -145h-301 q43 -100 122.5 -152.5t174.5 -52.5q55 0 99 9.5t79.5 30t58.5 39.5t56 52l41 -254q-146 -125 -356 -125q-231 0 -391.5 122t-213.5 331h-161z" />
<glyph unicode="&#x2122;" horiz-adv-x="1593" d="M41 1090v159h604v-159l-203 2v-519h-198v519zM651 573l82 676h219l133 -411l125 411h226l80 -676h-189l-35 334v97l-133 -431h-149l-138 431l2 -97l-36 -334h-187z" />
<glyph unicode="&#x25fc;" horiz-adv-x="921" d="M0 0v922h922v-922h-922z" />
</font>
</defs>
</svg>
