<?xml version="1.0" standalone="no"?>
<!DOCTYPE svg PUBLIC "-//W3C//DTD SVG 1.1//EN" "http://www.w3.org/Graphics/SVG/1.1/DTD/svg11.dtd" >
<svg xmlns="http://www.w3.org/2000/svg" xmlns:xlink="http://www.w3.org/1999/xlink" version="1.1">
<metadata></metadata>
<defs>
<font id="scgitalic" horiz-adv-x="634" >
<font-face units-per-em="2048" ascent="1638" descent="-410" />
<missing-glyph horiz-adv-x="516" />
<glyph unicode="&#xfb01;" horiz-adv-x="1122" d="M61 805l13 117h164l4 43q18 192 153 290.5t361 98.5q164 0 293 -54l-15 -124q-137 53 -280 53q-171 0 -263.5 -63.5t-105.5 -202.5l-4 -41h281l-13 -117h-276l-129 -1245h-148l129 1245h-164zM764 0l96 922h148l-97 -922h-147z" />
<glyph unicode="&#xfb02;" horiz-adv-x="1122" d="M61 805l13 117h164l4 43q19 189 146.5 289t344.5 100q181 0 316 -37l-138 -1317h-143l127 1217q-91 14 -166 14q-158 0 -244.5 -65t-99.5 -203l-4 -41h281l-13 -117h-276l-131 -1245h-148l131 1245h-164z" />
<glyph horiz-adv-x="0" />
<glyph horiz-adv-x="682" />
<glyph unicode=" "  horiz-adv-x="516" />
<glyph unicode="&#x09;" horiz-adv-x="516" />
<glyph unicode="&#xa0;" horiz-adv-x="516" />
<glyph unicode="!" horiz-adv-x="475" d="M68 90q0 54 34.5 89.5t85.5 35.5q45 0 76 -31t31 -78q0 -53 -36 -87.5t-87 -34.5q-44 0 -74 31t-30 75zM160 440l59 809h164l-109 -809h-114z" />
<glyph unicode="&#x22;" horiz-adv-x="669" d="M158 840l37 491h141l-70 -491h-108zM444 840l37 491h142l-72 -491h-107z" />
<glyph unicode="#" horiz-adv-x="1187" d="M43 367l12 118h217l109 357h-188l12 121h211l112 364h119l-112 -364h307l112 364h119l-112 -364h192l-12 -121h-215l-109 -357h191l-13 -118h-217l-110 -367h-119l110 367h-307l-110 -367h-119l113 367h-193zM391 485h307l109 357h-307z" />
<glyph unicode="$" horiz-adv-x="1187" d="M86 115l70 116q147 -122 376 -122q58 0 111 9.5t104.5 32t82 66.5t30.5 105q0 25 -8 48.5t-20.5 41.5t-33.5 36.5t-40.5 32t-50 29.5t-53 27t-57 27.5t-56.5 27.5l-30 15q-41 20 -62 31t-59.5 33.5t-60 40t-49.5 45t-43 54t-25.5 61.5t-10.5 74q0 155 110 236.5t305 89.5 l21 182h106l-20 -184q192 -12 319 -115l-67 -113q-135 101 -318 101q-305 0 -305 -193q0 -39 17.5 -71.5t64 -64.5t72 -46t95.5 -48q6 -4 10 -5.5t9.5 -4.5t10.5 -5q16 -8 59 -28.5t65.5 -32t62 -34.5t62 -40.5t51.5 -46t44 -56t26 -64.5t11 -77q0 -82 -33 -145t-92.5 -103 t-133.5 -63.5t-165 -32.5l-21 -187h-106l20 185q-118 6 -225.5 45.5t-169.5 89.5z" />
<glyph unicode="%" horiz-adv-x="1345" d="M111 0l1003 1249h117l-1002 -1249h-118zM123 938q0 147 79 240.5t216 93.5q116 0 182 -73.5t66 -192.5q0 -148 -78.5 -240t-216.5 -92q-116 0 -182 74t-66 190zM223 942q0 -86 39 -133t111 -47q91 0 141.5 66t50.5 178q0 85 -37.5 131.5t-109.5 46.5q-91 0 -143 -65.5 t-52 -176.5zM676 242q0 147 78.5 240t216.5 93q116 0 182 -73.5t66 -192.5q0 -148 -78.5 -240t-216.5 -92q-115 0 -181.5 74.5t-66.5 190.5zM776 246q0 -86 39 -133t111 -47q91 0 141.5 65.5t50.5 177.5q0 85 -37.5 131.5t-109.5 46.5q-92 0 -143.5 -65t-51.5 -176z" />
<glyph unicode="&#x26;" horiz-adv-x="1251" d="M51 307q0 70 22 128.5t65.5 106t97 84.5t129.5 76q-38 43 -62 75t-47 86.5t-23 107.5q0 133 94 218t261 85q166 0 251.5 -89t71.5 -243h-133q11 103 -34 160t-150 57q-104 0 -162.5 -47t-58.5 -129q0 -94 112 -223l381 -438q108 157 131 364h133q-26 -261 -182 -461 l201 -225h-166l-121 137q-91 -83 -185 -122.5t-222 -39.5q-175 0 -289.5 87t-114.5 245zM199 307q0 -47 17 -84t43 -59.5t61.5 -37.5t69 -20.5t67.5 -5.5q196 0 325 123l-338 393q-245 -113 -245 -309z" />
<glyph unicode="'" horiz-adv-x="399" d="M166 840l37 491h141l-72 -491h-106z" />
<glyph unicode="(" horiz-adv-x="544" d="M94 416q0 163 39.5 311.5t109 264t155 204.5t184.5 150l-11 -89q-152 -127 -245 -350.5t-93 -492.5q0 -193 50 -350t137 -246l-10 -90q-139 101 -227.5 284t-88.5 404z" />
<glyph unicode=")" horiz-adv-x="544" d="M-57 -272l8 90q153 127 245.5 349.5t92.5 491.5q0 194 -49 352t-136 246l9 89q139 -101 227 -285t88 -402q0 -165 -39.5 -313.5t-109 -264t-154 -203t-182.5 -150.5z" />
<glyph unicode="*" horiz-adv-x="847" d="M123 821l268 148l-237 149l65 84l207 -166l14 279h113l-49 -279l244 166l45 -84l-265 -149l234 -148l-64 -88l-206 170l-15 -280h-112l49 280l-244 -170z" />
<glyph unicode="+" horiz-adv-x="1015" d="M70 571l14 125h365l40 402h132l-41 -402h364l-14 -125h-365l-43 -401h-131l43 401h-364z" />
<glyph unicode="," horiz-adv-x="444" d="M16 -215q44 42 80 97t41 104q-37 2 -63.5 30.5t-26.5 73.5q0 54 34.5 89.5t88.5 35.5q58 0 84.5 -33t26.5 -82q0 -91 -61.5 -188.5t-135.5 -153.5z" />
<glyph unicode="-" d="M57 557l15 133h497l-14 -133h-498z" />
<glyph unicode="." horiz-adv-x="440" d="M47 90q0 54 35 89.5t86 35.5q45 0 75.5 -31t30.5 -78q0 -53 -35.5 -87.5t-86.5 -34.5q-44 0 -74.5 31t-30.5 75z" />
<glyph unicode="/" horiz-adv-x="907" d="M-53 -82l872 1413h133l-870 -1413h-135z" />
<glyph unicode="0" horiz-adv-x="1187" d="M92 524q0 354 150.5 552t410.5 198q206 0 323.5 -143.5t117.5 -405.5q0 -359 -143.5 -554.5t-411.5 -195.5q-203 0 -325 145.5t-122 403.5zM242 522q0 -200 73.5 -309t223.5 -109q136 0 229 81.5t135.5 219t42.5 322.5q0 200 -73.5 309t-223.5 109q-136 0 -229 -81.5 t-135.5 -219t-42.5 -322.5z" />
<glyph unicode="1" horiz-adv-x="704" d="M92 948l14 129q211 -8 349 172h131l-133 -1249h-148l117 1087q-120 -149 -330 -139z" />
<glyph unicode="2" horiz-adv-x="997" d="M18 0l13 117q375 234 548 420.5t173 371.5q0 113 -64 174.5t-196 61.5q-171 0 -338 -78l16 139q59 27 148.5 47.5t179.5 20.5q110 0 191 -30.5t126.5 -84t66.5 -117t21 -137.5q0 -93 -36.5 -183.5t-94 -166.5t-145.5 -154.5t-174.5 -140t-196.5 -129.5h582l-13 -131h-807 z" />
<glyph unicode="3" horiz-adv-x="966" d="M10 82l13 135q168 -113 339 -113q53 0 97.5 7.5t87 26.5t72 49t47.5 77.5t18 108.5q0 224 -381 213l12 125q87 -2 157 10.5t125 41.5t85.5 82t30.5 126q0 174 -248 174q-77 0 -168 -22t-160 -54l15 133q156 72 331 72q78 0 144.5 -17t119 -51.5t83 -92t30.5 -132.5 q0 -129 -73.5 -212t-182.5 -116l-2 -4q99 -22 163 -91.5t64 -182.5q0 -101 -34.5 -178.5t-96.5 -125.5t-144.5 -72t-182.5 -24q-203 0 -361 107z" />
<glyph unicode="4" horiz-adv-x="1050" d="M0 260l12 115l715 874h152l-91 -862h183l-15 -127h-182l-29 -260h-143l29 260h-631zM186 387h459l68 660z" />
<glyph unicode="5" horiz-adv-x="1021" d="M31 74l14 135q157 -105 346 -105q178 0 265 75.5t87 232.5q0 231 -303 231q-168 0 -327 -31l94 637h704l-14 -131h-569l-56 -364q125 16 187 16q209 0 320.5 -90.5t111.5 -253.5q0 -215 -131.5 -333t-362.5 -118q-114 0 -210.5 27.5t-155.5 71.5z" />
<glyph unicode="6" horiz-adv-x="1085" d="M88 500q0 186 47 335t128.5 244t189.5 145t233 50q132 0 240 -57l-15 -130q-99 60 -225 60q-182 0 -300.5 -133.5t-147.5 -378.5q59 73 164 123.5t212 50.5q180 0 272.5 -102.5t92.5 -264.5q0 -209 -127.5 -338t-316.5 -129q-215 0 -331 132t-116 393zM219 467 q0 -166 80 -265.5t231 -99.5q57 0 109 19t98 57.5t73.5 106.5t27.5 157q0 108 -58 177t-188 69q-105 0 -204.5 -52.5t-168.5 -143.5v-25z" />
<glyph unicode="7" horiz-adv-x="921" d="M98 1118l15 131h802l-12 -112l-586 -1137h-155l575 1118h-639z" />
<glyph unicode="8" horiz-adv-x="1069" d="M59 276q0 137 84.5 225t266.5 128q0 2 -2 4q-69 16 -119 45.5t-78.5 69.5t-41.5 83t-13 91q0 158 117.5 255t312.5 97q182 0 285.5 -81t103.5 -216q0 -234 -305 -340l-2 -4q133 -24 203.5 -101.5t70.5 -189.5q0 -174 -123 -270.5t-352 -96.5q-184 0 -296 81t-112 220z M203 291q0 -98 72 -147.5t202 -49.5q44 0 87 7.5t87 26t77 46t54 71.5t21 99q0 97 -76.5 150t-216.5 75q-139 -35 -223 -104.5t-84 -173.5zM293 926q0 -99 69 -152t207 -78q121 43 191.5 106.5t70.5 168.5q0 84 -63.5 135t-183.5 51q-132 0 -211.5 -65t-79.5 -166z" />
<glyph unicode="9" horiz-adv-x="1085" d="M102 795q0 218 132 348.5t339 130.5q196 0 308 -133.5t112 -392.5q0 -185 -47 -334t-129 -244t-190 -145t-232 -50q-127 0 -237 58l14 129q98 -62 223 -62q181 0 296.5 133.5t144.5 378.5q-65 -75 -163.5 -123.5t-213.5 -48.5q-93 0 -163.5 28.5t-111.5 79t-61.5 112.5 t-20.5 135zM244 809q0 -52 12.5 -94.5t39.5 -78t75.5 -55.5t115.5 -20q108 0 203.5 52t163.5 145q5 176 -69 282.5t-222 106.5q-61 0 -116 -19t-101.5 -57.5t-74 -105.5t-27.5 -156z" />
<glyph unicode=":" horiz-adv-x="514" d="M84 90q0 54 35 89.5t86 35.5q45 0 75.5 -31t30.5 -78q0 -53 -36 -87.5t-87 -34.5q-44 0 -74 31t-30 75zM164 844q0 54 35 89.5t86 35.5q45 0 75.5 -31t30.5 -78q0 -53 -36 -88t-87 -35q-44 0 -74 31t-30 76z" />
<glyph unicode=";" horiz-adv-x="514" d="M49 -215q44 42 80 97t41 104q-37 2 -63.5 30.5t-26.5 73.5q0 54 34.5 89.5t88.5 35.5q58 0 84 -33t26 -82q0 -91 -61 -188.5t-135 -153.5zM164 844q0 54 35 89.5t86 35.5q45 0 75.5 -31t30.5 -78q0 -53 -36 -88t-87 -35q-44 0 -74 31t-30 76z" />
<glyph unicode="&#x3c;" horiz-adv-x="1015" d="M57 643l13 115l888 434l-16 -131l-756 -365l678 -364l-12 -123z" />
<glyph unicode="=" horiz-adv-x="1015" d="M74 391l12 121h813l-12 -121h-813zM111 739l12 119h813l-12 -119h-813z" />
<glyph unicode="&#x3e;" horiz-adv-x="1015" d="M72 209l16 131l752 365l-676 364l10 123l795 -434l-13 -115z" />
<glyph unicode="?" horiz-adv-x="851" d="M123 1067l12 131q140 76 322 76q149 0 237 -72t88 -219q0 -255 -366 -543h-140q74 64 129.5 120t112 126.5t87 144.5t30.5 144q0 174 -195 174q-157 0 -317 -82zM188 90q0 54 35 89.5t86 35.5q45 0 76 -31t31 -78q0 -53 -36 -87.5t-87 -34.5q-44 0 -74.5 31t-30.5 75z " />
<glyph unicode="@" horiz-adv-x="1454" d="M86 557q0 122 27 236.5t85.5 217t143 179t206.5 121.5t269 45q132 0 238.5 -42.5t173.5 -115t103 -166.5t36 -201q0 -147 -48.5 -273t-134.5 -201.5t-190 -75.5q-69 0 -106 36.5t-39 94.5q-43 -58 -107 -94.5t-131 -36.5q-121 0 -185.5 75t-64.5 205q0 88 26 172.5 t74 153.5t123.5 111t166.5 42q84 0 140 -43t77 -96l43 121h112l-153 -524q-15 -63 -15 -74q0 -55 64 -55q100 0 183 136t83 322q0 94 -27.5 174.5t-82.5 145t-146.5 101t-210.5 36.5q-108 0 -200.5 -27t-158.5 -71.5t-118 -106t-84.5 -127t-53.5 -138t-29.5 -135.5 t-8.5 -122q0 -79 16.5 -150t56.5 -138t102 -115.5t159 -77.5t221 -29q180 0 308.5 64.5t205.5 167.5h86q-204 -304 -604 -304q-158 0 -280 44t-198 123.5t-114.5 184t-38.5 230.5zM496 565q0 -90 37.5 -138t99.5 -48q77 0 130 39t95 112l74 258q-5 32 -14 56.5t-27 48.5 t-49.5 37.5t-75.5 13.5q-79 0 -142 -57t-95.5 -142.5t-32.5 -179.5z" />
<glyph unicode="A" horiz-adv-x="1261" d="M-37 0l651 1249h164l383 -1249h-149l-92 307h-635l-160 -307h-162zM352 436h529l-121 408l-72 268h-4l-127 -268z" />
<glyph unicode="B" horiz-adv-x="1157" d="M80 0l133 1249h492q162 0 247.5 -68t85.5 -218q0 -100 -48.5 -182t-127.5 -132v-4q182 -65 182 -262q0 -85 -26 -152t-69.5 -110t-106 -70.5t-131 -39t-148.5 -11.5h-483zM244 127h334q52 0 92.5 5t83.5 21t71.5 43t47 74.5t18.5 112.5q0 50 -15 85.5t-37 54.5t-58.5 30 t-67.5 13.5t-76 2.5h-346zM303 696h348q113 0 174.5 65t61.5 197q0 83 -47 123.5t-160 40.5h-332z" />
<glyph unicode="C" horiz-adv-x="1200" d="M90 561q0 221 91 384t248 246t359 83q218 0 355 -74l-15 -149q-134 90 -331 90q-247 0 -400 -155t-153 -425q0 -214 120 -333t324 -119q119 0 205 32.5t174 98.5l-14 -154q-144 -111 -373 -111q-169 0 -302 69t-210.5 203.5t-77.5 313.5z" />
<glyph unicode="D" horiz-adv-x="1269" d="M80 0l133 1249h418q260 0 403.5 -136.5t143.5 -395.5q0 -349 -171.5 -533t-492.5 -184h-434zM244 133h268q258 0 386 142.5t128 439.5q0 212 -99 306.5t-302 94.5h-277z" />
<glyph unicode="E" horiz-adv-x="1001" d="M80 0l133 1249h754l-15 -133h-604l-45 -414h551l-12 -131h-551l-47 -438h604l-14 -133h-754z" />
<glyph unicode="F" horiz-adv-x="974" d="M80 0l133 1249h754l-15 -133h-604l-51 -475h565l-12 -131h-565l-56 -510h-149z" />
<glyph unicode="G" horiz-adv-x="1302" d="M90 559q0 166 58 302.5t158 226t232.5 138t282.5 48.5q234 0 375 -78l-14 -147q-148 92 -359 92q-167 0 -296 -66t-205 -199t-76 -317q0 -213 118 -330.5t312 -117.5q100 0 170 21t137 65l45 426h148l-54 -508q-191 -140 -452 -140q-256 0 -418 159t-162 425z" />
<glyph unicode="H" horiz-adv-x="1296" d="M80 0l133 1249h152l-60 -547h696l60 547h151l-133 -1249h-151l61 569h-696l-62 -569h-151z" />
<glyph unicode="I" horiz-adv-x="454" d="M84 0l133 1249h152l-133 -1249h-152z" />
<glyph unicode="J" horiz-adv-x="698" d="M-14 12l14 133q52 -34 152 -34q103 0 153.5 53.5t67.5 195.5l94 889h151l-94 -899q-23 -196 -110 -283t-244 -87q-119 0 -184 32z" />
<glyph unicode="K" horiz-adv-x="1050" d="M80 0l133 1249h147l-59 -551l580 551h178l-604 -577l489 -672h-170l-479 655l-68 -655h-147z" />
<glyph unicode="L" horiz-adv-x="923" d="M80 0l133 1249h149l-118 -1116h573l-14 -133h-723z" />
<glyph unicode="M" horiz-adv-x="1587" d="M39 0l250 1249h174l221 -823l57 -283h4l113 283l397 823h175l-17 -1249h-143l14 707l23 360h-4l-148 -340l-350 -727h-146l-194 727l-78 340h-4l-55 -360l-133 -707h-156z" />
<glyph unicode="N" horiz-adv-x="1306" d="M80 0l133 1249h152l395 -669q120 -200 213 -404h4q0 168 24 369l74 704h150l-133 -1249h-150l-395 670q-124 204 -215 403h-4q0 -142 -27 -368l-74 -705h-147z" />
<glyph unicode="O" horiz-adv-x="1462" d="M90 557q0 164 54.5 300.5t148.5 227t219.5 140t267.5 49.5q123 0 230 -39.5t187 -112t125.5 -183.5t45.5 -247q0 -170 -53.5 -307t-147 -226t-219 -136.5t-272.5 -47.5q-122 0 -229 40t-186.5 113.5t-125 184t-45.5 244.5zM244 557q0 -216 115 -332t315 -116 q241 0 390.5 154.5t149.5 426.5q0 214 -116.5 332.5t-315.5 118.5q-116 0 -214.5 -39.5t-170.5 -113t-112.5 -184.5t-40.5 -247z" />
<glyph unicode="P" horiz-adv-x="1110" d="M80 0l133 1249h420q426 0 426 -354q0 -215 -124.5 -322.5t-352.5 -107.5h-303l-50 -465h-149zM293 596h287q164 0 245.5 71t81.5 228q0 119 -67 171t-205 52h-287z" />
<glyph unicode="Q" horiz-adv-x="1462" d="M90 557q0 164 54.5 300.5t148.5 227t219.5 140t267.5 49.5q123 0 230 -39.5t187 -112t125.5 -183.5t45.5 -247q0 -153 -43.5 -280t-121.5 -215t-183.5 -142.5t-231.5 -70.5q59 -191 259 -191q122 0 229 74l-16 -150q-105 -51 -232 -51q-131 0 -229.5 75.5t-147.5 233.5 q-117 4 -219 45.5t-178 115t-120 182.5t-44 239zM244 557q0 -216 115 -332t315 -116q241 0 390.5 154.5t149.5 426.5q0 214 -116.5 332.5t-315.5 118.5q-116 0 -214.5 -39.5t-170.5 -113t-112.5 -184.5t-40.5 -247z" />
<glyph unicode="R" horiz-adv-x="1142" d="M80 0l133 1249h428q414 0 414 -317q0 -155 -76 -253t-254 -136v-4q209 -206 324 -539h-148q-101 317 -319 530h-297l-56 -530h-149zM299 662h272q169 0 251.5 62t82.5 206q0 106 -68.5 147t-215.5 41h-273z" />
<glyph unicode="S" horiz-adv-x="1005" d="M33 100l14 136q162 -132 389 -132q57 0 104.5 10t91 33.5t68.5 68.5t25 108q0 20 -4.5 39t-10 34t-18.5 31t-23 27.5t-29.5 26t-32 23t-38 22.5t-38.5 21t-42.5 22t-42.5 22q-124 65 -161 90q-140 96 -151 233q-1 12 -1 25q0 170 119 252t326 82q175 0 315 -64l-14 -135 q-151 70 -306 70q-145 0 -216.5 -45.5t-71.5 -147.5q0 -30 8.5 -56t30 -50t40 -41.5t57 -40t60.5 -34.5t70 -36q131 -66 180 -102q148 -106 148 -260q0 -182 -120 -269.5t-329 -87.5q-127 0 -230 36t-167 89z" />
<glyph unicode="T" horiz-adv-x="1085" d="M100 1116l15 133h987l-15 -133l-417 2l-119 -1118h-152l119 1118z" />
<glyph unicode="U" horiz-adv-x="1329" d="M133 535l76 714h151l-73 -700q-6 -57 -7 -107q0 -150 58 -228q76 -102 272 -103q194 0 293.5 103.5t124.5 334.5l74 700h149l-75 -714q-26 -275 -158.5 -417.5t-403.5 -142.5q-270 0 -390 142q-97 114 -97 316q0 48 6 102z" />
<glyph unicode="V" horiz-adv-x="1206" d="M100 1249h152l225 -792l68 -316h2l137 316l389 792h164l-625 -1249h-155z" />
<glyph unicode="W" horiz-adv-x="1855" d="M109 1249h149l162 -774l43 -303h4l113 303l333 774h148l170 -774l49 -303h4l109 303l323 774h162l-535 -1249h-143l-184 854l-37 242h-4l-86 -242l-369 -854h-141z" />
<glyph unicode="X" horiz-adv-x="1232" d="M-29 0l559 641l-399 608h160l332 -510l440 510h174l-541 -616l420 -633h-158l-350 537l-463 -537h-174z" />
<glyph unicode="Y" horiz-adv-x="1185" d="M104 1249h150l207 -409l117 -248h8l168 248l295 409h163l-559 -766l-51 -483h-151l51 483z" />
<glyph unicode="Z" horiz-adv-x="1089" d="M20 0l13 117l801 1005l-670 -4l14 131h850l-12 -116l-801 -1004l727 2l-14 -131h-908z" />
<glyph unicode="[" horiz-adv-x="552" d="M86 -279l172 1635h311l-12 -119h-172l-147 -1395h172l-13 -121h-311z" />
<glyph unicode="\" horiz-adv-x="907" d="M96 1331h135l572 -1413h-133z" />
<glyph unicode="]" horiz-adv-x="552" d="M-39 -279l12 121h174l148 1395h-174l12 119h311l-172 -1635h-311z" />
<glyph unicode="^" horiz-adv-x="1007" d="M74 516l432 733h119l280 -733h-123l-221 600l-348 -600h-139z" />
<glyph unicode="_" horiz-adv-x="700" d="M-90 -207l10 82h701l-11 -82h-700z" />
<glyph unicode="`" d="M205 1331h162l127 -282h-95z" />
<glyph unicode="a" horiz-adv-x="1077" d="M72 385q0 266 136 413.5t396 147.5q148 0 352 -78l-90 -868h-116l4 199q-33 -86 -116.5 -155t-199.5 -69q-169 0 -267.5 101.5t-98.5 308.5zM221 395q0 -154 63.5 -225.5t174.5 -71.5q51 0 96.5 20t82 57t63.5 76.5t55 92.5l47 434q-98 43 -197 43q-102 0 -178 -34.5 t-120 -95.5t-65.5 -135t-21.5 -161z" />
<glyph unicode="b" horiz-adv-x="1097" d="M86 84l129 1247h147l-63 -596q49 95 140 153t206 58q171 0 256.5 -109.5t85.5 -297.5q0 -154 -34.5 -265.5t-98 -175.5t-143.5 -93.5t-181 -29.5q-237 0 -444 109zM238 156q116 -58 301 -58q128 0 213.5 107.5t85.5 318.5q0 141 -53.5 220t-166.5 79q-99 0 -186 -68 t-147 -169z" />
<glyph unicode="c" horiz-adv-x="954" d="M72 422q0 146 63 264.5t184.5 189t280.5 70.5q172 0 283 -69l-15 -129q-116 79 -264 79q-169 0 -276 -115t-107 -290q0 -144 79.5 -236t207.5 -92q97 0 168 27.5t145 89.5l-14 -131q-127 -105 -303 -105q-198 0 -315 124t-117 323z" />
<glyph unicode="d" horiz-adv-x="1097" d="M72 385q0 247 130.5 404t342.5 157q94 0 159.5 -30t124.5 -85l50 500h145l-139 -1331h-117l4 199q-16 -39 -44 -76.5t-68 -71.5t-96.5 -55t-119.5 -21q-169 0 -270.5 102t-101.5 308zM221 395q0 -153 67 -225t179 -72q57 0 104.5 19.5t84.5 57.5t63 76.5t55 92.5l41 367 q-56 58 -117.5 84t-152.5 26q-102 0 -177.5 -61t-111 -156t-35.5 -209z" />
<glyph unicode="e" horiz-adv-x="1046" d="M72 408q0 151 63 272.5t186 193.5t287 72q156 0 245 -75.5t89 -194.5q0 -322 -731 -322q15 -262 321 -262q90 0 163.5 31t160.5 102l-14 -135q-59 -55 -142.5 -85t-171.5 -30q-225 0 -340.5 118.5t-115.5 314.5zM213 457q107 0 205 11t189.5 34.5t146.5 69t55 106.5 q0 145 -205 145q-177 0 -280 -103.5t-111 -262.5z" />
<glyph unicode="f" horiz-adv-x="706" d="M61 805l13 117h164l8 92q17 170 108 256t246 86q87 0 158 -29l-15 -123q-67 27 -135 27q-101 0 -152.5 -50.5t-64.5 -172.5l-10 -86h299l-12 -117h-295l-129 -1245h-148l129 1245h-164z" />
<glyph unicode="g" horiz-adv-x="1077" d="M59 -346l15 135q58 -33 97 -51t110.5 -35.5t150.5 -17.5q141 0 206 58t89 220l27 236q-33 -86 -116.5 -155t-199.5 -69q-169 0 -267.5 101.5t-98.5 308.5q0 266 136 413.5t396 147.5q148 0 352 -78l-92 -915q-23 -207 -121.5 -299t-296.5 -92q-215 0 -387 92zM221 395 q0 -154 63.5 -225.5t174.5 -71.5q51 0 96.5 20t82 57t63.5 76.5t55 92.5l47 434q-98 43 -197 43q-102 0 -178 -34.5t-120 -95.5t-65.5 -135t-21.5 -161z" />
<glyph unicode="h" horiz-adv-x="1124" d="M76 0l139 1331h147l-61 -600q75 95 174.5 155t220.5 60q131 0 210 -85t79 -236q0 -16 -4 -62l-59 -563h-150l59 569q1 8 2 20t2 20.5t1 15.5q0 194 -154 194q-66 0 -125 -19t-108.5 -55t-85.5 -72t-76 -85l-64 -588h-147z" />
<glyph unicode="i" horiz-adv-x="436" d="M76 0l98 922h148l-99 -922h-147zM168 1176q0 52 30.5 84t88.5 32q49 0 73.5 -24.5t24.5 -67.5q0 -52 -31 -83.5t-90 -31.5q-47 0 -71.5 25.5t-24.5 65.5z" />
<glyph unicode="j" horiz-adv-x="454" d="M-176 -434l10 117q59 -19 92 -19q74 0 107.5 35.5t44.5 122.5l115 1100h147l-115 -1088q-4 -40 -9.5 -70t-23.5 -75t-44.5 -74.5t-76 -51.5t-114.5 -22q-63 0 -133 25zM186 1180q0 51 31.5 81.5t87.5 30.5q46 0 71 -25t25 -67q0 -51 -30.5 -83t-85.5 -32q-49 0 -74 26 t-25 69z" />
<glyph unicode="k" horiz-adv-x="937" d="M76 0l139 1331h147l-83 -801l434 392h188l-469 -416l404 -506h-160l-402 498l-51 -498h-147z" />
<glyph unicode="l" horiz-adv-x="432" d="M76 0l139 1331h145l-139 -1331h-145z" />
<glyph unicode="m" horiz-adv-x="1658" d="M72 0l96 922h125v-191q136 215 350 215q103 0 166 -57.5t84 -159.5q146 217 364 217q265 0 265 -284q0 -22 -4 -72l-62 -590h-145l61 580q4 46 4 63q0 91 -36 133.5t-115 42.5q-98 0 -181 -64t-143 -157l-63 -598h-148l62 580q4 46 4 67q0 89 -32 130.5t-103 41.5 q-183 0 -336 -221l-64 -598h-149z" />
<glyph unicode="n" horiz-adv-x="1116" d="M72 0l96 922h125l-4 -199q75 95 179.5 159t229.5 64q145 0 220 -93q60 -75 60 -205q0 -31 -3 -66l-62 -582h-145l59 563q3 30 3 57q0 88 -32 136q-42 63 -128 63q-83 0 -157 -34t-126 -82.5t-104 -118.5l-62 -584h-149z" />
<glyph unicode="o" horiz-adv-x="1140" d="M72 408q0 149 63 271t183.5 194.5t275.5 72.5q198 0 318 -121t120 -307q0 -155 -64.5 -278t-184.5 -194t-275 -71q-200 0 -318 119t-118 314zM221 418q0 -144 78 -234t211 -90q161 0 266 116.5t105 295.5q0 143 -79 232t-212 89q-160 0 -264.5 -116t-104.5 -293z" />
<glyph unicode="p" horiz-adv-x="1093" d="M25 -440l143 1362h129l2 -195q60 96 150.5 157.5t205.5 61.5q107 0 182.5 -55.5t109.5 -144t34 -201.5q0 -269 -128 -419.5t-331 -150.5q-163 0 -291 134l-57 -549h-149zM250 240q70 -142 266 -142q141 0 230.5 117t89.5 330q0 278 -209 278q-203 0 -344 -241z" />
<glyph unicode="q" horiz-adv-x="1077" d="M72 385q0 266 136 413.5t396 147.5q148 0 352 -78l-135 -1308h-141l74 639q-33 -86 -116.5 -155t-199.5 -69q-169 0 -267.5 101.5t-98.5 308.5zM221 395q0 -154 63.5 -225.5t174.5 -71.5q51 0 96.5 20t82 57t63.5 76.5t55 92.5l47 434q-98 43 -197 43q-102 0 -178 -34.5 t-120 -95.5t-65.5 -135t-21.5 -161z" />
<glyph unicode="r" horiz-adv-x="735" d="M72 0l96 922h121l-2 -246h4q36 62 69.5 104.5t85.5 83.5q50 42 120 59q44 11 95 10q30 0 62 -3l-18 -152h-18q-57 0 -107 -11q-58 -13 -98.5 -34t-80 -57t-66 -70.5t-59.5 -83.5l-55 -522h-149z" />
<glyph unicode="s" horiz-adv-x="821" d="M23 70l12 129q62 -45 148 -75t177 -30q108 0 152.5 32.5t44.5 106.5q0 64 -50.5 105t-172.5 84q-52 18 -91.5 39t-76.5 51.5t-56.5 74.5t-19.5 99q0 120 92.5 190t268.5 70q146 0 254 -57l-15 -121q-108 61 -231 61q-234 0 -234 -135q0 -26 11.5 -48.5t27.5 -38.5 t46 -32.5t54.5 -26.5t65.5 -26q35 -14 53.5 -22t51 -24.5t51 -30.5t42 -37t36 -47t21.5 -57t9 -71q0 -127 -87 -192.5t-242 -65.5q-93 0 -190.5 29t-151.5 66z" />
<glyph unicode="t" horiz-adv-x="763" d="M61 805l13 117h166l69 290h103l-31 -290h338l-12 -117h-338l-54 -492q-4 -50 -4 -67q0 -82 32.5 -117t107.5 -35q106 0 190 64l-12 -123q-85 -60 -199 -60q-132 0 -197 63.5t-65 197.5q0 19 4 65l53 504h-164z" />
<glyph unicode="u" horiz-adv-x="1087" d="M98 268q0 33 2 56l64 598h149l-61 -578q-4 -46 -4 -55q0 -96 41 -141.5t112 -45.5q213 0 365 238l63 582h148l-96 -922h-123l2 199h-4q-32 -48 -64.5 -84.5t-77 -70t-102 -51.5t-125.5 -18q-133 0 -211 74.5t-78 218.5z" />
<glyph unicode="v" horiz-adv-x="950" d="M68 922h147l131 -496l68 -295h4l127 295l237 496h158l-461 -922h-143z" />
<glyph unicode="w" horiz-adv-x="1456" d="M76 922h139l115 -566l26 -217h4l82 217l242 566h137l123 -566l31 -217h4l78 217l231 566h150l-400 -922h-139l-123 575q-7 36 -16.5 105.5t-16.5 105.5h-4q-24 -74 -75 -211l-244 -575h-137z" />
<glyph unicode="x" horiz-adv-x="976" d="M-35 0l426 475l-305 447h162l231 -355l307 355h162l-397 -447l326 -475h-166l-252 381l-328 -381h-166z" />
<glyph unicode="y" horiz-adv-x="974" d="M-61 -428l14 125q73 -41 158 -41q52 0 81 33t70 121l92 190l-286 922h141l153 -523l70 -262h4l135 293l240 492h154l-582 -1137q-26 -51 -39 -74.5t-35.5 -59t-39.5 -51t-42 -33t-53.5 -24t-64.5 -6.5q-86 0 -170 35z" />
<glyph unicode="z" horiz-adv-x="894" d="M6 0l10 106l611 695l-512 -2l12 123h690l-10 -107l-612 -694l563 2l-13 -123h-739z" />
<glyph unicode="{" horiz-adv-x="552" d="M59 494l11 98q67 5 107.5 49t51.5 145l37 340q11 106 72 169t158 63q46 0 88 -17l-11 -106q-40 12 -67 12q-53 0 -78 -30.5t-35 -118.5l-35 -322q-10 -99 -52.5 -152.5t-115.5 -80.5q66 -27 98 -81t21 -153l-35 -321q-10 -87 9 -118.5t73 -31.5q28 0 72 12l-12 -106 q-43 -16 -92 -16q-97 0 -145.5 62.5t-37.5 168.5l37 340q10 101 -21 145.5t-98 49.5z" />
<glyph unicode="|" horiz-adv-x="471" d="M57 -440l189 1771h127l-189 -1771h-127z" />
<glyph unicode="}" horiz-adv-x="552" d="M-53 -256l10 106q44 -12 70 -12q52 0 77 31t35 119l35 321q11 100 53.5 153.5t114.5 80.5q-66 27 -97.5 80.5t-21.5 152.5l33 322q10 87 -9 118t-71 31q-28 0 -72 -12l13 106q42 17 92 17q95 0 143 -63t37 -169l-37 -340q-11 -100 21 -144.5t100 -49.5l-12 -98 q-142 -10 -160 -195l-35 -340q-11 -105 -72 -168t-157 -63q-53 0 -90 16z" />
<glyph unicode="~" horiz-adv-x="894" d="M82 512l16 145q31 26 55.5 43t65.5 32.5t82 15.5q46 0 88 -18.5t69.5 -41t66.5 -41t79 -18.5q99 0 205 106l-16 -145q-115 -92 -203 -92q-37 0 -71 12.5t-60 31t-51.5 36.5t-56 30.5t-62.5 12.5q-53 0 -98 -25.5t-109 -83.5z" />
<glyph horiz-adv-x="874" />
<glyph unicode="&#xa1;" horiz-adv-x="475" d="M55 -328l111 809h115l-62 -809h-164zM145 811q0 55 36.5 91t88.5 36q44 0 72.5 -29t28.5 -75q0 -54 -37 -89.5t-88 -35.5q-44 0 -72.5 29t-28.5 73z" />
<glyph unicode="&#xa2;" horiz-adv-x="1187" d="M168 422q0 214 140.5 358t373.5 164l18 182h107l-19 -180q145 -8 256 -74l-14 -122q-116 79 -289 79q-193 0 -308.5 -114t-115.5 -291q0 -146 92.5 -238t254.5 -92q160 0 317 94l-14 -127q-134 -76 -283 -84l-16 -182h-107l17 185q-192 17 -301 138.5t-109 303.5z" />
<glyph unicode="&#xa3;" horiz-adv-x="1187" d="M104 0l13 121q106 69 145.5 136.5t52.5 172.5l25 234h-164l8 100h166l12 113q20 186 145.5 290.5t315.5 104.5q69 0 136 -13.5t104 -33.5l-14 -127q-84 47 -213 47q-138 0 -223.5 -69t-102.5 -202l-12 -110h342l-9 -100h-344l-24 -238q-18 -184 -174 -295h698l-14 -131 h-869z" />
<glyph unicode="&#xa4;" horiz-adv-x="1146" d="M135 256l129 129q-82 109 -82 244q0 132 80 241l-127 127l84 82l127 -127q109 82 242 82q132 0 241 -82l127 127l84 -82l-127 -127q80 -109 80 -241q0 -135 -82 -244l129 -129l-84 -82l-127 129q-116 -80 -241 -80q-126 0 -242 80l-127 -129zM293 629q0 -124 85.5 -212.5 t209.5 -88.5t209.5 88.5t85.5 212.5t-85.5 212.5t-209.5 88.5t-209.5 -88.5t-85.5 -212.5z" />
<glyph unicode="&#xa5;" horiz-adv-x="1189" d="M133 1249h152l303 -620h8l432 620h160l-457 -614h242l-10 -100h-301l-15 -125h301l-10 -101h-301l-33 -309h-151l32 309h-303l11 101h303l14 125h-303l10 100h240z" />
<glyph unicode="&#xa6;" horiz-adv-x="524" d="M207 285h139v-725h-139v725zM207 606v725h139v-725h-139z" />
<glyph unicode="&#xa7;" horiz-adv-x="1187" d="M131 442q0 117 73.5 210t203.5 159q-111 97 -111 231q0 150 114.5 228t288.5 78q75 0 162 -17t142 -39l-17 -133q-143 62 -285 62q-116 0 -191 -43.5t-75 -124.5q0 -38 18.5 -71t57 -62t72.5 -48.5t90 -46.5q135 -70 188 -108q153 -113 154 -262q0 -60 -24.5 -117 t-70.5 -105.5t-87 -82.5t-97 -72q111 -94 111 -228q0 -76 -31 -135.5t-85.5 -96.5t-124 -56t-150.5 -19q-91 0 -179 16t-139 40l17 141q144 -70 303 -70q120 0 186 43t66 127q0 50 -32 91.5t-83 72.5t-113 61t-124 65t-113 75.5t-83 101.5t-32 135zM272 453q0 -32 9.5 -60 t31.5 -53t41.5 -43t56.5 -39.5t58.5 -33t63.5 -32.5q19 -9 28 -14l70 -35q243 159 243 301q0 20 -5 39.5t-12 35.5t-21.5 32.5t-26 28.5t-33 27t-35 24t-39.5 23t-39 20.5t-41.5 20.5t-39.5 20l-68 33q-111 -53 -176.5 -128t-65.5 -167z" />
<glyph unicode="&#xa8;" d="M57 1176q0 51 28.5 81.5t82.5 30.5q46 0 69 -23t23 -63q0 -51 -26.5 -81.5t-83.5 -30.5q-46 0 -69.5 24t-23.5 62zM487 1176q0 52 28 82t83 30q46 0 70 -24t24 -64q0 -49 -28.5 -79.5t-83.5 -30.5q-46 0 -69.5 24t-23.5 62z" />
<glyph unicode="&#xa9;" horiz-adv-x="1499" d="M117 621q0 133 49.5 250.5t135 201.5t206 133t256.5 49t256.5 -49t206 -133t135 -201.5t49.5 -250.5t-49.5 -251t-135 -202t-206 -133t-256.5 -49t-256.5 49t-206 133t-135 202t-49.5 251zM207 621q0 -242 156 -397.5t401 -155.5q244 0 401.5 155.5t157.5 397.5 q0 241 -156.5 398t-402.5 157q-161 0 -288.5 -72t-198 -198.5t-70.5 -284.5zM385 621q0 168 115 278.5t297 110.5q136 0 239 -56v-108q-113 67 -233 67q-132 0 -208.5 -80.5t-76.5 -211.5q0 -130 79 -213.5t208 -83.5q125 0 237 67v-106q-94 -58 -245 -58q-183 0 -297.5 111 t-114.5 283z" />
<glyph unicode="&#xaa;" horiz-adv-x="833" d="M113 860q0 191 107 301.5t288 110.5q112 0 268 -62l-67 -637h-111l2 136q-23 -60 -85.5 -107t-147.5 -47q-112 0 -183 76.5t-71 228.5zM244 866q0 -102 39.5 -151t99.5 -49q148 0 221 186l31 287q-72 26 -127 26q-132 0 -198 -86t-66 -213z" />
<glyph unicode="&#xab;" horiz-adv-x="890" d="M39 555l317 434h142l-318 -432l226 -430h-142zM389 555l316 434h143l-320 -432l228 -430h-144z" />
<glyph unicode="&#xac;" horiz-adv-x="1050" d="M131 772l14 125h813l-59 -541h-137l45 416h-676z" />
<glyph unicode="&#xad;" horiz-adv-x="667" d="M86 557v133h524v-133h-524z" />
<glyph unicode="&#xae;" horiz-adv-x="1499" d="M117 621q0 133 49.5 250.5t135 201.5t206 133t256.5 49t256.5 -49t206 -133t135 -201.5t49.5 -250.5t-49.5 -251t-135 -202t-206 -133t-256.5 -49t-256.5 49t-206 133t-135 202t-49.5 251zM207 621q0 -242 156 -397.5t401 -155.5q244 0 401.5 155.5t157.5 397.5 q0 241 -156.5 398t-402.5 157q-161 0 -288.5 -72t-198 -198.5t-70.5 -284.5zM500 256v745h280q135 0 205 -53.5t70 -152.5q0 -74 -40 -120t-104 -67v-2q46 -17 68.5 -43.5t40.5 -81.5l72 -225h-127l-64 209q-13 38 -24.5 56t-39 30t-75.5 12h-141v-307h-121zM621 662h81 q37 0 55 0.5t47.5 2.5t44 7t33.5 14.5t28 23.5t15.5 34.5t6.5 48.5q0 75 -45 94.5t-187 19.5h-79v-245z" />
<glyph unicode="&#xaf;" d="M96 1102l13 112h540l-12 -112h-541z" />
<glyph unicode="&#xb0;" horiz-adv-x="626" d="M123 1098q0 110 74.5 183t185.5 73q96 0 158.5 -63t62.5 -156q0 -111 -74 -186t-186 -75q-97 0 -159 64.5t-62 159.5zM217 1098q0 -61 35 -98t96 -37q71 0 116.5 47t45.5 120q0 62 -35 100t-96 38q-71 0 -116.5 -48.5t-45.5 -121.5z" />
<glyph unicode="&#xb1;" horiz-adv-x="1015" d="M10 0l10 106h861l-11 -106h-860zM74 592l12 125h365l43 401h131l-43 -401h364l-12 -125h-365l-43 -404h-131l43 404h-364z" />
<glyph unicode="&#xb2;" horiz-adv-x="720" d="M80 588l10 88q223 126 334 237.5t111 219.5q0 127 -158 127q-103 0 -213 -50l8 97q118 45 215 45q134 0 195 -58t61 -159q0 -130 -100 -240t-275 -211h342l-12 -96h-518z" />
<glyph unicode="&#xb3;" horiz-adv-x="700" d="M80 641l10 100q109 -71 236 -71q86 0 133 32t47 113q0 130 -242 119l8 84q124 -2 187 29.5t63 113.5q0 96 -153 96q-48 0 -111 -13.5t-102 -33.5l8 95q96 47 217 47q109 0 177.5 -47.5t68.5 -139.5q0 -73 -38 -115.5t-106 -68.5v-2q59 -19 95 -65.5t36 -110.5 q0 -111 -76.5 -169.5t-213.5 -58.5q-73 0 -139 18t-105 48z" />
<glyph unicode="&#xb4;" d="M219 1049l184 282h177l-252 -282h-109z" />
<glyph unicode="&#xb5;" horiz-adv-x="1089" d="M25 -440l143 1362h149l-67 -643q106 -177 293 -177q102 0 160 57.5t71 184.5l62 578h145l-63 -598q-18 -172 -109 -260.5t-229 -88.5q-124 0 -208.5 50.5t-133.5 128.5h-5q-3 -28 -7 -85t-7 -85l-45 -424h-149z" />
<glyph unicode="&#xb6;" horiz-adv-x="1075" d="M94 856q0 127 66.5 237t178.5 174t241 64h405l-186 -1771h-117l172 1632h-168l-172 -1632h-117l95 897h-5q-169 0 -281 116t-112 283z" />
<glyph unicode="&#xb7;" horiz-adv-x="446" d="M106 586q0 54 35 89.5t86 35.5q45 0 76 -31t31 -78q0 -53 -36 -88t-87 -35q-44 0 -74.5 31.5t-30.5 75.5z" />
<glyph unicode="&#xb8;" d="M104 -395l11 102q56 -18 112 -18q119 0 119 80q0 77 -170 81l49 164l76 -8q-14 -55 -18 -96q77 -5 126.5 -39t49.5 -104q0 -50 -21 -86.5t-56.5 -55.5t-74.5 -28t-82 -9q-55 0 -121 17z" />
<glyph unicode="&#xb9;" horiz-adv-x="507" d="M96 1124l10 103q74 -4 127 24t97 86h94l-80 -749h-108l63 616q-37 -46 -85.5 -64t-117.5 -16z" />
<glyph unicode="&#xba;" horiz-adv-x="823" d="M86 881q0 165 107 278t278 113q147 0 235.5 -91.5t88.5 -230.5q0 -168 -106.5 -280.5t-278.5 -112.5q-147 0 -235.5 92t-88.5 232zM217 883q0 -103 51.5 -165.5t145.5 -62.5q109 0 178.5 83.5t69.5 209.5q0 102 -49 164t-144 62q-109 0 -180.5 -83.5t-71.5 -207.5z" />
<glyph unicode="&#xbb;" horiz-adv-x="890" d="M29 127l315 430l-225 432h141l223 -434l-313 -428h-141zM379 127l317 430l-227 432h141l224 -434l-314 -428h-141z" />
<glyph unicode="&#xbc;" horiz-adv-x="1476" d="M166 1036l10 103q74 -4 126.5 24t96.5 86h95l-80 -749h-109l64 616q-37 -46 -85.5 -64t-117.5 -16zM182 0l1024 1249h115l-1020 -1249h-119zM748 152l8 73l450 525h103l-56 -510h117l-8 -88h-117l-16 -152h-109l17 152h-389zM885 240h260l39 358z" />
<glyph unicode="&#xbd;" horiz-adv-x="1476" d="M123 0l1024 1249h115l-1020 -1249h-119zM166 1036l10 103q74 -4 126.5 24t96.5 86h95l-80 -749h-109l64 616q-37 -46 -85.5 -64t-117.5 -16zM793 0l10 88q222 126 333 237.5t111 219.5q0 127 -157 127q-105 0 -213 -49l8 96q117 45 215 45q134 0 195 -58t61 -159 q0 -130 -100 -240t-275 -211h342l-12 -96h-518z" />
<glyph unicode="&#xbe;" horiz-adv-x="1476" d="M70 551l10 100q109 -71 235 -71q86 0 133.5 32t47.5 113q0 130 -242 119l8 84q124 -2 187 29.5t63 113.5q0 96 -154 96q-48 0 -111 -13.5t-102 -33.5l9 94q98 48 217 48q109 0 177 -47t68 -140q0 -74 -37.5 -116t-105.5 -68v-2q59 -19 95 -65.5t36 -110.5 q0 -111 -77 -169.5t-214 -58.5q-73 0 -138.5 18t-104.5 48zM217 0l1024 1249h115l-1020 -1249h-119zM748 152l8 73l450 525h103l-56 -510h117l-8 -88h-117l-16 -152h-109l17 152h-389zM885 240h260l39 358z" />
<glyph unicode="&#xbf;" horiz-adv-x="837" d="M29 -74q0 67 25 135.5t58.5 121.5t89.5 114t96 97.5t99 86.5h138q-73 -64 -128.5 -120t-111.5 -127t-86.5 -144t-30.5 -143q0 -172 193 -172q171 0 317 71l-12 -122q-152 -74 -336 -74q-141 0 -226 69.5t-85 206.5zM395 813q0 54 37.5 89.5t89.5 35.5q44 0 74.5 -29 t30.5 -75q0 -54 -39 -89.5t-92 -35.5q-43 0 -72 30t-29 74z" />
<glyph unicode="&#xc0;" horiz-adv-x="1261" d="M-37 0l651 1249h164l383 -1249h-149l-92 307h-635l-160 -307h-162zM352 436h529l-121 408l-72 268h-4l-127 -268zM463 1659h162l127 -283h-95z" />
<glyph unicode="&#xc1;" horiz-adv-x="1261" d="M-37 0l651 1249h164l383 -1249h-149l-92 307h-635l-160 -307h-162zM352 436h529l-121 408l-72 268h-4l-127 -268zM621 1376l184 283h176l-252 -283h-108z" />
<glyph unicode="&#xc2;" horiz-adv-x="1261" d="M-37 0l651 1249h164l383 -1249h-149l-92 307h-635l-160 -307h-162zM352 436h529l-121 408l-72 268h-4l-127 -268zM430 1377l252 272h108l197 -272h-102l-152 163l-184 -163h-119z" />
<glyph unicode="&#xc3;" horiz-adv-x="1261" d="M-37 0l651 1249h164l383 -1249h-149l-92 307h-635l-160 -307h-162zM352 436h529l-121 408l-72 268h-4l-127 -268zM432 1407q5 95 48.5 149t121.5 54q37 0 72 -16.5t57.5 -37t52.5 -37t58 -16.5q36 0 57 27t21 69h94q-5 -95 -47.5 -148.5t-122.5 -53.5q-37 0 -72.5 16.5 t-59 36.5t-53.5 36.5t-57 16.5q-72 0 -76 -96h-94z" />
<glyph unicode="&#xc4;" horiz-adv-x="1261" d="M-37 0l651 1249h164l383 -1249h-149l-92 307h-635l-160 -307h-162zM352 436h529l-121 408l-72 268h-4l-127 -268zM403 1504q0 51 28.5 81.5t82.5 30.5q46 0 69 -23t23 -63q0 -51 -26.5 -81.5t-83.5 -30.5q-46 0 -69.5 24t-23.5 62zM833 1504q0 52 28 82t83 30 q46 0 70 -24t24 -64q0 -49 -28.5 -79.5t-83.5 -30.5q-46 0 -69.5 24t-23.5 62z" />
<glyph unicode="&#xc5;" horiz-adv-x="1261" d="M-37 0l651 1249h164l383 -1249h-149l-92 307h-635l-160 -307h-162zM352 436h529l-121 408l-72 268h-4l-127 -268zM522 1506q0 88 58 145t155 57q85 0 138 -48.5t53 -121.5q0 -89 -58 -146.5t-155 -57.5q-85 0 -138 49t-53 123zM616 1510q0 -43 26.5 -70t70.5 -27 q54 0 86 32.5t32 86.5q0 43 -26 69.5t-70 26.5q-54 0 -86.5 -32t-32.5 -86z" />
<glyph unicode="&#xc6;" horiz-adv-x="1703" d="M-33 0l920 1249h782l-14 -133h-592l-45 -414h538l-14 -131h-538l-46 -438h592l-14 -133h-737l32 303h-479l-221 -303h-164zM444 432h402l69 653z" />
<glyph unicode="&#xc7;" horiz-adv-x="1200" d="M90 561q0 221 91 384t248 246t359 83q218 0 355 -74l-15 -149q-134 90 -331 90q-247 0 -400 -155t-153 -425q0 -214 120 -333t324 -119q119 0 205 32.5t174 98.5l-14 -154q-144 -111 -373 -111q-169 0 -302 69t-210.5 203.5t-77.5 313.5zM498 -395l10 102q56 -18 113 -18 q118 0 118 80q0 77 -170 81l49 164l76 -8q-14 -55 -18 -96q77 -5 126.5 -39t49.5 -104q0 -50 -21 -86.5t-56.5 -55.5t-74.5 -28t-82 -9q-54 0 -120 17z" />
<glyph unicode="&#xc8;" horiz-adv-x="1001" d="M80 0l133 1249h754l-15 -133h-604l-45 -414h551l-12 -131h-551l-47 -438h604l-14 -133h-754zM412 1659h162l127 -282h-95z" />
<glyph unicode="&#xc9;" horiz-adv-x="1001" d="M80 0l133 1249h754l-15 -133h-604l-45 -414h551l-12 -131h-551l-47 -438h604l-14 -133h-754zM412 1376l184 283h176l-252 -283h-108z" />
<glyph unicode="&#xca;" horiz-adv-x="1001" d="M80 0l133 1249h754l-15 -133h-604l-45 -414h551l-12 -131h-551l-47 -438h604l-14 -133h-754zM299 1376l252 273h108l197 -273h-102l-152 164l-184 -164h-119z" />
<glyph unicode="&#xcb;" horiz-adv-x="1001" d="M80 0l133 1249h754l-15 -133h-604l-45 -414h551l-12 -131h-551l-47 -438h604l-14 -133h-754zM274 1503q0 51 28.5 82t82.5 31q46 0 69 -23t23 -63q0 -51 -26.5 -82t-83.5 -31q-45 0 -69 23.5t-24 62.5zM705 1503q0 52 27.5 82.5t82.5 30.5q46 0 70 -24t24 -64 q0 -50 -28.5 -80.5t-83.5 -30.5q-45 0 -68.5 23.5t-23.5 62.5z" />
<glyph unicode="&#xcc;" horiz-adv-x="454" d="M84 0l133 1249h152l-133 -1249h-152zM104 1659h162l127 -283h-94z" />
<glyph unicode="&#xcd;" horiz-adv-x="454" d="M84 0l133 1249h152l-133 -1249h-152zM236 1376l184 283h176l-252 -283h-108z" />
<glyph unicode="&#xce;" horiz-adv-x="454" d="M31 1376l252 273h108l197 -273h-103l-151 164l-184 -164h-119zM84 0l133 1249h152l-133 -1249h-152z" />
<glyph unicode="&#xcf;" horiz-adv-x="454" d="M8 1503q0 51 28.5 82t82.5 31q46 0 69 -23t23 -63q0 -51 -27 -82t-84 -31q-45 0 -68.5 23.5t-23.5 62.5zM84 0l133 1249h152l-133 -1249h-152zM438 1503q0 52 28 82.5t83 30.5q46 0 70 -24t24 -64q0 -49 -29 -80t-84 -31q-45 0 -68.5 23.5t-23.5 62.5z" />
<glyph unicode="&#xd0;" horiz-adv-x="1269" d="M20 571l13 115h119l61 563h418q260 0 403.5 -136.5t143.5 -395.5q0 -349 -171.5 -533t-492.5 -184h-434l59 571h-119zM244 133h268q258 0 386 142.5t128 439.5q0 212 -99 306.5t-302 94.5h-277l-47 -430h295l-12 -115h-295z" />
<glyph unicode="&#xd1;" horiz-adv-x="1306" d="M80 0l133 1249h152l395 -669q120 -200 213 -404h4q0 168 24 369l74 704h150l-133 -1249h-150l-395 670q-124 204 -215 403h-4q0 -142 -27 -368l-74 -705h-147zM455 1407q5 95 48.5 149t121.5 54q37 0 72 -16.5t57.5 -36.5t52.5 -36.5t58 -16.5q36 0 56.5 27t20.5 69h95 q-5 -95 -47.5 -149t-122.5 -54q-37 0 -72.5 16.5t-59 37t-53.5 37t-57 16.5q-72 0 -76 -97h-94z" />
<glyph unicode="&#xd2;" horiz-adv-x="1462" d="M90 557q0 164 54.5 300.5t148.5 227t219.5 140t267.5 49.5q123 0 230 -39.5t187 -112t125.5 -183.5t45.5 -247q0 -170 -53.5 -307t-147 -226t-219 -136.5t-272.5 -47.5q-122 0 -229 40t-186.5 113.5t-125 184t-45.5 244.5zM244 557q0 -216 115 -332t315 -116 q241 0 390.5 154.5t149.5 426.5q0 214 -116.5 332.5t-315.5 118.5q-116 0 -214.5 -39.5t-170.5 -113t-112.5 -184.5t-40.5 -247zM623 1659h162l127 -282h-95z" />
<glyph unicode="&#xd3;" horiz-adv-x="1462" d="M90 557q0 164 54.5 300.5t148.5 227t219.5 140t267.5 49.5q123 0 230 -39.5t187 -112t125.5 -183.5t45.5 -247q0 -170 -53.5 -307t-147 -226t-219 -136.5t-272.5 -47.5q-122 0 -229 40t-186.5 113.5t-125 184t-45.5 244.5zM244 557q0 -216 115 -332t315 -116 q241 0 390.5 154.5t149.5 426.5q0 214 -116.5 332.5t-315.5 118.5q-116 0 -214.5 -39.5t-170.5 -113t-112.5 -184.5t-40.5 -247zM700 1376l185 283h176l-252 -283h-109z" />
<glyph unicode="&#xd4;" horiz-adv-x="1462" d="M90 557q0 164 54.5 300.5t148.5 227t219.5 140t267.5 49.5q123 0 230 -39.5t187 -112t125.5 -183.5t45.5 -247q0 -170 -53.5 -307t-147 -226t-219 -136.5t-272.5 -47.5q-122 0 -229 40t-186.5 113.5t-125 184t-45.5 244.5zM244 557q0 -216 115 -332t315 -116 q241 0 390.5 154.5t149.5 426.5q0 214 -116.5 332.5t-315.5 118.5q-116 0 -214.5 -39.5t-170.5 -113t-112.5 -184.5t-40.5 -247zM530 1376l252 273h109l196 -273h-102l-151 164l-185 -164h-119z" />
<glyph unicode="&#xd5;" horiz-adv-x="1462" d="M90 557q0 164 54.5 300.5t148.5 227t219.5 140t267.5 49.5q123 0 230 -39.5t187 -112t125.5 -183.5t45.5 -247q0 -170 -53.5 -307t-147 -226t-219 -136.5t-272.5 -47.5q-122 0 -229 40t-186.5 113.5t-125 184t-45.5 244.5zM244 557q0 -216 115 -332t315 -116 q241 0 390.5 154.5t149.5 426.5q0 214 -116.5 332.5t-315.5 118.5q-116 0 -214.5 -39.5t-170.5 -113t-112.5 -184.5t-40.5 -247zM532 1407q5 95 48.5 149t121.5 54q37 0 72 -16.5t57.5 -37t52.5 -37t58 -16.5q36 0 57 27t21 69h94q-5 -95 -47.5 -148.5t-122.5 -53.5 q-37 0 -72.5 16.5t-59 36.5t-53.5 36.5t-57 16.5q-71 0 -75 -96h-95z" />
<glyph unicode="&#xd6;" horiz-adv-x="1462" d="M90 557q0 164 54.5 300.5t148.5 227t219.5 140t267.5 49.5q123 0 230 -39.5t187 -112t125.5 -183.5t45.5 -247q0 -170 -53.5 -307t-147 -226t-219 -136.5t-272.5 -47.5q-122 0 -229 40t-186.5 113.5t-125 184t-45.5 244.5zM244 557q0 -216 115 -332t315 -116 q241 0 390.5 154.5t149.5 426.5q0 214 -116.5 332.5t-315.5 118.5q-116 0 -214.5 -39.5t-170.5 -113t-112.5 -184.5t-40.5 -247zM504 1503q0 51 28 82t82 31q46 0 69.5 -23t23.5 -63q0 -51 -27 -82t-84 -31q-45 0 -68.5 23.5t-23.5 62.5zM934 1503q0 52 27.5 82.5t82.5 30.5 q46 0 70.5 -24t24.5 -64q0 -49 -29 -80t-84 -31q-45 0 -68.5 23.5t-23.5 62.5z" />
<glyph unicode="&#xd7;" horiz-adv-x="1015" d="M94 326l322 307l-258 309l96 94l264 -309l324 309l80 -94l-326 -309l262 -307l-100 -95l-260 310l-328 -310z" />
<glyph unicode="&#xd8;" horiz-adv-x="1462" d="M70 -37l170 189q-150 153 -150 405q0 164 54.5 300.5t148.5 227t219.5 140t267.5 49.5q219 0 371 -113l109 121h129l-166 -184q145 -158 145 -406q0 -170 -53.5 -307t-147 -226t-219 -136.5t-272.5 -47.5q-211 0 -365 111l-6 -6l-104 -117h-131zM244 557q0 -184 90 -301 l723 803q-110 82 -275 82q-116 0 -214.5 -39.5t-170.5 -113t-112.5 -184.5t-40.5 -247zM401 186q109 -77 273 -77q241 0 390.5 154.5t149.5 426.5q0 185 -88 301z" />
<glyph unicode="&#xd9;" horiz-adv-x="1345" d="M133 535l76 714h151l-73 -700q-25 -233 51.5 -335.5t271.5 -102.5q194 0 293.5 103.5t124.5 334.5l74 700h149l-75 -714q-26 -275 -158.5 -417.5t-403.5 -142.5q-269 0 -389.5 142t-91.5 418zM545 1659h162l127 -283h-95z" />
<glyph unicode="&#xda;" horiz-adv-x="1345" d="M133 535l76 714h151l-73 -700q-25 -233 51.5 -335.5t271.5 -102.5q194 0 293.5 103.5t124.5 334.5l74 700h149l-75 -714q-26 -275 -158.5 -417.5t-403.5 -142.5q-269 0 -389.5 142t-91.5 418zM662 1376l184 283h176l-252 -283h-108z" />
<glyph unicode="&#xdb;" horiz-adv-x="1345" d="M133 535l76 714h151l-73 -700q-25 -233 51.5 -335.5t271.5 -102.5q194 0 293.5 103.5t124.5 334.5l74 700h149l-75 -714q-26 -275 -158.5 -417.5t-403.5 -142.5q-269 0 -389.5 142t-91.5 418zM473 1376l252 273h109l196 -273h-102l-152 164l-184 -164h-119z" />
<glyph unicode="&#xdc;" horiz-adv-x="1345" d="M133 535l76 714h151l-73 -700q-25 -233 51.5 -335.5t271.5 -102.5q194 0 293.5 103.5t124.5 334.5l74 700h149l-75 -714q-26 -275 -158.5 -417.5t-403.5 -142.5q-269 0 -389.5 142t-91.5 418zM446 1503q0 51 28.5 82t82.5 31q46 0 69 -23t23 -63q0 -51 -26.5 -82 t-83.5 -31q-45 0 -69 23.5t-24 62.5zM877 1503q0 52 27.5 82.5t82.5 30.5q46 0 70 -24t24 -64q0 -50 -28.5 -80.5t-83.5 -30.5q-45 0 -68.5 23.5t-23.5 62.5z" />
<glyph unicode="&#xdd;" horiz-adv-x="1185" d="M104 1249h150l207 -409l117 -248h8l168 248l295 409h163l-559 -766l-51 -483h-151l51 483zM584 1377l184 282h177l-252 -282h-109z" />
<glyph unicode="&#xde;" horiz-adv-x="1112" d="M80 0l133 1249h149l-22 -205h276q408 0 408 -337q0 -418 -487 -418h-277l-31 -289h-149zM274 420h279q165 0 243 65t78 222q0 113 -64.5 159.5t-203.5 46.5h-278z" />
<glyph unicode="&#xdf;" horiz-adv-x="1183" d="M76 0l96 895q10 99 45 180.5t95 145.5t153.5 99.5t212.5 35.5q169 0 269 -75t100 -208q0 -66 -25 -118t-62 -82t-81 -56.5t-81 -44t-62 -41t-25 -49.5q0 -29 25.5 -54t63.5 -43t83 -45.5t83 -58t63.5 -83.5t25.5 -119q0 -141 -94.5 -221.5t-241.5 -80.5q-159 0 -291 91 l14 118q67 -44 127.5 -67t143.5 -23q95 0 145.5 49.5t50.5 130.5q0 44 -19 78.5t-48.5 57.5t-66 43.5t-73 40.5t-66 42.5t-48.5 56.5t-19 77q0 61 34.5 105t83.5 70.5l98 53t83.5 69.5t34.5 103q0 75 -60.5 115.5t-170.5 40.5q-92 0 -159.5 -28t-107 -80t-60.5 -111 t-30 -136l-92 -874h-147z" />
<glyph unicode="&#xe0;" horiz-adv-x="1007" d="M72 385q0 266 136 413.5t396 147.5q148 0 352 -78l-90 -868h-116l4 199q-33 -86 -116.5 -155t-199.5 -69q-169 0 -267.5 101.5t-98.5 308.5zM221 395q0 -154 63.5 -225.5t174.5 -71.5q51 0 96.5 20t82 57t63.5 76.5t55 92.5l47 434q-98 43 -197 43q-102 0 -178 -34.5 t-120 -95.5t-65.5 -135t-21.5 -161zM418 1331h162l127 -282h-95z" />
<glyph unicode="&#xe1;" horiz-adv-x="1007" d="M72 385q0 266 136 413.5t396 147.5q148 0 352 -78l-90 -868h-116l4 199q-33 -86 -116.5 -155t-199.5 -69q-169 0 -267.5 101.5t-98.5 308.5zM221 395q0 -154 63.5 -225.5t174.5 -71.5q51 0 96.5 20t82 57t63.5 76.5t55 92.5l47 434q-98 43 -197 43q-102 0 -178 -34.5 t-120 -95.5t-65.5 -135t-21.5 -161zM498 1049l184 282h176l-252 -282h-108z" />
<glyph unicode="&#xe2;" horiz-adv-x="1007" d="M72 385q0 266 136 413.5t396 147.5q148 0 352 -78l-90 -868h-116l4 199q-33 -86 -116.5 -155t-199.5 -69q-169 0 -267.5 101.5t-98.5 308.5zM221 395q0 -154 63.5 -225.5t174.5 -71.5q51 0 96.5 20t82 57t63.5 76.5t55 92.5l47 434q-98 43 -197 43q-102 0 -178 -34.5 t-120 -95.5t-65.5 -135t-21.5 -161zM334 1049l252 272h108l197 -272h-103l-151 163l-184 -163h-119z" />
<glyph unicode="&#xe3;" horiz-adv-x="1007" d="M72 385q0 266 136 413.5t396 147.5q148 0 352 -78l-90 -868h-116l4 199q-33 -86 -116.5 -155t-199.5 -69q-169 0 -267.5 101.5t-98.5 308.5zM221 395q0 -154 63.5 -225.5t174.5 -71.5q51 0 96.5 20t82 57t63.5 76.5t55 92.5l47 434q-98 43 -197 43q-102 0 -178 -34.5 t-120 -95.5t-65.5 -135t-21.5 -161zM313 1079q5 95 48.5 149t121.5 54q37 0 72 -16.5t57.5 -36.5t52.5 -36.5t58 -16.5q36 0 57 27t21 69h94q-5 -95 -47.5 -149t-122.5 -54q-37 0 -72.5 16.5t-59 37t-53.5 37t-57 16.5q-71 0 -75 -97h-95z" />
<glyph unicode="&#xe4;" horiz-adv-x="1007" d="M72 385q0 266 136 413.5t396 147.5q148 0 352 -78l-90 -868h-116l4 199q-33 -86 -116.5 -155t-199.5 -69q-169 0 -267.5 101.5t-98.5 308.5zM221 395q0 -154 63.5 -225.5t174.5 -71.5q51 0 96.5 20t82 57t63.5 76.5t55 92.5l47 434q-98 43 -197 43q-102 0 -178 -34.5 t-120 -95.5t-65.5 -135t-21.5 -161zM289 1176q0 51 28 81.5t82 30.5q46 0 69.5 -23t23.5 -63q0 -51 -27 -81.5t-84 -30.5q-45 0 -68.5 23.5t-23.5 62.5zM719 1176q0 52 27.5 82t82.5 30q46 0 70.5 -24t24.5 -64q0 -49 -29 -79.5t-84 -30.5q-45 0 -68.5 23.5t-23.5 62.5z" />
<glyph unicode="&#xe5;" horiz-adv-x="1007" d="M72 385q0 266 136 413.5t396 147.5q148 0 352 -78l-90 -868h-116l4 199q-33 -86 -116.5 -155t-199.5 -69q-169 0 -267.5 101.5t-98.5 308.5zM221 395q0 -154 63.5 -225.5t174.5 -71.5q51 0 96.5 20t82 57t63.5 76.5t55 92.5l47 434q-98 43 -197 43q-102 0 -178 -34.5 t-120 -95.5t-65.5 -135t-21.5 -161zM418 1178q0 88 58 145t155 57q85 0 137.5 -48.5t52.5 -121.5q0 -89 -58 -146.5t-155 -57.5q-85 0 -137.5 48.5t-52.5 123.5zM512 1182q0 -43 26 -70t70 -27q54 0 86.5 32.5t32.5 86.5q0 43 -26 69.5t-70 26.5q-54 0 -86.5 -32t-32.5 -86z " />
<glyph unicode="&#xe6;" horiz-adv-x="1568" d="M43 233q0 161 115 248.5t311 87.5q101 0 184 -18q22 90 70 164q-47 114 -221 114q-167 0 -324 -75l12 123q156 69 324 69q222 0 299 -115l-2 -10q137 125 336 125q155 0 236 -74t81 -196q0 -322 -688 -322q8 -136 76 -199t219 -63q88 0 156 30.5t151 102.5l-14 -135 q-124 -115 -297 -115q-263 0 -369 170q-45 -72 -136.5 -121t-211.5 -49q-138 0 -222.5 68t-84.5 190zM182 254q0 -79 53 -120.5t142 -41.5q88 0 154.5 39t125.5 111q-20 70 -20 166v41q-79 18 -168 18q-137 0 -212 -52.5t-75 -160.5zM778 457q106 0 198.5 11t175 34.5 t131 68.5t48.5 107q0 145 -188 145q-167 0 -262 -103t-103 -263z" />
<glyph unicode="&#xe7;" horiz-adv-x="954" d="M72 422q0 146 63 264.5t184.5 189t280.5 70.5q172 0 283 -69l-15 -129q-116 79 -264 79q-169 0 -276 -115t-107 -290q0 -144 79.5 -236t207.5 -92q97 0 168 27.5t145 89.5l-14 -131q-127 -105 -303 -105q-198 0 -315 124t-117 323zM356 -395l11 102q56 -18 112 -18 q119 0 119 80q0 77 -170 81l49 164l76 -8q-14 -55 -18 -96q77 -5 126.5 -39t49.5 -104q0 -50 -21 -86.5t-56.5 -55.5t-74.5 -28t-82 -9q-55 0 -121 17z" />
<glyph unicode="&#xe8;" horiz-adv-x="1040" d="M72 408q0 151 63 272.5t186 193.5t287 72q156 0 245 -75.5t89 -194.5q0 -322 -731 -322q15 -262 321 -262q90 0 163.5 31t160.5 102l-14 -135q-59 -55 -142.5 -85t-171.5 -30q-225 0 -340.5 118.5t-115.5 314.5zM213 457q107 0 205 11t189.5 34.5t146.5 69t55 106.5 q0 145 -205 145q-177 0 -280 -103.5t-111 -262.5zM375 1331h162l127 -282h-95z" />
<glyph unicode="&#xe9;" horiz-adv-x="1040" d="M72 408q0 151 63 272.5t186 193.5t287 72q156 0 245 -75.5t89 -194.5q0 -322 -731 -322q15 -262 321 -262q90 0 163.5 31t160.5 102l-14 -135q-59 -55 -142.5 -85t-171.5 -30q-225 0 -340.5 118.5t-115.5 314.5zM213 457q107 0 205 11t189.5 34.5t146.5 69t55 106.5 q0 145 -205 145q-177 0 -280 -103.5t-111 -262.5zM455 1049l184 282h176l-252 -282h-108z" />
<glyph unicode="&#xea;" horiz-adv-x="1040" d="M72 408q0 151 63 272.5t186 193.5t287 72q156 0 245 -75.5t89 -194.5q0 -322 -731 -322q15 -262 321 -262q90 0 163.5 31t160.5 102l-14 -135q-59 -55 -142.5 -85t-171.5 -30q-225 0 -340.5 118.5t-115.5 314.5zM213 457q107 0 205 11t189.5 34.5t146.5 69t55 106.5 q0 145 -205 145q-177 0 -280 -103.5t-111 -262.5zM285 1049l252 272h108l197 -272h-103l-151 163l-185 -163h-118z" />
<glyph unicode="&#xeb;" horiz-adv-x="1040" d="M72 408q0 151 63 272.5t186 193.5t287 72q156 0 245 -75.5t89 -194.5q0 -322 -731 -322q15 -262 321 -262q90 0 163.5 31t160.5 102l-14 -135q-59 -55 -142.5 -85t-171.5 -30q-225 0 -340.5 118.5t-115.5 314.5zM213 457q107 0 205 11t189.5 34.5t146.5 69t55 106.5 q0 145 -205 145q-177 0 -280 -103.5t-111 -262.5zM262 1176q0 51 28.5 81.5t82.5 30.5q46 0 69 -23t23 -63q0 -51 -27 -81.5t-84 -30.5q-45 0 -68.5 23.5t-23.5 62.5zM692 1176q0 52 28 82t83 30q46 0 70 -24t24 -64q0 -49 -29 -79.5t-84 -30.5q-45 0 -68.5 23.5t-23.5 62.5 z" />
<glyph unicode="&#xec;" horiz-adv-x="436" d="M37 1331h162l127 -282h-95zM76 0l96 922h147l-96 -922h-147z" />
<glyph unicode="&#xed;" horiz-adv-x="436" d="M76 0l96 922h147l-96 -922h-147zM197 1049l184 282h176l-252 -282h-108z" />
<glyph unicode="&#xee;" horiz-adv-x="436" d="M-12 1049l252 272h108l197 -272h-102l-152 163l-184 -163h-119zM76 0l96 922h147l-96 -922h-147z" />
<glyph unicode="&#xef;" horiz-adv-x="436" d="M-37 1176q0 51 28.5 81.5t82.5 30.5q46 0 69 -23t23 -63q0 -51 -27 -81.5t-84 -30.5q-45 0 -68.5 23.5t-23.5 62.5zM76 0l96 922h147l-96 -922h-147zM393 1176q0 52 28 82t83 30q46 0 70 -24t24 -64q0 -49 -29 -79.5t-84 -30.5q-45 0 -68.5 23.5t-23.5 62.5z" />
<glyph unicode="&#xf0;" horiz-adv-x="1103" d="M59 375q0 128 56.5 233.5t164.5 169.5t248 64q108 0 198.5 -46.5t150.5 -123.5q7 103 -35.5 217t-108.5 180l-346 -145l10 106l248 105q-119 76 -309 79l12 113q261 3 432 -135l297 125l-10 -107l-211 -88q145 -176 145 -477q0 -74 -12.5 -149t-37.5 -151t-68 -142 t-99 -117.5t-135 -81t-172 -29.5q-179 0 -298.5 109.5t-119.5 290.5zM205 379q0 -137 78 -211t192 -74q155 0 248.5 109.5t136.5 320.5q-48 92 -138 145.5t-204 53.5q-150 0 -231.5 -99.5t-81.5 -244.5z" />
<glyph unicode="&#xf1;" horiz-adv-x="1116" d="M72 0l96 922h125l-4 -199q75 95 179.5 159t229.5 64q145 0 220 -93t57 -271l-62 -582h-145l59 563q13 130 -29.5 193t-127.5 63q-83 0 -157 -34t-126 -82.5t-104 -118.5l-62 -584h-149zM324 1079q5 95 48.5 149t121.5 54q37 0 72 -16.5t57.5 -36.5t52.5 -36.5t58 -16.5 q36 0 56.5 27t20.5 69h95q-5 -95 -47.5 -149t-122.5 -54q-37 0 -72.5 16.5t-59 37t-53.5 37t-57 16.5q-72 0 -76 -97h-94z" />
<glyph unicode="&#xf2;" horiz-adv-x="1140" d="M72 408q0 149 63 271t183.5 194.5t275.5 72.5q198 0 318 -121t120 -307q0 -155 -64.5 -278t-184.5 -194t-275 -71q-200 0 -318 119t-118 314zM221 418q0 -144 78 -234t211 -90q161 0 266 116.5t105 295.5q0 143 -79 232t-212 89q-160 0 -264.5 -116t-104.5 -293z M424 1331h162l127 -282h-95z" />
<glyph unicode="&#xf3;" horiz-adv-x="1140" d="M72 408q0 149 63 271t183.5 194.5t275.5 72.5q198 0 318 -121t120 -307q0 -155 -64.5 -278t-184.5 -194t-275 -71q-200 0 -318 119t-118 314zM221 418q0 -144 78 -234t211 -90q161 0 266 116.5t105 295.5q0 143 -79 232t-212 89q-160 0 -264.5 -116t-104.5 -293z M506 1049l184 282h176l-252 -282h-108z" />
<glyph unicode="&#xf4;" horiz-adv-x="1140" d="M72 408q0 149 63 271t183.5 194.5t275.5 72.5q198 0 318 -121t120 -307q0 -155 -64.5 -278t-184.5 -194t-275 -71q-200 0 -318 119t-118 314zM221 418q0 -144 78 -234t211 -90q161 0 266 116.5t105 295.5q0 143 -79 232t-212 89q-160 0 -264.5 -116t-104.5 -293z M334 1049l252 272h108l197 -272h-103l-151 163l-184 -163h-119z" />
<glyph unicode="&#xf5;" horiz-adv-x="1140" d="M72 408q0 149 63 271t183.5 194.5t275.5 72.5q198 0 318 -121t120 -307q0 -155 -64.5 -278t-184.5 -194t-275 -71q-200 0 -318 119t-118 314zM221 418q0 -144 78 -234t211 -90q161 0 266 116.5t105 295.5q0 143 -79 232t-212 89q-160 0 -264.5 -116t-104.5 -293z M334 1079q5 95 48.5 149t121.5 54q37 0 71.5 -16.5t57.5 -36.5t52.5 -36.5t57.5 -16.5q36 0 57 27t21 69h94q-5 -95 -47.5 -149t-122.5 -54q-37 0 -72 16.5t-58.5 37t-53.5 37t-57 16.5q-72 0 -76 -97h-94z" />
<glyph unicode="&#xf6;" horiz-adv-x="1140" d="M72 408q0 149 63 271t183.5 194.5t275.5 72.5q198 0 318 -121t120 -307q0 -155 -64.5 -278t-184.5 -194t-275 -71q-200 0 -318 119t-118 314zM221 418q0 -144 78 -234t211 -90q161 0 266 116.5t105 295.5q0 143 -79 232t-212 89q-160 0 -264.5 -116t-104.5 -293z M309 1176q0 51 28.5 81.5t82.5 30.5q46 0 69 -23t23 -63q0 -51 -27 -81.5t-84 -30.5q-45 0 -68.5 23.5t-23.5 62.5zM739 1176q0 52 28 82t83 30q46 0 70 -24t24 -64q0 -49 -29 -79.5t-84 -30.5q-45 0 -68.5 23.5t-23.5 62.5z" />
<glyph unicode="&#xf7;" horiz-adv-x="1015" d="M86 571l14 125h828l-15 -125h-827zM354 279q0 57 35.5 96t85.5 39q45 0 75 -28.5t30 -74.5q0 -59 -38.5 -98t-90.5 -39q-43 0 -70 29t-27 76zM424 952q0 59 35 97t86 38q45 0 75.5 -28t30.5 -74q0 -59 -38 -98t-93 -39q-42 0 -69 28.5t-27 75.5z" />
<glyph unicode="&#xf8;" horiz-adv-x="1140" d="M45 -37l131 143q-104 116 -104 302q0 149 63 271t183.5 194.5t275.5 72.5q160 0 270 -84l84 92h109l-131 -145q106 -118 106 -291q0 -155 -64.5 -278t-184.5 -194t-275 -71q-162 0 -275 80l-83 -92h-105zM221 418q0 -120 53 -203l500 549q-76 63 -184 63 q-160 0 -264.5 -116t-104.5 -293zM326 156q74 -62 184 -62q161 0 266 116.5t105 295.5q0 114 -54 199z" />
<glyph unicode="&#xf9;" horiz-adv-x="1087" d="M98 268q0 33 2 56l64 598h149l-61 -578q-4 -46 -4 -55q0 -96 41 -141.5t112 -45.5q213 0 365 238l63 582h148l-96 -922h-123l2 199h-4q-32 -48 -64.5 -84.5t-77 -70t-102 -51.5t-125.5 -18q-133 0 -211 74.5t-78 218.5zM397 1331h162l127 -282h-94z" />
<glyph unicode="&#xfa;" horiz-adv-x="1087" d="M98 268q0 33 2 56l64 598h149l-61 -578q-4 -46 -4 -55q0 -96 41 -141.5t112 -45.5q213 0 365 238l63 582h148l-96 -922h-123l2 199h-4q-32 -48 -64.5 -84.5t-77 -70t-102 -51.5t-125.5 -18q-133 0 -211 74.5t-78 218.5zM477 1049l185 282h176l-252 -282h-109z" />
<glyph unicode="&#xfb;" horiz-adv-x="1087" d="M98 268q0 33 2 56l64 598h149l-61 -578q-4 -46 -4 -55q0 -96 41 -141.5t112 -45.5q213 0 365 238l63 582h148l-96 -922h-123l2 199h-4q-32 -48 -64.5 -84.5t-77 -70t-102 -51.5t-125.5 -18q-133 0 -211 74.5t-78 218.5zM307 1049l252 272h109l196 -272h-102l-152 163 l-184 -163h-119z" />
<glyph unicode="&#xfc;" horiz-adv-x="1087" d="M98 268q0 33 2 56l64 598h149l-61 -578q-4 -46 -4 -55q0 -96 41 -141.5t112 -45.5q213 0 365 238l63 582h148l-96 -922h-123l2 199h-4q-32 -48 -64.5 -84.5t-77 -70t-102 -51.5t-125.5 -18q-133 0 -211 74.5t-78 218.5zM285 1176q0 51 28 81.5t82 30.5q46 0 69 -23 t23 -63q0 -51 -26.5 -81.5t-83.5 -30.5q-45 0 -68.5 23.5t-23.5 62.5zM715 1176q0 52 27.5 82t82.5 30q46 0 70.5 -24t24.5 -64q0 -49 -29 -79.5t-84 -30.5q-45 0 -68.5 23.5t-23.5 62.5z" />
<glyph unicode="&#xfd;" horiz-adv-x="974" d="M-61 -428l14 125q73 -41 158 -41q52 0 81 33t70 121l92 190l-286 922h141l153 -523l70 -262h4l135 293l240 492h154l-582 -1137q-26 -51 -39 -74.5t-35.5 -59t-39.5 -51t-42 -33t-53.5 -24t-64.5 -6.5q-86 0 -170 35zM440 1049l184 282h177l-252 -282h-109z" />
<glyph unicode="&#xfe;" horiz-adv-x="1097" d="M29 -440l188 1771h150l-64 -604q60 96 150.5 157.5t205.5 61.5q107 0 182.5 -55.5t109.5 -144t34 -201.5q0 -269 -128 -419.5t-331 -150.5q-162 0 -290 134l-58 -549h-149zM254 240q70 -142 266 -142q141 0 230.5 117t89.5 330q0 278 -209 278q-203 0 -344 -241z" />
<glyph unicode="&#xff;" horiz-adv-x="974" d="M-61 -428l14 125q73 -41 158 -41q52 0 81 33t70 121l92 190l-286 922h141l153 -523l70 -262h4l135 293l240 492h154l-582 -1137q-26 -51 -39 -74.5t-35.5 -59t-39.5 -51t-42 -33t-53.5 -24t-64.5 -6.5q-86 0 -170 35zM229 1176q0 51 28.5 81.5t82.5 30.5q46 0 69 -23 t23 -63q0 -51 -26.5 -81.5t-83.5 -30.5q-46 0 -69.5 24t-23.5 62zM659 1176q0 52 28 82t83 30q46 0 70 -24t24 -64q0 -49 -28.5 -79.5t-83.5 -30.5q-46 0 -69.5 24t-23.5 62z" />
<glyph unicode="&#x152;" horiz-adv-x="1816" d="M90 563q0 164 55 299.5t150.5 225t222 138t270.5 48.5q124 0 236 -25h756l-15 -133h-606l-43 -414h553l-14 -131h-553l-45 -438h606l-14 -133h-756q-103 -25 -221 -25q-164 0 -295.5 70t-209 205t-77.5 313zM246 557q0 -216 115 -332t315 -116q143 0 231 28l103 971 q-81 33 -226 33q-116 0 -214.5 -39.5t-170.5 -113t-112.5 -184.5t-40.5 -247z" />
<glyph unicode="&#x153;" horiz-adv-x="1779" d="M72 410q0 148 63.5 270t181 194t265.5 72q127 0 215.5 -56.5t130.5 -158.5q64 101 171.5 158t252.5 57q146 0 234.5 -79t88.5 -197q0 -73 -34.5 -129.5t-91.5 -91.5t-138 -57.5t-165 -31t-181 -8.5q-57 0 -88 2q8 -135 80.5 -198.5t224.5 -63.5q90 0 163.5 31t160.5 102 l-15 -135q-59 -55 -142.5 -85t-170.5 -30q-310 0 -399 226q-64 -107 -167.5 -166.5t-234.5 -59.5q-186 0 -295.5 122t-109.5 313zM221 418q0 -143 72.5 -233.5t195.5 -90.5q151 0 251 117.5t100 296.5q0 146 -73.5 232.5t-197.5 86.5q-151 0 -249.5 -116t-98.5 -293z M979 457q84 0 159.5 5.5t151.5 20.5t130 38.5t88 62t34 88.5q0 73 -49 112t-145 39q-119 0 -202 -50t-122.5 -130.5t-44.5 -185.5z" />
<glyph unicode="&#x178;" horiz-adv-x="1185" d="M104 1249h150l207 -409l117 -248h8l168 248l295 409h163l-559 -766l-51 -483h-151l51 483zM367 1503q0 51 28 82t82 31q46 0 69 -23t23 -63q0 -51 -26.5 -82t-83.5 -31q-45 0 -68.5 23.5t-23.5 62.5zM797 1503q0 52 27.5 82.5t82.5 30.5q46 0 70 -24t24 -64 q0 -50 -28.5 -80.5t-83.5 -30.5q-45 0 -68.5 23.5t-23.5 62.5z" />
<glyph unicode="&#x2c6;" d="M82 1049l252 272h108l197 -272h-102l-152 163l-184 -163h-119z" />
<glyph unicode="&#x2dc;" d="M82 1079q5 95 48.5 149t121.5 54q37 0 72 -16.5t57.5 -36.5t52.5 -36.5t58 -16.5q36 0 56.5 27t20.5 69h95q-5 -95 -47.5 -149t-122.5 -54q-37 0 -72.5 16.5t-59 37t-53.5 37t-57 16.5q-72 0 -76 -97h-94z" />
<glyph unicode="&#x2000;" horiz-adv-x="854" />
<glyph unicode="&#x2001;" horiz-adv-x="1708" />
<glyph unicode="&#x2002;" horiz-adv-x="854" />
<glyph unicode="&#x2003;" horiz-adv-x="1708" />
<glyph unicode="&#x2004;" horiz-adv-x="569" />
<glyph unicode="&#x2005;" horiz-adv-x="427" />
<glyph unicode="&#x2006;" horiz-adv-x="284" />
<glyph unicode="&#x2007;" horiz-adv-x="284" />
<glyph unicode="&#x2008;" horiz-adv-x="213" />
<glyph unicode="&#x2009;" horiz-adv-x="341" />
<glyph unicode="&#x200a;" horiz-adv-x="94" />
<glyph unicode="&#x2010;" d="M57 557l15 133h497l-14 -133h-498z" />
<glyph unicode="&#x2011;" d="M57 557l15 133h497l-14 -133h-498z" />
<glyph unicode="&#x2012;" d="M57 557l15 133h497l-14 -133h-498z" />
<glyph unicode="&#x2013;" horiz-adv-x="919" d="M59 561l15 125h784l-14 -125h-785z" />
<glyph unicode="&#x2014;" horiz-adv-x="1529" d="M59 561l15 125h1392l-14 -125h-1393z" />
<glyph unicode="&#x2018;" horiz-adv-x="440" d="M152 993q0 170 194 353l64 -25q-43 -43 -82 -109t-43 -122q36 2 62 -26.5t26 -70.5q0 -49 -30.5 -81.5t-82.5 -32.5t-80 32t-28 82z" />
<glyph unicode="&#x2019;" horiz-adv-x="440" d="M131 905q42 42 81 108.5t46 123.5q-37 -4 -63.5 24.5t-26.5 71.5q0 50 30.5 81.5t80.5 31.5q52 0 82 -33t30 -82q0 -165 -198 -352z" />
<glyph unicode="&#x201a;" horiz-adv-x="440" d="M10 -233q42 42 81 108t46 123q-37 -4 -63.5 24.5t-26.5 71.5q0 50 30.5 82.5t80.5 32.5q52 0 82 -33.5t30 -83.5q0 -165 -198 -352z" />
<glyph unicode="&#x201c;" horiz-adv-x="745" d="M152 993q0 170 194 353l64 -25q-43 -43 -82 -109t-43 -122q36 2 62 -26.5t26 -70.5q0 -49 -29.5 -81.5t-81.5 -32.5t-81 32.5t-29 81.5zM457 993q0 170 194 353l64 -25q-42 -42 -81.5 -109t-43.5 -122q36 2 63 -26.5t27 -70.5q0 -49 -30.5 -81.5t-82.5 -32.5t-81 32.5 t-29 81.5z" />
<glyph unicode="&#x201d;" horiz-adv-x="745" d="M131 905q42 42 81 108.5t46 123.5q-37 -4 -63.5 24.5t-26.5 71.5q0 51 29 82t82 31q52 0 82 -33t30 -82q0 -168 -201 -352zM436 905q42 42 81 108.5t46 123.5q-37 -4 -63.5 24.5t-26.5 71.5q0 51 29 82t82 31q52 0 82 -33t30 -82q0 -165 -198 -352z" />
<glyph unicode="&#x201e;" horiz-adv-x="735" d="M10 -233q42 42 81 108t46 123q-37 -4 -63.5 24.5t-26.5 71.5q0 50 30.5 82.5t80.5 32.5q52 0 82 -33.5t30 -83.5q0 -165 -198 -352zM315 -233q42 42 81 108t46 123q-37 -4 -63.5 24.5t-26.5 71.5q0 49 29.5 82t81.5 33q53 0 82.5 -33.5t29.5 -83.5q0 -169 -200 -352z" />
<glyph unicode="&#x2022;" horiz-adv-x="700" d="M117 616q0 108 74.5 190.5t185.5 82.5q94 0 151.5 -65t57.5 -156q0 -106 -75 -186.5t-185 -80.5q-94 0 -151.5 63t-57.5 152z" />
<glyph unicode="&#x2026;" horiz-adv-x="1320" d="M47 90q0 54 35 89.5t86 35.5q45 0 75.5 -31t30.5 -78q0 -53 -35.5 -87.5t-86.5 -34.5q-44 0 -74.5 31t-30.5 75zM487 90q0 54 35 89.5t86 35.5q45 0 76 -31t31 -78q0 -53 -36 -87.5t-87 -34.5q-44 0 -74.5 31t-30.5 75zM928 90q0 54 35 89.5t86 35.5q45 0 75.5 -31 t30.5 -78q0 -53 -36 -87.5t-87 -34.5q-44 0 -74 31t-30 75z" />
<glyph unicode="&#x202f;" horiz-adv-x="341" />
<glyph unicode="&#x2039;" horiz-adv-x="544" d="M41 555l315 434h144l-320 -432l228 -430h-144z" />
<glyph unicode="&#x203a;" horiz-adv-x="544" d="M31 127l317 430l-227 432h141l223 -434l-313 -428h-141z" />
<glyph unicode="&#x205f;" horiz-adv-x="427" />
<glyph unicode="&#x20ac;" horiz-adv-x="1187" d="M94 440l12 101h154q0 92 19 174h-154l10 100h170q67 217 213.5 337t337.5 120q190 0 303 -117l-39 -137q-52 61 -110.5 92t-145.5 31q-141 0 -247.5 -84t-159.5 -242h461l-31 -100h-459q-20 -67 -20 -174h438l-33 -101h-399q20 -167 111.5 -252.5t236.5 -85.5 q90 0 157 34.5t132 99.5l10 -144q-65 -57 -139 -90t-179 -33q-199 0 -331 125.5t-152 345.5h-166z" />
<glyph unicode="&#x2122;" horiz-adv-x="1490" d="M113 1145l10 104h524l-10 -104l-205 2l-59 -574h-115l59 574zM616 573l152 676h117l133 -534l250 534h123l10 -676h-111l-6 349l8 153l-231 -502h-105l-129 502l-20 -153l-78 -349h-113z" />
<glyph unicode="&#x25fc;" horiz-adv-x="921" d="M0 0v922h922v-922h-922z" />
</font>
</defs>
</svg>
